<svg width="860" height="500" viewBox="0 0 860 500" fill="none" xmlns="http://www.w3.org/2000/svg">
<path d="M299.904 242.851L305.813 248.76L299.904 254.669C272.762 281.81 228.757 281.81 201.616 254.669L195.707 248.76L201.616 242.851C228.757 215.71 272.762 215.71 299.904 242.851Z" stroke="black"/>
<line x1="250.5" y1="2.18557e-08" x2="250.5" y2="230" stroke="black"/>
<line y1="248.5" x2="230" y2="248.5" stroke="black"/>
<line x1="274" y1="248.5" x2="504" y2="248.5" stroke="black"/>
<line x1="250.5" y1="270" x2="250.5" y2="500" stroke="black"/>
<path d="M275.5 248.5C261.417 248.5 250.5 236.583 250.5 222.5" stroke="black"/>
<path d="M250.5 224C250.5 238.083 238.583 248.5 224.5 248.5" stroke="black"/>
<path d="M250.5 274C250.5 259.917 262.917 248.5 277 248.5" stroke="black"/>
<path d="M225 248.5C239.083 248.5 250.5 260.917 250.5 275" stroke="black"/>
<path d="M654.706 240.796L661.83 248.272L654.706 255.747C628.226 283.535 585.294 283.535 558.814 255.747L551.69 248.272L558.814 240.796C585.294 213.009 628.226 213.009 654.706 240.796Z" stroke="black"/>
<line x1="606.5" y1="2.18557e-08" x2="606.5" y2="230" stroke="black"/>
<line x1="356" y1="248.5" x2="586" y2="248.5" stroke="black"/>
<line x1="630" y1="248.5" x2="860" y2="248.5" stroke="black"/>
<line x1="606.5" y1="270" x2="606.5" y2="500" stroke="black"/>
<path d="M631.5 248.5C617.417 248.5 606.5 236.583 606.5 222.5" stroke="black"/>
<path d="M606.5 224C606.5 238.083 594.583 248.5 580.5 248.5" stroke="black"/>
<path d="M606.5 274C606.5 259.917 618.917 248.5 633 248.5" stroke="black"/>
<path d="M581 248.5C595.083 248.5 606.5 260.917 606.5 275" stroke="black"/>
</svg>
