<svg width="113" height="113" viewBox="0 0 113 113" fill="none" xmlns="http://www.w3.org/2000/svg">
<path d="M105.665 50.373L111.574 56.282L105.665 62.1909C78.5232 89.3324 34.5183 89.3324 7.37683 62.1909L1.46786 56.282L7.37683 50.373C34.5183 23.2316 78.5232 23.2316 105.665 50.373Z" fill="white" stroke="black"/>
<g clip-path="url(#clip0_231_1594)">
<rect x="32.7607" y="31.5034" width="48.96" height="48.96" rx="24.48" fill="#00B8F2"/>
<path fill-rule="evenodd" clip-rule="evenodd" d="M68.9618 46.3023C69.2548 46.5954 69.4195 46.9928 69.4195 47.4072C69.4195 47.8216 69.2548 48.219 68.9618 48.512L60.4913 56.9826L68.9618 65.4531C69.2548 65.7462 69.4195 66.1436 69.4195 66.558C69.4195 66.9724 69.2548 67.3698 68.9618 67.6628C68.6688 67.9559 68.2714 68.1205 67.857 68.1205C67.4426 68.1205 67.0451 67.9559 66.7521 67.6628L58.2816 59.1923L49.811 67.6628C49.518 67.9559 49.1205 68.1205 48.7061 68.1205C48.2917 68.1205 47.8943 67.9559 47.6013 67.6628C47.3083 67.3698 47.1436 66.9724 47.1436 66.558C47.1436 66.1436 47.3083 65.7462 47.6013 65.4531L56.0718 56.9826L47.6013 48.512C47.3083 48.219 47.1437 47.8216 47.1437 47.4072C47.1437 46.9928 47.3083 46.5954 47.6013 46.3023C47.8943 46.0093 48.2917 45.8447 48.7061 45.8447C49.1206 45.8447 49.518 46.0093 49.811 46.3023L58.2816 54.7729L66.7521 46.3023C67.0451 46.0093 67.4426 45.8447 67.857 45.8447C68.2714 45.8447 68.6688 46.0093 68.9618 46.3023Z" fill="#111111"/>
</g>
<defs>
<clipPath id="clip0_231_1594">
<rect x="32.7607" y="31.5034" width="48.96" height="48.96" rx="24.48" fill="white"/>
</clipPath>
</defs>
</svg>
