<svg width="112" height="112" viewBox="0 0 112 112" fill="none" xmlns="http://www.w3.org/2000/svg">
<path d="M104.904 49.851L110.813 55.76L104.904 61.669C77.7625 88.8104 33.7575 88.8104 6.61609 61.669L0.70712 55.76L6.61608 49.851C33.7575 22.7096 77.7625 22.7096 104.904 49.851Z" fill="white" stroke="black"/>
<g clip-path="url(#clip0_231_1196)">
<rect x="32" y="30.9813" width="48.96" height="48.96" rx="24.48" fill="#00B8F2"/>
<path fill-rule="evenodd" clip-rule="evenodd" d="M72.625 56.4605C72.625 56.8749 72.4604 57.2723 72.1674 57.5653C71.8743 57.8584 71.4769 58.023 71.0625 58.023H59.0833V70.0022C59.0833 70.4166 58.9187 70.814 58.6257 71.107C58.3327 71.4 57.9352 71.5647 57.5208 71.5647C57.1064 71.5647 56.709 71.4 56.416 71.107C56.123 70.814 55.9583 70.4166 55.9583 70.0022V58.023H43.9792C43.5648 58.023 43.1673 57.8584 42.8743 57.5653C42.5813 57.2723 42.4167 56.8749 42.4167 56.4605C42.4167 56.0461 42.5813 55.6487 42.8743 55.3556C43.1673 55.0626 43.5648 54.898 43.9792 54.898H55.9583V42.9188C55.9583 42.5044 56.123 42.107 56.416 41.814C56.709 41.5209 57.1064 41.3563 57.5208 41.3563C57.9352 41.3563 58.3327 41.5209 58.6257 41.814C58.9187 42.107 59.0833 42.5044 59.0833 42.9188V54.898H71.0625C71.4769 54.898 71.8743 55.0626 72.1674 55.3556C72.4604 55.6487 72.625 56.0461 72.625 56.4605Z" fill="#111111"/>
</g>
<defs>
<clipPath id="clip0_231_1196">
<rect x="32" y="30.9813" width="48.96" height="48.96" rx="24.48" fill="white"/>
</clipPath>
</defs>
</svg>
