<svg width="460" height="214" viewBox="0 0 460 214" fill="none" xmlns="http://www.w3.org/2000/svg">
<path d="M201.304 95.6611L212.643 107L201.304 118.339C149.221 170.422 64.7786 170.422 12.6958 118.339L1.35689 107L12.6958 95.6611C64.7786 43.5783 149.221 43.5783 201.304 95.6611Z" fill="white" stroke="black" stroke-width="1.91894"/>
<g clip-path="url(#clip0_286_959)">
<rect x="61.406" y="59.4513" width="93.9512" height="93.9512" rx="46.9756" fill="#00B8F2"/>
<path fill-rule="evenodd" clip-rule="evenodd" d="M139.363 108.344C139.363 109.139 139.047 109.902 138.485 110.464C137.922 111.027 137.16 111.343 136.365 111.343H113.377V134.33C113.377 135.125 113.061 135.888 112.499 136.45C111.937 137.012 111.174 137.328 110.379 137.328C109.584 137.328 108.821 137.012 108.259 136.45C107.697 135.888 107.381 135.125 107.381 134.33V111.343H84.3933C83.5981 111.343 82.8355 111.027 82.2732 110.464C81.7109 109.902 81.395 109.139 81.395 108.344C81.395 107.549 81.7109 106.786 82.2732 106.224C82.8355 105.662 83.5981 105.346 84.3933 105.346H107.381V82.3586C107.381 81.5634 107.697 80.8007 108.259 80.2384C108.821 79.6761 109.584 79.3602 110.379 79.3602C111.174 79.3602 111.937 79.6761 112.499 80.2384C113.061 80.8007 113.377 81.5634 113.377 82.3586V105.346H136.365C137.16 105.346 137.922 105.662 138.485 106.224C139.047 106.786 139.363 107.549 139.363 108.344Z" fill="#111111"/>
</g>
<path d="M446.928 95.6611L458.267 107L446.928 118.339C394.845 170.422 310.403 170.422 258.32 118.339L246.981 107L258.32 95.6611C310.403 43.5783 394.845 43.5783 446.928 95.6611Z" fill="white" stroke="black" stroke-width="1.91894"/>
<g clip-path="url(#clip1_286_959)">
<rect x="307.03" y="59.4513" width="93.9512" height="93.9512" rx="46.9756" fill="#00B8F2"/>
<path fill-rule="evenodd" clip-rule="evenodd" d="M384.987 108.344C384.987 109.139 384.671 109.902 384.109 110.464C383.546 111.027 382.784 111.343 381.989 111.343H359.001V134.33C359.001 135.125 358.685 135.888 358.123 136.45C357.561 137.012 356.798 137.328 356.003 137.328C355.208 137.328 354.445 137.012 353.883 136.45C353.321 135.888 353.005 135.125 353.005 134.33V111.343H330.017C329.222 111.343 328.459 111.027 327.897 110.464C327.335 109.902 327.019 109.139 327.019 108.344C327.019 107.549 327.335 106.786 327.897 106.224C328.459 105.662 329.222 105.346 330.017 105.346H353.005V82.3586C353.005 81.5634 353.321 80.8007 353.883 80.2384C354.445 79.6761 355.208 79.3602 356.003 79.3602C356.798 79.3602 357.561 79.6761 358.123 80.2384C358.685 80.8007 359.001 81.5634 359.001 82.3586V105.346H381.989C382.784 105.346 383.546 105.662 384.109 106.224C384.671 106.786 384.987 107.549 384.987 108.344Z" fill="#111111"/>
</g>
<defs>
<clipPath id="clip0_286_959">
<rect x="61.406" y="59.4513" width="93.9512" height="93.9512" rx="46.9756" fill="white"/>
</clipPath>
<clipPath id="clip1_286_959">
<rect x="307.03" y="59.4513" width="93.9512" height="93.9512" rx="46.9756" fill="white"/>
</clipPath>
</defs>
</svg>
