<svg width="460" height="214" viewBox="0 0 460 214" fill="none" xmlns="http://www.w3.org/2000/svg">
<path d="M201.304 95.6611L212.643 107L201.304 118.339C149.221 170.422 64.7786 170.422 12.6958 118.339L1.35689 107L12.6958 95.6611C64.7786 43.5783 149.221 43.5783 201.304 95.6611Z" stroke="black" stroke-width="1.91894"/>
<g clip-path="url(#clip0_313_1016)">
<rect x="61.406" y="59.4514" width="93.9512" height="93.9512" rx="46.9756" fill="#211AE4"/>
<path d="M110.41 90.1162C111.759 88.5958 113.399 87.3613 115.234 86.4854C117.068 85.6095 119.059 85.1101 121.089 85.0167C123.12 84.9232 125.148 85.2376 127.055 85.9413C128.962 86.6449 130.708 87.7236 132.191 89.1136C133.674 90.5036 134.864 92.1766 135.689 94.034C136.515 95.8913 136.959 97.8952 136.997 99.9274C137.035 101.96 136.666 103.979 135.91 105.866C135.155 107.752 134.029 109.469 132.599 110.913L110.245 133.481C110.082 133.646 109.888 133.776 109.675 133.865C109.461 133.954 109.232 134 109.001 134C108.77 134 108.541 133.954 108.327 133.865C108.114 133.776 107.92 133.646 107.757 133.481L85.4034 110.913C82.692 108.176 81.1206 104.511 81.0067 100.66C80.8927 96.8089 82.2448 93.058 84.7897 90.1652C90.8285 83.2982 101.52 83.2748 107.592 90.1162L109.001 91.7028L110.41 90.1162V90.1162Z" fill="white"/>
</g>
<path d="M446.928 95.6611L458.267 107L446.928 118.339C394.845 170.422 310.403 170.422 258.32 118.339L246.981 107L258.32 95.6611C310.403 43.5783 394.845 43.5783 446.928 95.6611Z" stroke="black" stroke-width="1.91894"/>
<g clip-path="url(#clip1_313_1016)">
<rect x="307.03" y="59.4514" width="93.9512" height="93.9512" rx="46.9756" fill="#211AE4"/>
<path d="M356.41 90.1162C357.759 88.5958 359.399 87.3613 361.234 86.4854C363.068 85.6095 365.059 85.1101 367.089 85.0167C369.12 84.9232 371.148 85.2376 373.055 85.9413C374.962 86.6449 376.708 87.7236 378.191 89.1136C379.674 90.5036 380.864 92.1766 381.689 94.034C382.515 95.8913 382.959 97.8952 382.997 99.9274C383.035 101.96 382.666 103.979 381.91 105.866C381.155 107.752 380.029 109.469 378.599 110.913L356.245 133.481C356.082 133.646 355.888 133.776 355.675 133.865C355.461 133.954 355.232 134 355.001 134C354.77 134 354.541 133.954 354.327 133.865C354.114 133.776 353.92 133.646 353.757 133.481L331.403 110.913C328.692 108.176 327.121 104.511 327.007 100.66C326.893 96.8089 328.245 93.058 330.79 90.1652C336.829 83.2982 347.52 83.2748 353.592 90.1162L355.001 91.7028L356.41 90.1162V90.1162Z" fill="white"/>
</g>
<defs>
<clipPath id="clip0_313_1016">
<rect x="61.406" y="59.4514" width="93.9512" height="93.9512" rx="46.9756" fill="white"/>
</clipPath>
<clipPath id="clip1_313_1016">
<rect x="307.03" y="59.4514" width="93.9512" height="93.9512" rx="46.9756" fill="white"/>
</clipPath>
</defs>
</svg>
