<svg width="164" height="439" viewBox="0 0 164 439" fill="none" xmlns="http://www.w3.org/2000/svg">
<path d="M32.3768 65.851C59.5183 38.7096 103.523 38.7096 130.665 65.851L136.574 71.76L130.665 77.669C103.523 104.81 59.5183 104.81 32.3768 77.669L26.4679 71.76L32.3768 65.851Z" fill="white" stroke="black"/>
<g clip-path="url(#clip0_231_1600)">
<rect x="57.7607" y="46.9814" width="48.96" height="48.96" rx="24.48" fill="#00B8F2"/>
<path fill-rule="evenodd" clip-rule="evenodd" d="M98.3857 72.4606C98.3857 72.875 98.2211 73.2724 97.9281 73.5655C97.6351 73.8585 97.2376 74.0231 96.8232 74.0231H84.8441V86.0023C84.8441 86.4167 84.6795 86.8141 84.3864 87.1071C84.0934 87.4002 83.696 87.5648 83.2816 87.5648C82.8672 87.5648 82.4697 87.4002 82.1767 87.1071C81.8837 86.8141 81.7191 86.4167 81.7191 86.0023V74.0231H69.7399C69.3255 74.0231 68.9281 73.8585 68.6351 73.5655C68.342 73.2724 68.1774 72.875 68.1774 72.4606C68.1774 72.0462 68.342 71.6488 68.6351 71.3558C68.9281 71.0627 69.3255 70.8981 69.7399 70.8981H81.7191V58.9189C81.7191 58.5045 81.8837 58.1071 82.1767 57.8141C82.4697 57.5211 82.8672 57.3564 83.2816 57.3564C83.696 57.3564 84.0934 57.5211 84.3864 57.8141C84.6795 58.1071 84.8441 58.5045 84.8441 58.9189V70.8981H96.8232C97.2376 70.8981 97.6351 71.0627 97.9281 71.3558C98.2211 71.6488 98.3857 72.0462 98.3857 72.4606Z" fill="#111111"/>
</g>
<path d="M137.281 219.28L131.018 225.543C103.682 252.879 59.36 252.879 32.0233 225.543L25.7608 219.28" stroke="black"/>
<rect x="0.5" y="0.5" width="162.521" height="437.56" rx="4.5" stroke="#7B61FF" stroke-dasharray="10 5"/>
<defs>
<clipPath id="clip0_231_1600">
<rect x="57.7607" y="46.9814" width="48.96" height="48.96" rx="24.48" fill="white"/>
</clipPath>
</defs>
</svg>
