<svg width="582" height="609" viewBox="0 0 582 609" fill="none" xmlns="http://www.w3.org/2000/svg">
<g clip-path="url(#clip0_231_1119)">
<path d="M142.355 476.588L142.346 476.561L142.334 476.536C80.7635 346.259 86.3245 249.926 122.869 186.192C159.42 122.445 227.029 91.191 289.805 91.191C352.583 91.191 420.193 122.445 456.744 186.192C493.288 249.926 498.848 346.259 437.276 476.536L437.264 476.561L437.255 476.588L437.728 476.75C437.255 476.588 437.255 476.588 437.255 476.589L437.253 476.593L437.247 476.61L437.223 476.68L437.194 476.763C437.175 476.817 437.152 476.883 437.124 476.96C437.036 477.208 436.904 477.576 436.727 478.057C436.373 479.018 435.839 480.43 435.124 482.227C433.692 485.822 431.532 490.96 428.618 497.127C422.791 509.462 413.953 525.905 401.911 542.345C377.817 575.239 340.966 608.032 289.805 608.032C238.645 608.032 201.795 575.239 177.7 542.345C165.658 525.905 156.82 509.462 150.992 497.127C148.078 490.96 145.918 485.822 144.486 482.227C143.77 480.43 143.237 479.018 142.883 478.057C142.706 477.576 142.573 477.208 142.485 476.96C142.461 476.892 142.44 476.833 142.423 476.784C142.409 476.743 142.397 476.709 142.387 476.68L142.362 476.61L142.356 476.593L142.355 476.589C142.355 476.588 142.355 476.588 141.882 476.75L142.355 476.588Z" fill="#F9F9F9" stroke="#111111"/>
<mask id="path-2-inside-1_231_1119" fill="white">
<path d="M447.923 0.417114C381.726 32.2112 336.027 99.8769 336.027 178.222H246.099C246.099 99.8769 200.4 32.2112 134.199 0.417114C68.0062 32.2112 22.3027 99.8769 22.3027 178.222C22.3027 180.402 22.3509 182.575 22.4231 184.737C22.4401 185.321 22.4642 185.898 22.4878 186.478C22.5639 188.325 22.6629 190.161 22.7905 191.994C22.814 192.338 22.8277 192.681 22.8556 193.024C23.0138 195.148 23.2092 197.26 23.432 199.361C23.4906 199.893 23.5563 200.418 23.6143 200.947C23.8136 202.666 24.0331 204.379 24.2734 206.082C24.3385 206.559 24.4004 207.036 24.4721 207.51C24.7808 209.583 25.1213 211.647 25.4952 213.703C25.5707 214.125 25.6566 214.547 25.7355 214.969C26.0579 216.675 26.4016 218.375 26.7684 220.063C26.8817 220.588 26.9917 221.111 27.1083 221.635C27.5687 223.671 28.0493 225.697 28.5672 227.708C28.6252 227.925 28.6843 228.134 28.7424 228.35C29.2191 230.169 29.7271 231.978 30.2526 233.78C30.407 234.305 30.5652 234.83 30.7228 235.356C31.285 237.216 31.8691 239.07 32.4838 240.907C32.5287 241.041 32.5692 241.171 32.6141 241.305C33.277 243.268 33.9765 245.215 34.7007 247.15C34.8825 247.638 35.0686 248.122 35.2536 248.606C35.8788 250.24 36.5236 251.863 37.1898 253.474C37.3272 253.807 37.4575 254.143 37.5982 254.473C38.3914 256.367 39.2185 258.246 40.0702 260.109C40.2553 260.518 40.4474 260.919 40.6362 261.324C41.3571 262.872 42.0983 264.41 42.8575 265.938C43.0595 266.343 43.2593 266.752 43.4646 267.157C44.3914 268.987 45.3422 270.802 46.3242 272.601C46.4726 272.869 46.6264 273.136 46.7742 273.407C47.6353 274.966 48.521 276.511 49.4209 278.041C49.6711 278.467 49.9218 278.89 50.1725 279.312C52.2865 282.847 54.5117 286.308 56.8354 289.693C57.1102 290.091 57.385 290.485 57.6598 290.88C58.7376 292.428 59.8357 293.962 60.9579 295.476C61.0608 295.617 61.1642 295.762 61.2666 295.899C62.4993 297.553 63.7622 299.184 65.0459 300.797C65.3174 301.144 65.5954 301.484 65.8735 301.826C66.9793 303.196 68.1014 304.556 69.2406 305.895C69.4672 306.158 69.6867 306.427 69.9133 306.69C71.255 308.253 72.6213 309.79 74.0117 311.312C74.2455 311.562 74.482 311.812 74.7157 312.063C75.9205 313.367 77.1428 314.651 78.3816 315.918C78.6733 316.22 78.9684 316.524 79.2635 316.823C80.7223 318.296 82.1948 319.752 83.6985 321.18C83.8085 321.282 83.9186 321.383 84.0253 321.482C85.4184 322.8 86.8367 324.094 88.2676 325.372C88.601 325.67 88.9344 325.965 89.27 326.26C92.3732 328.993 95.5661 331.629 98.8406 334.165C99.1839 334.43 99.5271 334.694 99.8703 334.955C101.357 336.091 102.856 337.206 104.374 338.302C104.553 338.428 104.725 338.559 104.903 338.686C106.599 339.898 108.315 341.079 110.048 342.239C110.364 342.448 110.684 342.654 110.999 342.864C112.499 343.856 114.013 344.824 115.545 345.775C115.847 345.963 116.148 346.155 116.45 346.341C118.232 347.436 120.03 348.503 121.85 349.541C122.073 349.671 122.303 349.795 122.53 349.921C124.14 350.831 125.763 351.716 127.4 352.584C127.778 352.784 128.156 352.986 128.537 353.182C155.737 367.346 186.65 375.357 219.439 375.357C244.707 375.357 268.859 370.6 291.058 361.939C313.262 370.599 337.414 375.357 362.68 375.357C395.469 375.357 426.381 367.346 453.585 353.182C453.962 352.987 454.34 352.784 454.717 352.584C456.355 351.716 457.982 350.831 459.591 349.921C459.814 349.795 460.045 349.671 460.271 349.541C462.087 348.503 463.886 347.436 465.667 346.341C465.973 346.155 466.271 345.963 466.577 345.775C468.104 344.824 469.618 343.856 471.118 342.864C471.438 342.654 471.753 342.448 472.069 342.239C473.803 341.079 475.523 339.898 477.218 338.686C477.393 338.559 477.569 338.428 477.743 338.302C479.26 337.206 480.761 336.091 482.247 334.955C482.59 334.694 482.937 334.43 483.28 334.165C486.552 331.628 489.745 328.993 492.848 326.26C493.184 325.965 493.518 325.67 493.853 325.372C495.285 324.094 496.699 322.8 498.093 321.482C498.2 321.383 498.313 321.282 498.419 321.18C499.924 319.752 501.399 318.296 502.854 316.823C503.153 316.524 503.445 316.22 503.74 315.918C504.98 314.652 506.202 313.367 507.403 312.063C507.636 311.812 507.873 311.562 508.106 311.312C509.496 309.79 510.863 308.253 512.205 306.69C512.432 306.427 512.651 306.158 512.878 305.895C514.017 304.556 515.14 303.196 516.245 301.826C516.523 301.484 516.802 301.143 517.076 300.797C518.357 299.184 519.62 297.553 520.852 295.899C520.958 295.762 521.058 295.617 521.16 295.476C522.283 293.962 523.382 292.428 524.459 290.88C524.737 290.485 525.012 290.091 525.283 289.693C527.61 286.308 529.832 282.848 531.946 279.312C532.2 278.89 532.447 278.467 532.697 278.041C533.6 276.511 534.483 274.966 535.344 273.407C535.492 273.136 535.646 272.869 535.794 272.601C536.775 270.802 537.726 268.987 538.653 267.157C538.86 266.752 539.058 266.344 539.261 265.938C540.019 264.41 540.761 262.872 541.482 261.324C541.67 260.919 541.864 260.518 542.049 260.109C542.899 258.246 543.726 256.367 544.523 254.473C544.661 254.143 544.794 253.807 544.931 253.474C545.598 251.864 546.24 250.24 546.864 248.606C547.05 248.122 547.238 247.638 547.42 247.15C548.141 245.215 548.842 243.268 549.507 241.305C549.551 241.171 549.59 241.041 549.634 240.907C550.252 239.071 550.834 237.217 551.395 235.356C551.556 234.831 551.711 234.306 551.865 233.78C552.394 231.978 552.899 230.168 553.376 228.35C553.433 228.134 553.496 227.924 553.551 227.708C554.069 225.697 554.553 223.671 555.009 221.635C555.126 221.111 555.24 220.588 555.353 220.063C555.716 218.375 556.059 216.675 556.383 214.969C556.462 214.547 556.548 214.125 556.626 213.703C556.996 211.646 557.336 209.583 557.645 207.51C557.718 207.036 557.78 206.559 557.848 206.082C558.087 204.38 558.308 202.666 558.504 200.947C558.565 200.418 558.627 199.893 558.685 199.361C558.909 197.26 559.107 195.148 559.263 193.024C559.29 192.681 559.307 192.338 559.327 191.994C559.454 190.161 559.554 188.325 559.629 186.478C559.654 185.897 559.678 185.321 559.698 184.737C559.767 182.575 559.814 180.402 559.814 178.222C559.82 99.8769 514.12 32.2112 447.923 0.417114Z"/>
</mask>
<path d="M447.923 0.417114C381.726 32.2112 336.027 99.8769 336.027 178.222H246.099C246.099 99.8769 200.4 32.2112 134.199 0.417114C68.0062 32.2112 22.3027 99.8769 22.3027 178.222C22.3027 180.402 22.3509 182.575 22.4231 184.737C22.4401 185.321 22.4642 185.898 22.4878 186.478C22.5639 188.325 22.6629 190.161 22.7905 191.994C22.814 192.338 22.8277 192.681 22.8556 193.024C23.0138 195.148 23.2092 197.26 23.432 199.361C23.4906 199.893 23.5563 200.418 23.6143 200.947C23.8136 202.666 24.0331 204.379 24.2734 206.082C24.3385 206.559 24.4004 207.036 24.4721 207.51C24.7808 209.583 25.1213 211.647 25.4952 213.703C25.5707 214.125 25.6566 214.547 25.7355 214.969C26.0579 216.675 26.4016 218.375 26.7684 220.063C26.8817 220.588 26.9917 221.111 27.1083 221.635C27.5687 223.671 28.0493 225.697 28.5672 227.708C28.6252 227.925 28.6843 228.134 28.7424 228.35C29.2191 230.169 29.7271 231.978 30.2526 233.78C30.407 234.305 30.5652 234.83 30.7228 235.356C31.285 237.216 31.8691 239.07 32.4838 240.907C32.5287 241.041 32.5692 241.171 32.6141 241.305C33.277 243.268 33.9765 245.215 34.7007 247.15C34.8825 247.638 35.0686 248.122 35.2536 248.606C35.8788 250.24 36.5236 251.863 37.1898 253.474C37.3272 253.807 37.4575 254.143 37.5982 254.473C38.3914 256.367 39.2185 258.246 40.0702 260.109C40.2553 260.518 40.4474 260.919 40.6362 261.324C41.3571 262.872 42.0983 264.41 42.8575 265.938C43.0595 266.343 43.2593 266.752 43.4646 267.157C44.3914 268.987 45.3422 270.802 46.3242 272.601C46.4726 272.869 46.6264 273.136 46.7742 273.407C47.6353 274.966 48.521 276.511 49.4209 278.041C49.6711 278.467 49.9218 278.89 50.1725 279.312C52.2865 282.847 54.5117 286.308 56.8354 289.693C57.1102 290.091 57.385 290.485 57.6598 290.88C58.7376 292.428 59.8357 293.962 60.9579 295.476C61.0608 295.617 61.1642 295.762 61.2666 295.899C62.4993 297.553 63.7622 299.184 65.0459 300.797C65.3174 301.144 65.5954 301.484 65.8735 301.826C66.9793 303.196 68.1014 304.556 69.2406 305.895C69.4672 306.158 69.6867 306.427 69.9133 306.69C71.255 308.253 72.6213 309.79 74.0117 311.312C74.2455 311.562 74.482 311.812 74.7157 312.063C75.9205 313.367 77.1428 314.651 78.3816 315.918C78.6733 316.22 78.9684 316.524 79.2635 316.823C80.7223 318.296 82.1948 319.752 83.6985 321.18C83.8085 321.282 83.9186 321.383 84.0253 321.482C85.4184 322.8 86.8367 324.094 88.2676 325.372C88.601 325.67 88.9344 325.965 89.27 326.26C92.3732 328.993 95.5661 331.629 98.8406 334.165C99.1839 334.43 99.5271 334.694 99.8703 334.955C101.357 336.091 102.856 337.206 104.374 338.302C104.553 338.428 104.725 338.559 104.903 338.686C106.599 339.898 108.315 341.079 110.048 342.239C110.364 342.448 110.684 342.654 110.999 342.864C112.499 343.856 114.013 344.824 115.545 345.775C115.847 345.963 116.148 346.155 116.45 346.341C118.232 347.436 120.03 348.503 121.85 349.541C122.073 349.671 122.303 349.795 122.53 349.921C124.14 350.831 125.763 351.716 127.4 352.584C127.778 352.784 128.156 352.986 128.537 353.182C155.737 367.346 186.65 375.357 219.439 375.357C244.707 375.357 268.859 370.6 291.058 361.939C313.262 370.599 337.414 375.357 362.68 375.357C395.469 375.357 426.381 367.346 453.585 353.182C453.962 352.987 454.34 352.784 454.717 352.584C456.355 351.716 457.982 350.831 459.591 349.921C459.814 349.795 460.045 349.671 460.271 349.541C462.087 348.503 463.886 347.436 465.667 346.341C465.973 346.155 466.271 345.963 466.577 345.775C468.104 344.824 469.618 343.856 471.118 342.864C471.438 342.654 471.753 342.448 472.069 342.239C473.803 341.079 475.523 339.898 477.218 338.686C477.393 338.559 477.569 338.428 477.743 338.302C479.26 337.206 480.761 336.091 482.247 334.955C482.59 334.694 482.937 334.43 483.28 334.165C486.552 331.628 489.745 328.993 492.848 326.26C493.184 325.965 493.518 325.67 493.853 325.372C495.285 324.094 496.699 322.8 498.093 321.482C498.2 321.383 498.313 321.282 498.419 321.18C499.924 319.752 501.399 318.296 502.854 316.823C503.153 316.524 503.445 316.22 503.74 315.918C504.98 314.652 506.202 313.367 507.403 312.063C507.636 311.812 507.873 311.562 508.106 311.312C509.496 309.79 510.863 308.253 512.205 306.69C512.432 306.427 512.651 306.158 512.878 305.895C514.017 304.556 515.14 303.196 516.245 301.826C516.523 301.484 516.802 301.143 517.076 300.797C518.357 299.184 519.62 297.553 520.852 295.899C520.958 295.762 521.058 295.617 521.16 295.476C522.283 293.962 523.382 292.428 524.459 290.88C524.737 290.485 525.012 290.091 525.283 289.693C527.61 286.308 529.832 282.848 531.946 279.312C532.2 278.89 532.447 278.467 532.697 278.041C533.6 276.511 534.483 274.966 535.344 273.407C535.492 273.136 535.646 272.869 535.794 272.601C536.775 270.802 537.726 268.987 538.653 267.157C538.86 266.752 539.058 266.344 539.261 265.938C540.019 264.41 540.761 262.872 541.482 261.324C541.67 260.919 541.864 260.518 542.049 260.109C542.899 258.246 543.726 256.367 544.523 254.473C544.661 254.143 544.794 253.807 544.931 253.474C545.598 251.864 546.24 250.24 546.864 248.606C547.05 248.122 547.238 247.638 547.42 247.15C548.141 245.215 548.842 243.268 549.507 241.305C549.551 241.171 549.59 241.041 549.634 240.907C550.252 239.071 550.834 237.217 551.395 235.356C551.556 234.831 551.711 234.306 551.865 233.78C552.394 231.978 552.899 230.168 553.376 228.35C553.433 228.134 553.496 227.924 553.551 227.708C554.069 225.697 554.553 223.671 555.009 221.635C555.126 221.111 555.24 220.588 555.353 220.063C555.716 218.375 556.059 216.675 556.383 214.969C556.462 214.547 556.548 214.125 556.626 213.703C556.996 211.646 557.336 209.583 557.645 207.51C557.718 207.036 557.78 206.559 557.848 206.082C558.087 204.38 558.308 202.666 558.504 200.947C558.565 200.418 558.627 199.893 558.685 199.361C558.909 197.26 559.107 195.148 559.263 193.024C559.29 192.681 559.307 192.338 559.327 191.994C559.454 190.161 559.554 188.325 559.629 186.478C559.654 185.897 559.678 185.321 559.698 184.737C559.767 182.575 559.814 180.402 559.814 178.222C559.82 99.8769 514.12 32.2112 447.923 0.417114Z" fill="#F9F9F9" stroke="#111111" stroke-width="2" mask="url(#path-2-inside-1_231_1119)"/>
<path d="M289.571 172.407L289.805 172.53L290.039 172.407C317.43 157.93 348.647 149.723 381.786 149.723C490.389 149.723 578.424 237.761 578.424 346.361C578.424 454.965 490.388 543.004 381.786 543.004C348.647 543.004 317.43 534.793 290.039 520.316L289.805 520.192L289.571 520.316C262.18 534.793 230.963 543.004 197.825 543.004C89.2248 543.004 1.18701 454.964 1.18701 346.361C1.18701 237.761 89.2253 149.723 197.825 149.723C230.964 149.723 262.18 157.93 289.571 172.407Z" fill="#F9F9F9" stroke="#111111"/>
<path opacity="0.6" d="M2.44336 346.868C2.44336 327.827 5.16197 309.425 10.2095 292.015C32.4262 283.31 56.6094 278.529 81.9119 278.529C190.516 278.529 278.553 366.568 278.554 475.171C278.554 494.198 275.839 512.588 270.799 529.99C248.578 538.702 224.395 543.507 199.082 543.507C90.4817 543.507 2.44336 455.468 2.44336 346.868Z" fill="#F9F9F9" stroke="#111111"/>
<path opacity="0.8" d="M498.371 278.529C523.674 278.529 547.86 283.311 570.074 292.015C575.125 309.425 577.839 327.828 577.839 346.869C577.839 455.469 489.804 543.508 381.202 543.508C355.888 543.508 331.709 538.703 309.488 529.991C304.447 512.588 301.732 494.199 301.732 475.171C301.732 366.568 389.771 278.529 498.371 278.529Z" fill="#F9F9F9" stroke="#111111"/>
<mask id="path-6-inside-2_231_1119" fill="white">
<path d="M95.3829 277.524C91.723 331.7 104.482 397.814 141.518 476.18C141.518 476.18 170.841 561.75 236.022 594.976"/>
</mask>
<path d="M95.3829 277.524C91.723 331.7 104.482 397.814 141.518 476.18C141.518 476.18 170.841 561.75 236.022 594.976" fill="#F9F9F9"/>
<path d="M141.518 476.18L142.464 475.856L142.446 475.803L142.422 475.752L141.518 476.18ZM94.3852 277.457C90.711 331.844 103.525 398.129 140.614 476.607L142.422 475.752C105.439 397.499 92.735 331.556 96.3806 277.591L94.3852 277.457ZM141.518 476.18C140.572 476.504 140.572 476.505 140.573 476.505C140.573 476.506 140.573 476.507 140.574 476.509C140.575 476.512 140.576 476.516 140.578 476.522C140.582 476.533 140.588 476.549 140.595 476.57C140.61 476.613 140.632 476.676 140.661 476.759C140.72 476.925 140.807 477.17 140.924 477.49C141.156 478.131 141.506 479.073 141.973 480.282C142.907 482.7 144.313 486.187 146.203 490.473C149.984 499.044 155.706 510.819 163.472 523.637C178.992 549.251 202.737 579.132 235.568 595.867L236.476 594.085C204.126 577.595 180.619 548.078 165.183 522.6C157.471 509.872 151.788 498.177 148.033 489.666C146.157 485.411 144.762 481.953 143.838 479.561C143.376 478.365 143.032 477.436 142.803 476.807C142.689 476.493 142.604 476.254 142.547 476.094C142.519 476.014 142.498 475.953 142.484 475.914C142.477 475.894 142.472 475.879 142.469 475.869C142.467 475.864 142.466 475.861 142.465 475.858C142.465 475.857 142.465 475.857 142.464 475.856C142.464 475.856 142.464 475.856 141.518 476.18Z" fill="#111111" mask="url(#path-6-inside-2_231_1119)"/>
<mask id="path-8-inside-3_231_1119" fill="white">
<path d="M95.3829 277.524C91.723 331.7 104.482 397.814 141.518 476.18C141.518 476.18 170.841 561.75 236.022 594.976"/>
</mask>
<path d="M95.3829 277.524C91.723 331.7 104.482 397.814 141.518 476.18C141.518 476.18 170.841 561.75 236.022 594.976" fill="#F9F9F9"/>
<path d="M141.518 476.18L142.464 475.856L142.446 475.803L142.422 475.752L141.518 476.18ZM94.3852 277.457C90.711 331.844 103.525 398.129 140.614 476.607L142.422 475.752C105.439 397.499 92.735 331.556 96.3806 277.591L94.3852 277.457ZM141.518 476.18C140.572 476.504 140.572 476.505 140.573 476.505C140.573 476.506 140.573 476.507 140.574 476.509C140.575 476.512 140.576 476.516 140.578 476.522C140.582 476.533 140.588 476.549 140.595 476.57C140.61 476.613 140.632 476.676 140.661 476.759C140.72 476.925 140.807 477.17 140.924 477.49C141.156 478.131 141.506 479.073 141.973 480.282C142.907 482.7 144.313 486.187 146.203 490.473C149.984 499.044 155.706 510.819 163.472 523.637C178.992 549.251 202.737 579.132 235.568 595.867L236.476 594.085C204.126 577.595 180.619 548.078 165.183 522.6C157.471 509.872 151.788 498.177 148.033 489.666C146.157 485.411 144.762 481.953 143.838 479.561C143.376 478.365 143.032 477.436 142.803 476.807C142.689 476.493 142.604 476.254 142.547 476.094C142.519 476.014 142.498 475.953 142.484 475.914C142.477 475.894 142.472 475.879 142.469 475.869C142.467 475.864 142.466 475.861 142.465 475.858C142.465 475.857 142.465 475.857 142.464 475.856C142.464 475.856 142.464 475.856 141.518 476.18Z" fill="#111111" mask="url(#path-8-inside-3_231_1119)"/>
<path d="M483.039 278.061C486.575 332.038 473.807 397.899 436.913 475.966L436.901 475.991L436.892 476.018L437.365 476.18C436.892 476.018 436.892 476.018 436.892 476.018L436.891 476.021L436.887 476.032L436.871 476.078C436.857 476.118 436.836 476.179 436.807 476.26C436.75 476.421 436.664 476.662 436.55 476.978C436.32 477.61 435.975 478.542 435.511 479.741C434.585 482.14 433.188 485.605 431.308 489.868C427.547 498.394 421.855 510.109 414.13 522.859C398.732 548.275 375.287 577.755 343.007 594.343C317.274 561.098 301.953 519.388 301.953 474.093C301.953 370.725 381.708 285.99 483.039 278.061Z" fill="#F9F9F9" stroke="#111111"/>
<mask id="path-11-inside-4_231_1119" fill="white">
<path d="M95.3829 277.524C197.211 285.23 277.434 370.29 277.434 474.093C277.434 519.652 261.973 561.594 236.022 594.976"/>
</mask>
<path d="M95.3829 277.524C197.211 285.23 277.434 370.29 277.434 474.093C277.434 519.652 261.973 561.594 236.022 594.976" fill="#F9F9F9"/>
<path d="M95.3075 278.521C196.618 286.188 276.434 370.817 276.434 474.093H278.434C278.434 369.763 197.804 284.272 95.4584 276.527L95.3075 278.521ZM276.434 474.093C276.434 519.422 261.052 561.149 235.232 594.363L236.811 595.59C262.894 562.038 278.434 519.882 278.434 474.093H276.434Z" fill="#111111" mask="url(#path-11-inside-4_231_1119)"/>
<mask id="path-13-inside-5_231_1119" fill="white">
<path d="M95.3829 277.524C197.211 285.23 277.434 370.29 277.434 474.093C277.434 519.652 261.973 561.594 236.022 594.976"/>
</mask>
<path d="M95.3829 277.524C197.211 285.23 277.434 370.29 277.434 474.093C277.434 519.652 261.973 561.594 236.022 594.976" fill="#F9F9F9"/>
<path d="M95.3075 278.521C196.618 286.188 276.434 370.817 276.434 474.093H278.434C278.434 369.763 197.804 284.272 95.4584 276.527L95.3075 278.521ZM276.434 474.093C276.434 519.422 261.052 561.149 235.232 594.363L236.811 595.59C262.894 562.038 278.434 519.882 278.434 474.093H276.434Z" fill="#111111" mask="url(#path-13-inside-5_231_1119)"/>
<path d="M230.502 328.127C230.502 352.272 210.928 371.845 186.782 371.845C162.636 371.845 143.062 352.272 143.062 328.127C143.062 303.98 162.636 284.407 186.782 284.407C210.928 284.407 230.502 303.98 230.502 328.127Z" fill="#00B8F2"/>
<path d="M439.65 328.127C439.65 352.272 420.078 371.845 395.931 371.845C371.786 371.845 352.212 352.272 352.212 328.127C352.212 303.98 371.786 284.407 395.931 284.407C420.078 284.407 439.65 303.98 439.65 328.127Z" fill="#00B8F2"/>
<path d="M483.334 277.633C381.483 285.598 301.315 370.768 301.315 474.663C301.315 520.12 316.669 561.988 342.462 595.377C326.96 603.187 309.444 608.032 289.804 608.032C270.168 608.032 252.653 603.187 237.15 595.377C262.944 561.988 278.296 520.12 278.296 474.663C278.296 370.768 198.13 285.598 96.2777 277.633C104.988 152.197 202.108 91.191 289.804 91.191C377.505 91.191 474.621 152.197 483.334 277.633Z" fill="#F9F9F9" stroke="#111111"/>
<path d="M272.104 508.74C261.977 502 249.025 491.991 237.233 478.682C237.697 478.831 238.252 479.004 238.895 479.194C241.186 479.871 244.611 480.772 249.157 481.671C258.25 483.471 271.83 485.268 289.805 485.268C307.782 485.268 321.362 483.471 330.456 481.671C335.002 480.772 338.427 479.871 340.718 479.194C341.362 479.004 341.916 478.832 342.381 478.682C330.587 491.991 317.635 502 307.507 508.74C302.266 512.228 297.783 514.838 294.613 516.576C293.028 517.445 291.771 518.096 290.911 518.528C290.481 518.745 290.151 518.907 289.928 519.015C289.883 519.037 289.841 519.057 289.805 519.074C289.768 519.057 289.727 519.037 289.681 519.015C289.459 518.907 289.128 518.745 288.698 518.529C287.839 518.096 286.582 517.445 284.997 516.576C281.827 514.838 277.345 512.228 272.104 508.74Z" fill="#111111" stroke="#111111"/>
<path d="M197.825 543.986C231.036 543.986 262.329 535.78 289.805 521.306C317.281 535.78 348.574 543.986 381.785 543.986C388.405 543.986 394.948 543.653 401.402 543.018C377.299 575.678 340.609 608.015 289.805 608.015C239.003 608.015 202.312 575.677 178.212 543.019C184.663 543.653 191.205 543.986 197.825 543.986Z" fill="#F9F9F9" stroke="#111111"/>
<path d="M251.465 536.088C258.487 550.155 273.015 559.819 289.805 559.819C306.598 559.819 321.121 550.155 328.148 536.088C314.734 532.301 301.898 527.132 289.805 520.741C277.715 527.132 264.88 532.301 251.465 536.088Z" fill="#E52828"/>
<path fill-rule="evenodd" clip-rule="evenodd" d="M201.208 335.104C201.208 335.519 201.043 335.916 200.75 336.209C200.457 336.502 200.06 336.667 199.646 336.667H187.666V348.646C187.666 349.06 187.502 349.458 187.209 349.751C186.916 350.044 186.518 350.208 186.104 350.208C185.689 350.208 185.292 350.044 184.999 349.751C184.706 349.458 184.541 349.06 184.541 348.646V336.667H172.562C172.148 336.667 171.75 336.502 171.457 336.209C171.164 335.916 171 335.519 171 335.104C171 334.69 171.164 334.292 171.457 333.999C171.75 333.706 172.148 333.542 172.562 333.542H184.541V321.563C184.541 321.148 184.706 320.751 184.999 320.458C185.292 320.165 185.689 320 186.104 320C186.518 320 186.916 320.165 187.209 320.458C187.502 320.751 187.666 321.148 187.666 321.563V333.542H199.646C200.06 333.542 200.457 333.706 200.75 333.999C201.043 334.292 201.208 334.69 201.208 335.104Z" fill="#111111"/>
<path fill-rule="evenodd" clip-rule="evenodd" d="M411.208 335.104C411.208 335.519 411.043 335.916 410.75 336.209C410.457 336.502 410.06 336.667 409.646 336.667H397.666V348.646C397.666 349.06 397.502 349.458 397.209 349.751C396.916 350.044 396.518 350.208 396.104 350.208C395.689 350.208 395.292 350.044 394.999 349.751C394.706 349.458 394.541 349.06 394.541 348.646V336.667H382.562C382.148 336.667 381.75 336.502 381.457 336.209C381.164 335.916 381 335.519 381 335.104C381 334.69 381.164 334.292 381.457 333.999C381.75 333.706 382.148 333.542 382.562 333.542H394.541V321.563C394.541 321.148 394.706 320.751 394.999 320.458C395.292 320.165 395.689 320 396.104 320C396.518 320 396.916 320.165 397.209 320.458C397.502 320.751 397.666 321.148 397.666 321.563V333.542H409.646C410.06 333.542 410.457 333.706 410.75 333.999C411.043 334.292 411.208 334.69 411.208 335.104Z" fill="#111111"/>
</g>
<defs>
<clipPath id="clip0_231_1119">
<rect width="581.41" height="608.942" fill="white"/>
</clipPath>
</defs>
</svg>
