<?xml version="1.0" encoding="utf-8"?>

<svg version="1.1" id="Layer_1" xmlns="http://www.w3.org/2000/svg" xmlns:xlink="http://www.w3.org/1999/xlink" x="0px" y="0px"
	 width="660px" height="691px" viewBox="0 0 660 691" enable-background="new 0 0 660 691" xml:space="preserve">
<path fill="none" stroke="#211AE4" stroke-width="2" stroke-miterlimit="10" d="M223.315,616.749
	c37.688,0,73.199-9.314,104.375-25.744c31.175,16.43,66.687,25.744,104.376,25.744c7.561,0,15.033-0.383,22.402-1.111
	c-27.354,37.107-69.035,73.904-126.779,73.904c-57.742,0-99.424-36.797-126.775-73.904
	C208.282,616.366,215.752,616.749,223.315,616.749z"/>
<g>
	<path fill="none" stroke="#211AE4" stroke-width="2" stroke-miterlimit="10" d="M454.756,615.116
		c-17.467,23.818-40.84,47.561-70.559,61.622"/>
	<path fill="none" stroke="#211AE4" stroke-width="2" stroke-miterlimit="10" d="M454.756,615.116c0.029-0.04,0.061-0.08,0.09-0.121
		c0.102-0.14,0.199-0.279,0.301-0.419"/>
	<path fill="none" stroke="#211AE4" stroke-width="2" stroke-miterlimit="10" d="M107.85,315.119
		c0.013-0.196,0.026-0.393,0.04-0.589"/>
	<path fill="none" stroke="#211AE4" stroke-width="2" stroke-miterlimit="10" d="M366.943,683.521
		c0.947-0.299,1.889-0.609,2.824-0.928"/>
	<path fill="none" stroke="#211AE4" stroke-width="2" stroke-miterlimit="10" d="M370.805,682.233
		c4.527-1.582,8.924-3.39,13.188-5.398"/>
	<path fill="none" stroke="#211AE4" stroke-width="2" stroke-miterlimit="10" d="M107.821,315.528
		c0.005-0.072,0.011-0.145,0.016-0.216"/>
	<path fill="none" stroke="#211AE4" stroke-width="2" stroke-miterlimit="10" d="M348.117,687.958
		c0.621-0.098,1.234-0.211,1.852-0.316"/>
	<path fill="none" stroke="#211AE4" stroke-width="2" stroke-miterlimit="10" d="M354.713,686.734
		c-0.713,0.15-1.428,0.296-2.146,0.435"/>
	<path fill="none" stroke="#211AE4" stroke-width="2" stroke-miterlimit="10" d="M107.771,316.286
		c0.016-0.254,0.034-0.506,0.051-0.758"/>
	<path fill="none" stroke="#211AE4" stroke-width="2" stroke-miterlimit="10" d="M308.191,103.816
		c-0.749,0.067-1.498,0.145-2.247,0.219"/>
	<path fill="none" stroke="#211AE4" stroke-width="2" stroke-miterlimit="10" d="M360.754,685.299
		c-0.525,0.138-1.047,0.284-1.576,0.415"/>
	<path fill="none" stroke="#211AE4" stroke-width="2" stroke-miterlimit="10" d="M107.85,315.119
		c-0.005,0.064-0.009,0.129-0.013,0.193"/>
	<path fill="none" stroke="#211AE4" stroke-width="2" stroke-miterlimit="10" d="M198.46,144.179
		c1.103-0.787,2.215-1.556,3.329-2.319"/>
	<path fill="none" stroke="#211AE4" stroke-width="2" stroke-miterlimit="10" d="M315.224,103.306
		c-0.476,0.027-0.95,0.047-1.426,0.077"/>
	<path fill="none" stroke="#211AE4" stroke-width="2" stroke-miterlimit="10" d="M356.908,686.245
		c0.758-0.174,1.518-0.344,2.27-0.531"/>
	<path fill="none" stroke="#211AE4" stroke-width="2" stroke-miterlimit="10" d="M360.754,685.299
		c1.66-0.435,3.303-0.899,4.93-1.395"/>
	<path fill="none" stroke="#211AE4" stroke-width="2" stroke-miterlimit="10" d="M321.646,103.031
		c-0.57,0.016-1.141,0.036-1.712,0.056"/>
	<path fill="none" stroke="#211AE4" stroke-width="2" stroke-miterlimit="10" d="M107.891,314.513c0,0.006-0.001,0.012-0.001,0.018"
		/>
	<path fill="none" stroke="#211AE4" stroke-width="2" stroke-miterlimit="10" d="M354.713,686.734
		c0.736-0.155,1.467-0.321,2.195-0.489"/>
	<path fill="none" stroke="#211AE4" stroke-width="2" stroke-miterlimit="10" d="M342.469,688.714
		c0.422-0.048,0.85-0.087,1.271-0.139"/>
	<path fill="none" stroke="#211AE4" stroke-width="2" stroke-miterlimit="10" d="M321.188,689.395
		c0.504,0.023,1.006,0.052,1.512,0.069"/>
	<path fill="none" stroke="#211AE4" stroke-width="2" stroke-miterlimit="10" d="M316.173,689.063c0.548,0.047,1.1,0.088,1.65,0.128
		"/>
	<path fill="none" stroke="#211AE4" stroke-width="2" stroke-miterlimit="10" d="M311.418,688.575
		c-1.471-0.181-2.929-0.389-4.376-0.617"/>
	<path fill="none" stroke="#211AE4" stroke-width="2" stroke-miterlimit="10" d="M305.186,687.641
		c-0.867-0.149-1.731-0.305-2.59-0.472"/>
	<path fill="none" stroke="#211AE4" stroke-width="2" stroke-miterlimit="10" d="M311.418,688.575
		c0.421,0.052,0.847,0.09,1.269,0.138"/>
	<path fill="none" stroke="#211AE4" stroke-width="2" stroke-miterlimit="10" d="M305.186,687.641
		c0.618,0.106,1.233,0.22,1.856,0.317"/>
	<path fill="none" stroke="#211AE4" stroke-width="2" stroke-miterlimit="10" d="M295.977,685.714
		c0.756,0.188,1.521,0.358,2.282,0.533"/>
	<path fill="none" stroke="#211AE4" stroke-width="2" stroke-miterlimit="10" d="M300.44,686.733
		c0.716,0.15,1.434,0.297,2.155,0.436"/>
	<path fill="none" stroke="#211AE4" stroke-width="2" stroke-miterlimit="10" d="M316.173,689.063c-1.17-0.1-2.331-0.22-3.486-0.351
		"/>
	<path fill="none" stroke="#211AE4" stroke-width="2" stroke-miterlimit="10" d="M266.478,674.521c0.04,0.021,0.08,0.04,0.119,0.062
		"/>
	<path fill="none" stroke="#211AE4" stroke-width="2" stroke-miterlimit="10" d="M342.469,688.714
		c-1.154,0.13-2.314,0.25-3.482,0.35"/>
	<path fill="none" stroke="#211AE4" stroke-width="2" stroke-miterlimit="10" d="M337.332,689.192
		c-1.113,0.081-2.234,0.148-3.359,0.201"/>
	<path fill="none" stroke="#211AE4" stroke-width="2" stroke-miterlimit="10" d="M352.566,687.169
		c-0.861,0.167-1.729,0.322-2.598,0.473"/>
	<path fill="none" stroke="#211AE4" stroke-width="2" stroke-miterlimit="10" d="M348.117,687.958
		c-1.447,0.229-2.906,0.437-4.377,0.617"/>
	<path fill="none" stroke="#211AE4" stroke-width="2" stroke-miterlimit="10" d="M337.332,689.192
		c0.553-0.041,1.105-0.082,1.654-0.129"/>
	<path fill="none" stroke="#211AE4" stroke-width="2" stroke-miterlimit="10" d="M332.455,689.464
		c0.508-0.018,1.012-0.046,1.518-0.07"/>
	<path fill="none" stroke="#211AE4" stroke-width="2" stroke-miterlimit="10" d="M321.188,689.395
		c-1.128-0.054-2.25-0.121-3.365-0.203"/>
	<path fill="none" stroke="#211AE4" stroke-width="2" stroke-miterlimit="10" d="M332.455,689.464
		c-1.613,0.059-3.234,0.098-4.873,0.098"/>
	<path fill="none" stroke="#211AE4" stroke-width="2" stroke-miterlimit="10" d="M327.579,689.562c-1.64,0-3.264-0.039-4.878-0.098"
		/>
	<polyline fill="none" stroke="#211AE4" stroke-width="2" stroke-miterlimit="10" points="327.583,689.562 327.579,689.562 
		327.579,689.562 	"/>
	<path fill="none" stroke="#211AE4" stroke-width="2" stroke-miterlimit="10" d="M366.943,683.521
		c-0.418,0.132-0.84,0.256-1.26,0.384"/>
	<path fill="none" stroke="#211AE4" stroke-width="2" stroke-miterlimit="10" d="M343.465,103.545
		c0.969,0.071,1.936,0.141,2.904,0.224"/>
	<path fill="none" stroke="#211AE4" stroke-width="2" stroke-miterlimit="10" d="M335.387,103.094
		c1.307,0.047,2.617,0.111,3.926,0.182"/>
	<path fill="none" stroke="#211AE4" stroke-width="2" stroke-miterlimit="10" d="M206.61,138.656
		c-1.618,1.046-3.227,2.11-4.821,3.203"/>
	<path fill="none" stroke="#211AE4" stroke-width="2" stroke-miterlimit="10" d="M300.44,686.733
		c-0.73-0.154-1.456-0.319-2.182-0.486"/>
	<path fill="none" stroke="#211AE4" stroke-width="2" stroke-miterlimit="10" d="M327.581,102.938c1.947,0,3.9,0.038,5.853,0.091"/>
	<path fill="none" stroke="#211AE4" stroke-width="2" stroke-miterlimit="10" d="M397.75,114.373
		c-15.32-5.07-31.004-8.443-46.645-10.133"/>
	<path fill="none" stroke="#211AE4" stroke-width="2" stroke-miterlimit="10" d="M370.805,682.233
		c-0.344,0.12-0.689,0.241-1.037,0.359"/>
	<path fill="none" stroke="#211AE4" stroke-width="2" stroke-miterlimit="10" d="M350.98,104.226
		c-1.539-0.166-3.074-0.324-4.611-0.457"/>
	<path fill="none" stroke="#211AE4" stroke-width="2" stroke-miterlimit="10" d="M109.842,377.892
		c-2.69-21.865-3.291-42.397-2.071-61.605"/>
	<path fill="none" stroke="#211AE4" stroke-width="2" stroke-miterlimit="10" d="M350.98,104.226
		c0.041,0.004,0.084,0.009,0.125,0.014"/>
	<path fill="none" stroke="#211AE4" stroke-width="2" stroke-miterlimit="10" d="M295.977,685.714c-0.504-0.125-1-0.266-1.501-0.396
		"/>
	<path fill="none" stroke="#211AE4" stroke-width="2" stroke-miterlimit="10" d="M211.892,135.347
		c0.326-0.197,0.652-0.395,0.979-0.59"/>
	<path fill="none" stroke="#211AE4" stroke-width="2" stroke-miterlimit="10" d="M284.339,107.263
		c0.381-0.076,0.762-0.157,1.143-0.23"/>
	<path fill="none" stroke="#211AE4" stroke-width="2" stroke-miterlimit="10" d="M107.958,313.532
		c2.923-40.047,13.797-74.271,30.13-102.757c6.824-11.902,14.619-22.786,23.17-32.699"/>
	<path fill="none" stroke="#211AE4" stroke-width="2" stroke-miterlimit="10" d="M206.61,138.656
		c0.531-0.344,1.059-0.694,1.592-1.032"/>
	<path fill="none" stroke="#211AE4" stroke-width="2" stroke-miterlimit="10" d="M289.179,106.351
		c0.74-0.131,1.481-0.255,2.223-0.378"/>
	<path fill="none" stroke="#211AE4" stroke-width="2" stroke-miterlimit="10" d="M308.191,103.816
		c1.87-0.167,3.739-0.314,5.606-0.433"/>
	<path fill="none" stroke="#211AE4" stroke-width="2" stroke-miterlimit="10" d="M302.346,104.424c1.2-0.139,2.399-0.27,3.599-0.389
		"/>
	<path fill="none" stroke="#211AE4" stroke-width="2" stroke-miterlimit="10" d="M295.548,105.317
		c1.396-0.206,2.795-0.404,4.192-0.583"/>
	<path fill="none" stroke="#211AE4" stroke-width="2" stroke-miterlimit="10" d="M198.46,144.179
		c-0.545,0.389-1.091,0.777-1.633,1.172"/>
	<path fill="none" stroke="#211AE4" stroke-width="2" stroke-miterlimit="10" d="M315.224,103.306
		c1.572-0.09,3.143-0.164,4.711-0.219"/>
	<path fill="none" stroke="#211AE4" stroke-width="2" stroke-miterlimit="10" d="M212.87,134.757
		c14.965-8.972,30.801-16.05,47.035-21.214"/>
	<path fill="none" stroke="#211AE4" stroke-width="2" stroke-miterlimit="10" d="M284.339,107.263
		c-8.2,1.632-16.365,3.713-24.434,6.28"/>
	<path fill="none" stroke="#211AE4" stroke-width="2" stroke-miterlimit="10" d="M271.155,676.83
		c-0.062-0.029-0.123-0.059-0.186-0.088"/>
	<path fill="none" stroke="#211AE4" stroke-width="2" stroke-miterlimit="10" d="M285.381,682.589
		c-0.339-0.115-0.678-0.233-1.016-0.352"/>
	<path fill="none" stroke="#211AE4" stroke-width="2" stroke-miterlimit="10" d="M295.548,105.317
		c-1.383,0.203-2.765,0.425-4.146,0.655"/>
	<path fill="none" stroke="#211AE4" stroke-width="2" stroke-miterlimit="10" d="M302.346,104.424
		c-0.868,0.101-1.737,0.2-2.605,0.311"/>
	<path fill="none" stroke="#211AE4" stroke-width="2" stroke-miterlimit="10" d="M493.9,178.076
		c-26.449-30.663-60.283-51.832-96.15-63.703"/>
	<path fill="none" stroke="#211AE4" stroke-width="2" stroke-miterlimit="10" d="M384.197,676.738
		c-0.068,0.032-0.137,0.064-0.205,0.097"/>
	<path fill="none" stroke="#211AE4" stroke-width="2" stroke-miterlimit="10" d="M211.892,135.347
		c-1.234,0.749-2.467,1.502-3.689,2.277"/>
	<path fill="none" stroke="#211AE4" stroke-width="2" stroke-miterlimit="10" d="M545.01,380.319
		c-6.107,47.151-21.887,100.444-50.027,159.988l-0.012,0.023l-0.008,0.027l0.473,0.162c-0.473-0.162-0.475-0.162-0.475-0.16
		l-0.002,0.004l-0.006,0.02l-0.027,0.08c-0.025,0.07-0.062,0.178-0.113,0.318c-0.1,0.281-0.25,0.699-0.451,1.244
		c-0.4,1.092-1.008,2.695-1.818,4.734c-1.625,4.082-4.078,9.912-7.385,16.912c-6.564,13.896-16.5,32.383-30.012,50.903"/>
	<path fill="none" stroke="#211AE4" stroke-width="2" stroke-miterlimit="10" d="M161.258,178.076
		c10.757-12.471,22.728-23.382,35.569-32.726"/>
	<path fill="none" stroke="#211AE4" stroke-width="2" stroke-miterlimit="10" d="M289.452,683.897
		c-0.41-0.125-0.822-0.246-1.23-0.375"/>
	<path fill="none" stroke="#211AE4" stroke-width="2" stroke-miterlimit="10" d="M335.387,103.094
		c-0.65-0.024-1.303-0.047-1.953-0.065"/>
	<path fill="none" stroke="#211AE4" stroke-width="2" stroke-miterlimit="10" d="M343.465,103.545
		c-1.385-0.101-2.77-0.194-4.152-0.269"/>
	<polyline fill="none" stroke="#211AE4" stroke-width="2" stroke-miterlimit="10" points="327.581,102.938 327.579,102.938 
		327.579,102.938 	"/>
	<path fill="none" stroke="#211AE4" stroke-width="2" stroke-miterlimit="10" d="M545.01,380.319
		c2.957-22.826,3.645-44.211,2.369-64.166"/>
	<path fill="none" stroke="#211AE4" stroke-width="2" stroke-miterlimit="10" d="M321.646,103.031
		c1.98-0.055,3.959-0.092,5.932-0.092"/>
	<path fill="none" stroke="#211AE4" stroke-width="2" stroke-miterlimit="10" d="M493.9,178.076
		c8.553,9.913,16.346,20.797,23.172,32.699c16.688,29.104,27.676,64.201,30.307,105.378"/>
	<path fill="none" stroke="#211AE4" stroke-width="2" stroke-miterlimit="10" d="M289.179,106.351
		c-1.233,0.218-2.465,0.443-3.697,0.682"/>
	<path fill="none" stroke="#211AE4" stroke-width="2" stroke-miterlimit="10" d="M289.452,683.897
		c1.657,0.505,3.332,0.979,5.023,1.42"/>
	<path fill="none" stroke="#211AE4" stroke-width="2" stroke-miterlimit="10" d="M109.842,377.892
		c5.852,47.565,21.591,101.438,50.01,161.727"/>
	<path fill="none" stroke="#211AE4" stroke-width="2" stroke-miterlimit="10" d="M266.087,674.32
		c0.13,0.067,0.261,0.134,0.391,0.201"/>
	<path fill="none" stroke="#211AE4" stroke-width="2" stroke-miterlimit="10" d="M271.155,676.83
		c4.272,2.013,8.675,3.823,13.21,5.407"/>
	<path fill="none" stroke="#211AE4" stroke-width="2" stroke-miterlimit="10" d="M266.614,674.591
		c-0.006-0.002-0.012-0.006-0.018-0.008"/>
	<line fill="none" stroke="#211AE4" stroke-width="2" stroke-miterlimit="10" x1="159.88" y1="539.679" x2="159.88" y2="539.679"/>
	<path fill="none" stroke="#211AE4" stroke-width="2" stroke-miterlimit="10" d="M267.519,675.056
		c-0.303-0.153-0.603-0.309-0.904-0.465"/>
	<path fill="none" stroke="#211AE4" stroke-width="2" stroke-miterlimit="10" d="M107.958,313.532
		c-0.024,0.326-0.045,0.654-0.067,0.98"/>
	<path fill="none" stroke="#211AE4" stroke-width="2" stroke-miterlimit="10" d="M267.519,675.056
		c1.141,0.577,2.291,1.139,3.451,1.687"/>
	<path fill="none" stroke="#211AE4" stroke-width="2" stroke-miterlimit="10" d="M285.381,682.589
		c0.942,0.32,1.888,0.634,2.841,0.934"/>
	<path fill="none" stroke="#211AE4" stroke-width="2" stroke-miterlimit="10" d="M159.852,539.618c0.01,0.021,0.02,0.04,0.028,0.061
		"/>
	<path fill="none" stroke="#211AE4" stroke-width="2" stroke-miterlimit="10" d="M159.88,539.679c0.1,0.211,0.194,0.419,0.294,0.629
		l0.012,0.023l0.009,0.027l-0.473,0.162c0.473-0.162,0.473-0.162,0.473-0.16l0.002,0.004l0.008,0.02l0.027,0.08
		c0.024,0.07,0.062,0.178,0.112,0.318c0.099,0.281,0.25,0.699,0.451,1.244c0.401,1.092,1.008,2.695,1.819,4.734
		c1.625,4.082,4.078,9.912,7.385,16.912c6.565,13.896,16.5,32.383,30.012,50.903"/>
	<path fill="none" stroke="#211AE4" stroke-width="2" stroke-miterlimit="10" d="M200.512,615.264
		c-0.065-0.09-0.134-0.179-0.199-0.269c-0.103-0.14-0.2-0.279-0.302-0.419"/>
	<path fill="none" stroke="#211AE4" stroke-width="2" stroke-miterlimit="10" d="M266.087,674.32
		c-27.353-14.237-49.088-36.605-65.575-59.057"/>
	<path fill="none" stroke="#211AE4" stroke-width="2" stroke-miterlimit="10" d="M621.703,274.993
		c0.191-0.548,0.387-1.094,0.572-1.645c0.053-0.152,0.096-0.299,0.145-0.452c0.703-2.083,1.363-4.187,2-6.298
		c0.182-0.598,0.357-1.192,0.533-1.789c0.6-2.044,1.172-4.098,1.715-6.162c0.064-0.245,0.135-0.483,0.197-0.729
		c0.588-2.281,1.137-4.58,1.654-6.891c0.133-0.595,0.264-1.188,0.391-1.784c0.412-1.916,0.803-3.845,1.17-5.78
		c0.088-0.479,0.186-0.959,0.275-1.438c0.42-2.333,0.807-4.675,1.156-7.027c0.082-0.537,0.152-1.078,0.23-1.621
		c0.271-1.931,0.521-3.875,0.744-5.826c0.068-0.601,0.139-1.195,0.205-1.799c0.254-2.385,0.479-4.78,0.656-7.191
		c0.029-0.389,0.049-0.779,0.072-1.168c0.145-2.08,0.258-4.164,0.344-6.26c0.027-0.659,0.055-1.313,0.078-1.976
		c0.078-2.454,0.131-4.92,0.131-7.393C633.979,112.862,582.121,36.078,507.004,0c-48.916,23.493-87.961,64.251-109.254,114.373"/>
	<path fill="none" stroke="#211AE4" stroke-width="2" stroke-miterlimit="10" d="M108.936,377.167
		c0.304,0.24,0.602,0.486,0.906,0.725"/>
	<path fill="none" stroke="#211AE4" stroke-width="2" stroke-miterlimit="10" d="M544.434,380.748
		c0.191-0.144,0.385-0.284,0.576-0.429"/>
	<path fill="none" stroke="#211AE4" stroke-width="2" stroke-miterlimit="10" d="M397.75,114.373
		c-0.021,0.053-0.045,0.104-0.066,0.157"/>
	<path fill="none" stroke="#211AE4" stroke-width="2" stroke-miterlimit="10" d="M280.887,423.011
		c-0.118,0.018-0.235,0.037-0.354,0.055"/>
	<path fill="none" stroke="#211AE4" stroke-width="2" stroke-miterlimit="10" d="M373.676,422.481
		c-0.15-0.024-0.301-0.05-0.453-0.074"/>
	<path fill="none" stroke="#211AE4" stroke-width="2" stroke-miterlimit="10" d="M259.92,113.576
		c-0.005-0.011-0.01-0.022-0.015-0.033"/>
	<path fill="none" stroke="#211AE4" stroke-width="2" stroke-miterlimit="10" d="M35.31,272.037
		c-0.595-1.804-1.175-3.616-1.727-5.438c-0.178-0.598-0.357-1.193-0.533-1.789c-0.596-2.044-1.173-4.098-1.714-6.162
		c-0.065-0.244-0.133-0.482-0.198-0.729c-0.588-2.281-1.133-4.58-1.656-6.891c-0.132-0.595-0.257-1.188-0.385-1.784
		c-0.416-1.916-0.807-3.845-1.173-5.78c-0.089-0.479-0.187-0.959-0.272-1.438c-0.424-2.333-0.811-4.675-1.161-7.027
		c-0.081-0.537-0.151-1.078-0.226-1.621c-0.272-1.931-0.521-3.875-0.747-5.826c-0.066-0.601-0.141-1.195-0.207-1.799
		c-0.253-2.385-0.475-4.78-0.654-7.191c-0.031-0.389-0.047-0.779-0.074-1.168c-0.145-2.08-0.257-4.164-0.344-6.26
		c-0.026-0.658-0.054-1.313-0.072-1.976c-0.082-2.454-0.137-4.92-0.137-7.393C24.029,112.862,75.892,36.078,151.004,0
		c48.647,23.363,87.531,63.802,108.901,113.543"/>
	<path fill="none" stroke="#211AE4" stroke-width="2" stroke-miterlimit="10" d="M373.109,422.387
		c0.039,0.006,0.076,0.014,0.113,0.021"/>
	<path fill="none" stroke="#211AE4" stroke-width="2" stroke-miterlimit="10" d="M108.936,377.167
		c-0.376-0.299-0.749-0.599-1.123-0.898"/>
	<path fill="none" stroke="#211AE4" stroke-width="2" stroke-miterlimit="10" d="M110.059,378.065
		c-0.073-0.058-0.144-0.117-0.217-0.174"/>
	<path fill="none" stroke="#211AE4" stroke-width="2" stroke-miterlimit="10" d="M5.92,341.314c0.318-1.353,0.645-2.7,0.987-4.043"
		/>
	<path fill="none" stroke="#211AE4" stroke-width="2" stroke-miterlimit="10" d="M199.422,614.509
		c0.196,0.021,0.392,0.047,0.589,0.067"/>
	<path fill="none" stroke="#211AE4" stroke-width="2" stroke-miterlimit="10" d="M349.344,599.942
		c0.082,0.033,0.166,0.067,0.248,0.1"/>
	<path fill="none" stroke="#211AE4" stroke-width="2" stroke-miterlimit="10" d="M7.194,336.162
		c-0.097,0.37-0.192,0.739-0.287,1.109"/>
	<path fill="none" stroke="#211AE4" stroke-width="2" stroke-miterlimit="10" d="M493.9,178.076
		c53.652,15.468,98.994,50.521,127.803,96.917"/>
	<path fill="none" stroke="#211AE4" stroke-width="2" stroke-miterlimit="10" d="M8.629,330.912
		c-0.156,0.55-0.308,1.102-0.461,1.652"/>
	<path fill="none" stroke="#211AE4" stroke-width="2" stroke-miterlimit="10" d="M493.9,178.076
		c-0.373-0.108-0.746-0.221-1.121-0.326"/>
	<path fill="none" stroke="#211AE4" stroke-width="2" stroke-miterlimit="10" d="M621.703,274.993
		c21.199,34.144,33.455,74.422,33.455,117.568c0,63.805-26.775,121.352-69.695,162.03"/>
	<path fill="none" stroke="#211AE4" stroke-width="2" stroke-miterlimit="10" d="M161.034,178.143
		c0.075-0.021,0.148-0.045,0.224-0.066"/>
	<line fill="none" stroke="#211AE4" stroke-width="2" stroke-miterlimit="10" x1="8.629" y1="330.912" x2="8.633" y2="330.902"/>
	<path fill="none" stroke="#211AE4" stroke-width="2" stroke-miterlimit="10" d="M35.31,272.037
		c28.84-44.868,73.313-78.725,125.725-93.895"/>
	<path fill="none" stroke="#211AE4" stroke-width="2" stroke-miterlimit="10" d="M198.072,614.354
		c-89.938-10.08-163.705-73.596-188.826-158.068"/>
	<path fill="none" stroke="#211AE4" stroke-width="2" stroke-miterlimit="10" d="M454.176,614.672
		c0.324-0.032,0.648-0.062,0.971-0.096"/>
	<path fill="none" stroke="#211AE4" stroke-width="2" stroke-miterlimit="10" d="M35.31,272.037
		c-11.579,18.014-20.636,37.802-26.677,58.865"/>
	<path fill="none" stroke="#211AE4" stroke-width="2" stroke-miterlimit="10" d="M585.463,554.592
		c-34.738,32.923-80.049,54.794-130.316,59.984"/>
	<path fill="none" stroke="#211AE4" stroke-width="2" stroke-miterlimit="10" d="M200.765,614.652
		c-0.252-0.024-0.503-0.05-0.754-0.076"/>
	<path fill="none" stroke="#211AE4" stroke-width="2" stroke-miterlimit="10" d="M350.27,600.315
		c-0.227-0.09-0.451-0.183-0.678-0.273"/>
	<path fill="none" stroke="#211AE4" stroke-width="2" stroke-miterlimit="10" d="M5.92,341.314C2.055,357.771,0,374.926,0,392.562
		c0,22.145,3.24,43.53,9.246,63.725"/>
	<path fill="none" stroke="#211AE4" stroke-width="2" stroke-miterlimit="10" d="M198.072,614.354
		c0.45,0.051,0.898,0.106,1.35,0.154"/>
	<path fill="none" stroke="#211AE4" stroke-width="2" stroke-miterlimit="10" d="M7.194,336.162
		c0.313-1.204,0.641-2.401,0.974-3.598"/>
	<path fill="none" stroke="#211AE4" stroke-width="2" stroke-miterlimit="10" d="M56.207,317.368
		c-16.472,2.806-32.282,7.534-47.574,13.534"/>
	<path fill="none" stroke="#211AE4" stroke-width="2" stroke-miterlimit="10" d="M280.532,423.065
		c-26.904-44.565-68.841-79.088-118.711-96.357"/>
	<path fill="none" stroke="#211AE4" stroke-width="2" stroke-miterlimit="10" d="M198.59,615.065
		c-90.577-9.661-164.454-73.658-189.344-158.779"/>
	<path fill="none" stroke="#211AE4" stroke-width="2" stroke-miterlimit="10" d="M312.705,537.505
		c-0.058-10.733-0.875-21.295-2.401-31.633"/>
	<path fill="none" stroke="#211AE4" stroke-width="2" stroke-miterlimit="10" d="M199.935,615.212
		c-0.449-0.045-0.896-0.1-1.345-0.146"/>
	<path fill="none" stroke="#211AE4" stroke-width="2" stroke-miterlimit="10" d="M310.162,504.857
		c-0.024-0.155-0.05-0.311-0.074-0.466"/>
	<path fill="none" stroke="#211AE4" stroke-width="2" stroke-miterlimit="10" d="M5.92,341.314
		c-3.864,16.599-5.699,33.847-5.699,51.712c0,21.972,3.16,43.199,9.025,63.26"/>
	<path fill="none" stroke="#211AE4" stroke-width="2" stroke-miterlimit="10" d="M309.507,574.3
		c2.046-11.556,3.214-23.396,3.214-35.57c0-0.409-0.014-0.815-0.016-1.225"/>
	<path fill="none" stroke="#211AE4" stroke-width="2" stroke-miterlimit="10" d="M105.915,315.153
		c0.328,0.023,0.656,0.049,0.983,0.075"/>
	<path fill="none" stroke="#211AE4" stroke-width="2" stroke-miterlimit="10" d="M158.326,325.537
		c0.345,0.113,0.689,0.224,1.034,0.339"/>
	<path fill="none" stroke="#211AE4" stroke-width="2" stroke-miterlimit="10" d="M201.269,615.331
		c-0.252-0.024-0.505-0.043-0.757-0.067"/>
	<path fill="none" stroke="#211AE4" stroke-width="2" stroke-miterlimit="10" d="M310.162,504.857
		c0.051,0.337,0.092,0.677,0.142,1.015"/>
	<path fill="none" stroke="#211AE4" stroke-width="2" stroke-miterlimit="10" d="M199.935,615.212
		c0.191,0.02,0.386,0.033,0.577,0.052"/>
	<polyline fill="none" stroke="#211AE4" stroke-width="2" stroke-miterlimit="10" points="8.629,330.912 8.633,330.902 
		8.633,330.902 	"/>
	<path fill="none" stroke="#211AE4" stroke-width="2" stroke-miterlimit="10" d="M106.911,315.229
		c0.136,0.011,0.271,0.025,0.407,0.037"/>
	
		<line fill="none" stroke="#211AE4" stroke-width="2" stroke-miterlimit="10" x1="106.898" y1="315.229" x2="106.911" y2="315.229"/>
	<path fill="none" stroke="#211AE4" stroke-width="2" stroke-miterlimit="10" d="M8.168,332.564
		c-0.336,1.196-0.66,2.396-0.974,3.598"/>
	<path fill="none" stroke="#211AE4" stroke-width="2" stroke-miterlimit="10" d="M8.168,332.564c0.154-0.55,0.303-1.103,0.461-1.652
		"/>
	<path fill="none" stroke="#211AE4" stroke-width="2" stroke-miterlimit="10" d="M56.207,317.368
		c10.71-1.823,21.698-2.842,33.014-2.842c5.616,0,11.183,0.215,16.694,0.627"/>
	<path fill="none" stroke="#211AE4" stroke-width="2" stroke-miterlimit="10" d="M6.907,337.271c0.095-0.37,0.19-0.739,0.287-1.109"
		/>
	<path fill="none" stroke="#211AE4" stroke-width="2" stroke-miterlimit="10" d="M158.326,325.537
		c-16.088-5.271-32.97-8.758-50.418-10.218"/>
	<path fill="none" stroke="#211AE4" stroke-width="2" stroke-miterlimit="10" d="M107.837,315.312
		c-0.174-0.015-0.346-0.032-0.519-0.046"/>
	<path fill="none" stroke="#211AE4" stroke-width="2" stroke-miterlimit="10" d="M5.92,341.314c0.315-1.353,0.646-2.699,0.987-4.043
		"/>
	<path fill="none" stroke="#211AE4" stroke-width="2" stroke-miterlimit="10" d="M280.532,423.065
		c14.779,24.48,25.023,51.986,29.556,81.326"/>
	<path fill="none" stroke="#211AE4" stroke-width="2" stroke-miterlimit="10" d="M161.821,326.708
		c-0.818-0.283-1.64-0.559-2.461-0.832"/>
	<path fill="none" stroke="#211AE4" stroke-width="2" stroke-miterlimit="10" d="M107.908,315.319
		c-0.024-0.002-0.048-0.005-0.071-0.007"/>
	<path fill="none" stroke="#211AE4" stroke-width="2" stroke-miterlimit="10" d="M345.828,492.608
		c5.295-25.202,14.836-48.84,27.848-70.127"/>
	<path fill="none" stroke="#211AE4" stroke-width="2" stroke-miterlimit="10" d="M546.98,316.181
		c-73.432,5.619-136.918,46.774-173.305,106.301"/>
	<path fill="none" stroke="#211AE4" stroke-width="2" stroke-miterlimit="10" d="M601.076,318.532
		c15.729,2.58,30.941,6.768,45.232,12.37c5.734,19.763,8.412,40.492,8.412,62.124c0,63.529-26.602,120.889-69.258,161.565"/>
	<path fill="none" stroke="#211AE4" stroke-width="2" stroke-miterlimit="10" d="M601.076,318.532
		c-12.035-1.975-24.371-3.011-36.826-3.011c-5.676,0-11.301,0.216-16.871,0.632"/>
	<path fill="none" stroke="#211AE4" stroke-width="2" stroke-miterlimit="10" d="M345.828,492.608
		c-0.135,0.641-0.27,1.281-0.398,1.925"/>
	<path fill="none" stroke="#211AE4" stroke-width="2" stroke-miterlimit="10" d="M349.592,600.042
		c-5.553-19.484-8.547-40.046-8.547-61.312c0-15.053,1.5-29.754,4.342-43.971"/>
	<path fill="none" stroke="#211AE4" stroke-width="2" stroke-miterlimit="10" d="M453.775,615.22
		c0.326-0.032,0.652-0.069,0.98-0.104"/>
	<path fill="none" stroke="#211AE4" stroke-width="2" stroke-miterlimit="10" d="M345.387,494.759
		c0.014-0.075,0.027-0.15,0.043-0.226"/>
	<path fill="none" stroke="#211AE4" stroke-width="2" stroke-miterlimit="10" d="M454.756,615.116
		c50.436-5.273,95.912-27.346,130.707-60.524"/>
	<path fill="none" stroke="#211AE4" stroke-width="2" stroke-miterlimit="10" d="M547.379,316.153
		c-0.133,0.01-0.266,0.018-0.398,0.027"/>
	<path fill="none" stroke="#211AE4" stroke-width="2" stroke-miterlimit="10" d="M350.541,601.247
		c-0.227-0.088-0.457-0.17-0.684-0.26c-0.09-0.313-0.176-0.63-0.266-0.945"/>
	<path fill="none" stroke="#211AE4" stroke-width="2" stroke-miterlimit="10" d="M106.956,314.449
		c-0.001,0.018-0.002,0.036-0.003,0.054"/>
	
		<line fill="none" stroke="#211AE4" stroke-width="2" stroke-miterlimit="10" x1="106.956" y1="314.448" x2="106.956" y2="314.449"/>
	<path fill="none" stroke="#211AE4" stroke-width="2" stroke-miterlimit="10" d="M266.548,674.679
		c-27.837-14.189-49.908-36.793-66.613-59.467"/>
	<path fill="none" stroke="#211AE4" stroke-width="2" stroke-miterlimit="10" d="M106.898,315.446
		c0.005-0.071,0.008-0.145,0.013-0.217"/>
	<path fill="none" stroke="#211AE4" stroke-width="2" stroke-miterlimit="10" d="M106.953,314.503
		c-0.017,0.24-0.026,0.486-0.042,0.727"/>
	<path fill="none" stroke="#211AE4" stroke-width="2" stroke-miterlimit="10" d="M159.31,539.874c0,0,12.787,37.297,40.112,74.635"
		/>
	<path fill="none" stroke="#211AE4" stroke-width="2" stroke-miterlimit="10" d="M108.936,377.167
		c-2.683-21.902-3.271-42.473-2.037-61.721"/>
	<path fill="none" stroke="#211AE4" stroke-width="2" stroke-miterlimit="10" d="M159.31,539.874
		c-28.674-60.672-44.516-114.866-50.374-162.707"/>
	<path fill="none" stroke="#211AE4" stroke-width="2" stroke-miterlimit="10" d="M199.422,614.509
		c0.172,0.234,0.34,0.469,0.513,0.703"/>
	
		<line fill="none" stroke="#211AE4" stroke-width="2" stroke-miterlimit="10" x1="266.548" y1="674.679" x2="266.548" y2="674.679"/>
	<path fill="none" stroke="#211AE4" stroke-width="2" stroke-miterlimit="10" d="M110.059,378.065
		c-2.737-21.871-3.387-42.405-2.216-61.616"/>
	
		<line fill="none" stroke="#211AE4" stroke-width="2" stroke-miterlimit="10" x1="266.597" y1="674.583" x2="266.604" y2="674.567"/>
	
		<line fill="none" stroke="#211AE4" stroke-width="2" stroke-miterlimit="10" x1="266.597" y1="674.583" x2="266.548" y2="674.679"/>
	<path fill="none" stroke="#211AE4" stroke-width="2" stroke-miterlimit="10" d="M198.072,614.354
		c0.172,0.236,0.344,0.474,0.518,0.711"/>
	<path fill="none" stroke="#211AE4" stroke-width="2" stroke-miterlimit="10" d="M107.843,316.449
		c0.019-0.304,0.033-0.611,0.053-0.915"/>
	<path fill="none" stroke="#211AE4" stroke-width="2" stroke-miterlimit="10" d="M107.919,315.125
		c-0.004,0.064-0.007,0.13-0.011,0.194"/>
	<path fill="none" stroke="#211AE4" stroke-width="2" stroke-miterlimit="10" d="M107.896,315.534
		c0.005-0.071,0.008-0.144,0.013-0.215"/>
	
		<line fill="none" stroke="#211AE4" stroke-width="2" stroke-miterlimit="10" x1="107.302" y1="314.473" x2="106.989" y2="314.451"/>
	<path fill="none" stroke="#211AE4" stroke-width="2" stroke-miterlimit="10" d="M107.891,314.513l0.063,0.004
		c0,0.006-0.001,0.013-0.001,0.02"/>
	<path fill="none" stroke="#211AE4" stroke-width="2" stroke-miterlimit="10" d="M159.911,539.669
		c0.1-0.035,0.177-0.061,0.227-0.078"/>
	<path fill="none" stroke="#211AE4" stroke-width="2" stroke-miterlimit="10" d="M266.604,674.567l0.397-0.779
		c-0.248-0.126-0.49-0.26-0.736-0.388"/>
	
		<line fill="none" stroke="#211AE4" stroke-width="2" stroke-miterlimit="10" x1="160.232" y1="539.559" x2="160.244" y2="539.554"/>
	
		<line fill="none" stroke="#211AE4" stroke-width="2" stroke-miterlimit="10" x1="160.244" y1="539.554" x2="160.232" y2="539.559"/>
	
		<line fill="none" stroke="#211AE4" stroke-width="2" stroke-miterlimit="10" x1="160.138" y1="539.591" x2="160.232" y2="539.559"/>
	<line fill="none" stroke="#211AE4" stroke-width="2" stroke-miterlimit="10" x1="159.88" y1="539.679" x2="159.911" y2="539.669"/>
	<path fill="none" stroke="#211AE4" stroke-width="2" stroke-miterlimit="10" d="M160.232,539.559
		c-0.017,0.005-0.043,0.015-0.095,0.032"/>
	
		<line fill="none" stroke="#211AE4" stroke-width="2" stroke-miterlimit="10" x1="106.989" y1="314.451" x2="106.957" y2="314.449"/>
	
		<line fill="none" stroke="#211AE4" stroke-width="2" stroke-miterlimit="10" x1="106.956" y1="314.449" x2="106.956" y2="314.449"/>
	<path fill="none" stroke="#211AE4" stroke-width="2" stroke-miterlimit="10" d="M200.765,614.652
		c-5.477-7.431-10.379-14.873-14.717-22.034c-8.755-14.449-15.207-27.725-19.469-37.387c-2.131-4.83-3.713-8.756-4.762-11.473
		c-0.525-1.357-0.916-2.412-1.177-3.127c-0.129-0.357-0.226-0.629-0.291-0.811c-0.032-0.092-0.056-0.16-0.071-0.205
		c-0.008-0.023-0.014-0.041-0.018-0.051c-0.002-0.006-0.003-0.01-0.004-0.012s-0.001-0.002-0.001-0.004"/>
	
		<line fill="none" stroke="#211AE4" stroke-width="2" stroke-miterlimit="10" x1="160.214" y1="539.446" x2="159.852" y2="539.618"/>
	<polyline fill="none" stroke="#211AE4" stroke-width="2" stroke-miterlimit="10" points="160.256,539.55 160.237,539.497 
		160.214,539.446 	"/>
	<line fill="none" stroke="#211AE4" stroke-width="2" stroke-miterlimit="10" x1="160.244" y1="539.554" x2="160.256" y2="539.55"/>
	
		<line fill="none" stroke="#211AE4" stroke-width="2" stroke-miterlimit="10" x1="160.138" y1="539.591" x2="159.911" y2="539.669"/>
	
		<line fill="none" stroke="#211AE4" stroke-width="2" stroke-miterlimit="10" x1="106.957" y1="314.449" x2="106.956" y2="314.449"/>
	<path fill="none" stroke="#211AE4" stroke-width="2" stroke-miterlimit="10" d="M265.896,673.206
		c0.123,0.064,0.246,0.131,0.37,0.194"/>
	<path fill="none" stroke="#211AE4" stroke-width="2" stroke-miterlimit="10" d="M201.547,615.702
		c16.317,21.92,37.653,43.604,64.349,57.504"/>
	<line fill="none" stroke="#211AE4" stroke-width="2" stroke-miterlimit="10" x1="159.31" y1="539.874" x2="159.852" y2="539.618"/>
	<path fill="none" stroke="#211AE4" stroke-width="2" stroke-miterlimit="10" d="M107.919,315.125
		c0.013-0.195,0.021-0.394,0.034-0.589"/>
	<path fill="none" stroke="#211AE4" stroke-width="2" stroke-miterlimit="10" d="M159.88,539.679
		c0.012-0.004,0.021-0.007,0.031-0.01"/>
	
		<line fill="none" stroke="#211AE4" stroke-width="2" stroke-miterlimit="10" x1="107.891" y1="314.513" x2="107.302" y2="314.473"/>
	<line fill="none" stroke="#211AE4" stroke-width="2" stroke-miterlimit="10" x1="159.31" y1="539.874" x2="159.824" y2="539.698"/>
	<path fill="none" stroke="#211AE4" stroke-width="2" stroke-miterlimit="10" d="M201.269,615.331
		c0.092,0.123,0.186,0.248,0.278,0.371"/>
	<path fill="none" stroke="#211AE4" stroke-width="2" stroke-miterlimit="10" d="M160.256,539.55c0,0-0.002,0.001-0.012,0.004"/>
	<path fill="none" stroke="#211AE4" stroke-width="2" stroke-miterlimit="10" d="M159.824,539.698
		c0.02-0.007,0.038-0.014,0.056-0.02"/>
	<path fill="none" stroke="#211AE4" stroke-width="2" stroke-miterlimit="10" d="M200.765,614.652
		c0.167,0.227,0.336,0.452,0.504,0.679"/>
	<path fill="none" stroke="#211AE4" stroke-width="2" stroke-miterlimit="10" d="M159.31,539.874
		c0.221-0.075,0.385-0.131,0.515-0.176"/>
	<line fill="none" stroke="#211AE4" stroke-width="2" stroke-miterlimit="10" x1="159.88" y1="539.679" x2="159.824" y2="539.698"/>
	<path fill="none" stroke="#211AE4" stroke-width="2" stroke-miterlimit="10" d="M350.541,601.247
		c-0.092-0.311-0.18-0.621-0.271-0.932"/>
	<path fill="none" stroke="#211AE4" stroke-width="2" stroke-miterlimit="10" d="M544.434,380.748
		c3.035-22.971,3.785-44.49,2.547-64.567"/>
	<path fill="none" stroke="#211AE4" stroke-width="2" stroke-miterlimit="10" d="M345.43,494.533
		c0.125-0.645,0.268-1.283,0.398-1.925"/>
	<path fill="none" stroke="#211AE4" stroke-width="2" stroke-miterlimit="10" d="M544.434,380.748
		c-6.199,46.884-21.932,99.812-49.863,158.911l-0.012,0.025l-0.01,0.027l0.473,0.162c-0.473-0.162-0.473-0.162-0.473-0.16v0.002
		l-0.004,0.012l-0.02,0.053c-0.016,0.045-0.041,0.115-0.072,0.207c-0.064,0.184-0.162,0.457-0.291,0.816
		c-0.262,0.717-0.654,1.775-1.18,3.137c-1.053,2.721-2.637,6.654-4.771,11.492c-4.268,9.678-10.729,22.975-19.496,37.447
		c-4.291,7.08-9.135,14.439-14.539,21.792"/>
	<path fill="none" stroke="#211AE4" stroke-width="2" stroke-miterlimit="10" d="M453.775,615.22c0.135-0.183,0.268-0.365,0.4-0.548
		"/>
	<path fill="none" stroke="#211AE4" stroke-width="2" stroke-miterlimit="10" d="M453.4,615.722c0.123-0.168,0.25-0.334,0.375-0.502
		"/>
	<path fill="none" stroke="#211AE4" stroke-width="2" stroke-miterlimit="10" d="M350.27,600.315
		c-5.834-19.924-8.975-40.998-8.975-62.811c0-14.619,1.408-28.911,4.092-42.746"/>
	<path fill="none" stroke="#211AE4" stroke-width="2" stroke-miterlimit="10" d="M382.365,408.466
		c-3.213,4.527-6.268,9.174-9.143,13.941"/>
	<path fill="none" stroke="#211AE4" stroke-width="2" stroke-miterlimit="10" d="M546.977,316.085
		c0.002,0.031,0.002,0.063,0.004,0.096"/>
	<path fill="none" stroke="#211AE4" stroke-width="2" stroke-miterlimit="10" d="M373.223,422.407
		c-12.863,21.332-22.246,44.995-27.395,70.201"/>
	<path fill="none" stroke="#211AE4" stroke-width="2" stroke-miterlimit="10" d="M345.43,494.533
		c-0.016,0.075-0.029,0.149-0.043,0.226"/>
	<path fill="none" stroke="#211AE4" stroke-width="2" stroke-miterlimit="10" d="M350.541,601.247
		c0.027,0.088,0.051,0.176,0.078,0.263"/>
	<path fill="none" stroke="#211AE4" stroke-width="2" stroke-miterlimit="10" d="M350.619,601.51"/>
	<path fill="none" stroke="#211AE4" stroke-width="2" stroke-miterlimit="10" d="M453.4,615.722
		c-16.527,22.259-38.225,44.337-65.471,58.322"/>
	
		<line fill="none" stroke="#211AE4" stroke-width="2" stroke-miterlimit="10" x1="266.625" y1="674.577" x2="266.614" y2="674.591"/>
	
		<line fill="none" stroke="#211AE4" stroke-width="2" stroke-miterlimit="10" x1="266.548" y1="674.679" x2="266.548" y2="674.679"/>
	<path fill="none" stroke="#211AE4" stroke-width="2" stroke-miterlimit="10" d="M266.614,674.591
		c-0.021,0.029-0.044,0.059-0.066,0.088"/>
	
		<line fill="none" stroke="#211AE4" stroke-width="2" stroke-miterlimit="10" x1="106.956" y1="314.448" x2="106.957" y2="314.448"/>
	<path fill="none" stroke="#211AE4" stroke-width="2" stroke-miterlimit="10" d="M107.953,314.536
		c-0.021-0.002-0.042-0.004-0.063-0.006"/>
	<path fill="none" stroke="#211AE4" stroke-width="2" stroke-miterlimit="10" d="M107.89,314.53
		c-0.196-0.016-0.392-0.037-0.588-0.052"/>
	<path fill="none" stroke="#211AE4" stroke-width="2" stroke-miterlimit="10" d="M106.989,314.451
		c-0.011-0.001-0.021-0.002-0.032-0.003"/>
	<path fill="none" stroke="#211AE4" stroke-width="2" stroke-miterlimit="10" d="M106.989,314.451
		c0.104,0.008,0.208,0.02,0.312,0.027"/>
	
		<line fill="none" stroke="#211AE4" stroke-width="2" stroke-miterlimit="10" x1="107.419" y1="315.492" x2="107.318" y2="315.267"/>
	
		<line fill="none" stroke="#211AE4" stroke-width="2" stroke-miterlimit="10" x1="107.843" y1="316.449" x2="107.771" y2="316.286"/>
	
		<line fill="none" stroke="#211AE4" stroke-width="2" stroke-miterlimit="10" x1="266.086" y1="673.636" x2="265.896" y2="673.206"/>
	<line fill="none" stroke="#211AE4" stroke-width="2" stroke-miterlimit="10" x1="107.318" y1="315.267" x2="106.957" y2="314.45"/>
	
		<line fill="none" stroke="#211AE4" stroke-width="2" stroke-miterlimit="10" x1="107.419" y1="315.492" x2="107.771" y2="316.286"/>
	
		<line fill="none" stroke="#211AE4" stroke-width="2" stroke-miterlimit="10" x1="266.467" y1="674.497" x2="266.478" y2="674.521"/>
	<line fill="none" stroke="#211AE4" stroke-width="2" stroke-miterlimit="10" x1="106.956" y1="314.449" x2="106.957" y2="314.45"/>
	
		<line fill="none" stroke="#211AE4" stroke-width="2" stroke-miterlimit="10" x1="266.478" y1="674.521" x2="266.548" y2="674.679"/>
	
		<line fill="none" stroke="#211AE4" stroke-width="2" stroke-miterlimit="10" x1="266.548" y1="674.679" x2="266.548" y2="674.679"/>
	
		<line fill="none" stroke="#211AE4" stroke-width="2" stroke-miterlimit="10" x1="106.956" y1="314.448" x2="106.956" y2="314.449"/>
	
		<line fill="none" stroke="#211AE4" stroke-width="2" stroke-miterlimit="10" x1="266.086" y1="673.636" x2="266.467" y2="674.497"/>
	<path fill="none" stroke="#211AE4" stroke-width="2" stroke-miterlimit="10" d="M310.304,505.872
		c-0.048-0.338-0.093-0.678-0.142-1.015"/>
	<path fill="none" stroke="#211AE4" stroke-width="2" stroke-miterlimit="10" d="M280.887,423.011
		c14.693,24.465,24.819,51.984,29.201,81.381"/>
	
		<line fill="none" stroke="#211AE4" stroke-width="2" stroke-miterlimit="10" x1="266.548" y1="674.679" x2="266.548" y2="674.679"/>
	<path fill="none" stroke="#211AE4" stroke-width="2" stroke-miterlimit="10" d="M310.088,504.392
		c0.023,0.155,0.051,0.31,0.074,0.466"/>
	<path fill="none" stroke="#211AE4" stroke-width="2" stroke-miterlimit="10" d="M309.507,574.3
		c-1.51,9.073-3.568,17.959-6.14,26.625"/>
	
		<line fill="none" stroke="#211AE4" stroke-width="2" stroke-miterlimit="10" x1="313.213" y1="537.505" x2="312.705" y2="537.505"/>
	<path fill="none" stroke="#211AE4" stroke-width="2" stroke-miterlimit="10" d="M310.304,505.872
		c1.47,10.334,2.237,20.894,2.237,31.633"/>
	<path fill="none" stroke="#211AE4" stroke-width="2" stroke-miterlimit="10" d="M266.086,673.636
		c0.061-0.078,0.119-0.157,0.18-0.235"/>
	<path fill="none" stroke="#211AE4" stroke-width="2" stroke-miterlimit="10" d="M107.382,313.481
		c-0.117-0.009-0.232-0.021-0.35-0.03l-0.075,0.997"/>
	<path fill="none" stroke="#211AE4" stroke-width="2" stroke-miterlimit="10" d="M266.021,674.269l-0.262-0.203
		c0.11-0.142,0.217-0.287,0.327-0.43"/>
	<path fill="none" stroke="#211AE4" stroke-width="2" stroke-miterlimit="10" d="M303.367,600.925
		c-0.116,0.393-0.227,0.788-0.345,1.18"/>
	<path fill="none" stroke="#211AE4" stroke-width="2" stroke-miterlimit="10" d="M312.541,537.505
		c0,12.535-1.044,24.826-3.034,36.795"/>
	<path fill="none" stroke="#211AE4" stroke-width="2" stroke-miterlimit="10" d="M280.887,423.011
		c-26.844-44.695-68.928-79.187-119.065-96.303"/>
	
		<line fill="none" stroke="#211AE4" stroke-width="2" stroke-miterlimit="10" x1="266.548" y1="674.679" x2="266.548" y2="674.679"/>
	<line fill="none" stroke="#211AE4" stroke-width="2" stroke-miterlimit="10" x1="266.087" y1="674.32" x2="266.548" y2="674.679"/>
	<path fill="none" stroke="#211AE4" stroke-width="2" stroke-miterlimit="10" d="M267.519,675.056
		c-0.061,0.078-0.119,0.158-0.181,0.236l-0.79-0.613"/>
	<line fill="none" stroke="#211AE4" stroke-width="2" stroke-miterlimit="10" x1="266.021" y1="674.269" x2="266.087" y2="674.32"/>
	<path fill="none" stroke="#211AE4" stroke-width="2" stroke-miterlimit="10" d="M107.896,315.534
		c-0.024-0.002-0.049-0.004-0.074-0.006"/>
	<path fill="none" stroke="#211AE4" stroke-width="2" stroke-miterlimit="10" d="M267.519,675.056
		c0.004-0.006,0.008-0.012,0.012-0.017"/>
	<line fill="none" stroke="#211AE4" stroke-width="2" stroke-miterlimit="10" x1="106.957" y1="314.45" x2="106.957" y2="314.449"/>
	<path fill="none" stroke="#211AE4" stroke-width="2" stroke-miterlimit="10" d="M106.898,315.446c-0.006,0-0.011,0-0.017-0.001
		l0.017-0.217"/>
	<path fill="none" stroke="#211AE4" stroke-width="2" stroke-miterlimit="10" d="M159.36,325.876
		c-0.345-0.113-0.689-0.227-1.034-0.339"/>
	
		<line fill="none" stroke="#211AE4" stroke-width="2" stroke-miterlimit="10" x1="312.541" y1="537.505" x2="312.705" y2="537.505"/>
	<path fill="none" stroke="#211AE4" stroke-width="2" stroke-miterlimit="10" d="M159.36,325.876
		c0.823,0.27,1.642,0.553,2.461,0.832"/>
	<path fill="none" stroke="#211AE4" stroke-width="2" stroke-miterlimit="10" d="M107.896,315.534
		c17.455,1.401,34.344,4.81,50.431,10.003"/>
	<path fill="none" stroke="#211AE4" stroke-width="2" stroke-miterlimit="10" d="M107.419,315.492
		c0.135,0.011,0.268,0.024,0.402,0.036"/>
	
		<line fill="none" stroke="#211AE4" stroke-width="2" stroke-miterlimit="10" x1="106.953" y1="314.503" x2="106.898" y2="315.229"/>
	
		<line fill="none" stroke="#211AE4" stroke-width="2" stroke-miterlimit="10" x1="106.957" y1="314.448" x2="106.957" y2="314.449"/>
	<path fill="none" stroke="#211AE4" stroke-width="2" stroke-miterlimit="10" d="M106.898,315.446
		c0.174,0.014,0.347,0.032,0.521,0.046"/>
	<line fill="none" stroke="#211AE4" stroke-width="2" stroke-miterlimit="10" x1="106.957" y1="314.45" x2="106.953" y2="314.503"/>
	<path fill="none" stroke="#211AE4" stroke-width="2" stroke-miterlimit="10" d="M107.382,313.481
		c0.192,0.016,0.383,0.035,0.576,0.051"/>
	<path fill="none" stroke="#211AE4" stroke-width="2" stroke-miterlimit="10" d="M107.919,315.125
		c-0.023-0.001-0.046-0.004-0.069-0.006"/>
	<path fill="none" stroke="#211AE4" stroke-width="2" stroke-miterlimit="10" d="M270.97,676.742
		c-0.323-0.153-0.641-0.314-0.963-0.47"/>
	
		<line fill="none" stroke="#211AE4" stroke-width="2" stroke-miterlimit="10" x1="107.302" y1="314.473" x2="107.302" y2="314.479"/>
	<path fill="none" stroke="#211AE4" stroke-width="2" stroke-miterlimit="10" d="M267.735,675.144
		c-0.004,0.005-0.007,0.01-0.011,0.014c0.304,0.154,0.614,0.298,0.919,0.449"/>
	<path fill="none" stroke="#211AE4" stroke-width="2" stroke-miterlimit="10" d="M294.476,685.317
		c-1.691-0.442-3.366-0.914-5.023-1.42"/>
	<path fill="none" stroke="#211AE4" stroke-width="2" stroke-miterlimit="10" d="M107.302,314.479
		c-0.015,0.197-0.034,0.39-0.048,0.587c0.199,0.016,0.396,0.037,0.596,0.054"/>
	<path fill="none" stroke="#211AE4" stroke-width="2" stroke-miterlimit="10" d="M301.777,687.004
		c-0.068-0.014-0.137-0.028-0.206-0.042"/>
	<path fill="none" stroke="#211AE4" stroke-width="2" stroke-miterlimit="10" d="M278.377,679.983
		c-0.111-0.045-0.226-0.088-0.337-0.133"/>
	<path fill="none" stroke="#211AE4" stroke-width="2" stroke-miterlimit="10" d="M283.218,681.823
		c-0.326-0.117-0.654-0.232-0.979-0.353"/>
	<path fill="none" stroke="#211AE4" stroke-width="2" stroke-miterlimit="10" d="M287.545,683.301
		c-0.26-0.084-0.519-0.171-0.778-0.256"/>
	<path fill="none" stroke="#211AE4" stroke-width="2" stroke-miterlimit="10" d="M296.807,685.907
		c-0.012-0.002-0.024-0.005-0.036-0.008"/>
	<path fill="none" stroke="#211AE4" stroke-width="2" stroke-miterlimit="10" d="M273.983,678.12
		c-0.385-0.171-0.765-0.35-1.148-0.523"/>
	<path fill="none" stroke="#211AE4" stroke-width="2" stroke-miterlimit="10" d="M270.007,676.272
		c-0.456-0.221-0.91-0.441-1.363-0.666"/>
	<path fill="none" stroke="#211AE4" stroke-width="2" stroke-miterlimit="10" d="M349.344,599.942
		c0.113,0.399,0.23,0.798,0.348,1.196"/>
	<path fill="none" stroke="#211AE4" stroke-width="2" stroke-miterlimit="10" d="M273.983,678.12
		c1.341,0.596,2.691,1.175,4.057,1.73"/>
	<path fill="none" stroke="#211AE4" stroke-width="2" stroke-miterlimit="10" d="M278.377,679.983
		c1.275,0.515,2.563,1.009,3.861,1.487"/>
	<path fill="none" stroke="#211AE4" stroke-width="2" stroke-miterlimit="10" d="M285.381,682.589
		c0.46,0.156,0.924,0.305,1.386,0.456"/>
	<path fill="none" stroke="#211AE4" stroke-width="2" stroke-miterlimit="10" d="M284.365,682.237
		c-0.385-0.135-0.765-0.275-1.147-0.414"/>
	<path fill="none" stroke="#211AE4" stroke-width="2" stroke-miterlimit="10" d="M271.155,676.83c0.557,0.262,1.12,0.511,1.68,0.767
		"/>
	<path fill="none" stroke="#211AE4" stroke-width="2" stroke-miterlimit="10" d="M300.44,686.733
		c0.375,0.079,0.754,0.152,1.131,0.229"/>
	<path fill="none" stroke="#211AE4" stroke-width="2" stroke-miterlimit="10" d="M288.222,683.522
		c-0.227-0.071-0.45-0.149-0.677-0.222"/>
	<path fill="none" stroke="#211AE4" stroke-width="2" stroke-miterlimit="10" d="M298.259,686.247
		c-0.484-0.111-0.97-0.223-1.452-0.34"/>
	<path fill="none" stroke="#211AE4" stroke-width="2" stroke-miterlimit="10" d="M295.977,685.714
		c0.263,0.064,0.53,0.121,0.794,0.186"/>
	<path fill="none" stroke="#211AE4" stroke-width="2" stroke-miterlimit="10" d="M385.156,676.271
		c-0.32,0.154-0.637,0.315-0.959,0.468"/>
	<path fill="none" stroke="#211AE4" stroke-width="2" stroke-miterlimit="10" d="M349.344,599.942
		c-5.617-19.629-8.637-40.355-8.637-61.791c0-42.537,11.842-82.119,32.402-115.765"/>
	<path fill="none" stroke="#211AE4" stroke-width="2" stroke-miterlimit="10" d="M201.789,141.859
		c1.596-1.091,3.202-2.159,4.821-3.203"/>
	<path fill="none" stroke="#211AE4" stroke-width="2" stroke-miterlimit="10" d="M358.385,685.9c0.264-0.063,0.529-0.12,0.793-0.187
		"/>
	<path fill="none" stroke="#211AE4" stroke-width="2" stroke-miterlimit="10" d="M373.109,422.387
		c2.912-4.764,6.004-9.403,9.256-13.921"/>
	<path fill="none" stroke="#211AE4" stroke-width="2" stroke-miterlimit="10" d="M333.434,103.029
		c-1.953-0.054-3.906-0.091-5.853-0.091"/>
	<path fill="none" stroke="#211AE4" stroke-width="2" stroke-miterlimit="10" d="M346.369,103.77
		c-0.969-0.085-1.936-0.152-2.904-0.224"/>
	<path fill="none" stroke="#211AE4" stroke-width="2" stroke-miterlimit="10" d="M351.105,104.24
		c-0.041-0.004-0.084-0.009-0.125-0.014"/>
	<path fill="none" stroke="#211AE4" stroke-width="2" stroke-miterlimit="10" d="M339.312,103.276
		c-1.309-0.072-2.617-0.134-3.926-0.182"/>
	<path fill="none" stroke="#211AE4" stroke-width="2" stroke-miterlimit="10" d="M367.619,683.299
		c-0.227,0.072-0.449,0.15-0.676,0.222"/>
	<path fill="none" stroke="#211AE4" stroke-width="2" stroke-miterlimit="10" d="M368.381,683.048
		c0.463-0.151,0.928-0.299,1.387-0.455"/>
	<path fill="none" stroke="#211AE4" stroke-width="2" stroke-miterlimit="10" d="M365.684,683.904
		c-1.627,0.496-3.27,0.959-4.93,1.395"/>
	<path fill="none" stroke="#211AE4" stroke-width="2" stroke-miterlimit="10" d="M492.779,177.75
		c-26.289-30.271-59.705-51.327-95.096-63.22"/>
	<path fill="none" stroke="#211AE4" stroke-width="2" stroke-miterlimit="10" d="M371.951,681.82
		c-0.383,0.138-0.762,0.278-1.146,0.413"/>
	<path fill="none" stroke="#211AE4" stroke-width="2" stroke-miterlimit="10" d="M546.977,316.085
		c-67.875,5.348-127.215,40.438-164.611,92.381"/>
	<path fill="none" stroke="#211AE4" stroke-width="2" stroke-miterlimit="10" d="M382.312,677.601
		c0.561-0.255,1.125-0.504,1.68-0.766"/>
	<path fill="none" stroke="#211AE4" stroke-width="2" stroke-miterlimit="10" d="M546.977,316.085
		c0.07-0.006,0.141-0.014,0.211-0.02c-4.014-57.963-24.643-104.043-54.408-138.315"/>
	<path fill="none" stroke="#211AE4" stroke-width="2" stroke-miterlimit="10" d="M285.481,107.033
		c1.232-0.239,2.465-0.464,3.697-0.682"/>
	<path fill="none" stroke="#211AE4" stroke-width="2" stroke-miterlimit="10" d="M291.401,105.973
		c1.382-0.23,2.764-0.451,4.146-0.655"/>
	<path fill="none" stroke="#211AE4" stroke-width="2" stroke-miterlimit="10" d="M299.74,104.735
		c0.868-0.112,1.737-0.209,2.605-0.311"/>
	<path fill="none" stroke="#211AE4" stroke-width="2" stroke-miterlimit="10" d="M208.202,137.624
		c1.223-0.774,2.455-1.529,3.689-2.277"/>
	<path fill="none" stroke="#211AE4" stroke-width="2" stroke-miterlimit="10" d="M305.944,104.035
		c0.749-0.075,1.498-0.152,2.247-0.219"/>
	<path fill="none" stroke="#211AE4" stroke-width="2" stroke-miterlimit="10" d="M212.87,134.757
		c14.979-8.963,30.826-16.014,47.05-21.181"/>
	<path fill="none" stroke="#211AE4" stroke-width="2" stroke-miterlimit="10" d="M259.92,113.576
		c8.067-2.57,16.227-4.677,24.419-6.313"/>
	<path fill="none" stroke="#211AE4" stroke-width="2" stroke-miterlimit="10" d="M319.935,103.086c0.57-0.02,1.142-0.04,1.712-0.056
		"/>
	<path fill="none" stroke="#211AE4" stroke-width="2" stroke-miterlimit="10" d="M333.434,103.029
		c0.65,0.018,1.303,0.041,1.953,0.065"/>
	<path fill="none" stroke="#211AE4" stroke-width="2" stroke-miterlimit="10" d="M339.312,103.276
		c1.383,0.077,2.768,0.166,4.152,0.269"/>
	<path fill="none" stroke="#211AE4" stroke-width="2" stroke-miterlimit="10" d="M346.369,103.77
		c1.537,0.136,3.072,0.288,4.611,0.457"/>
	<path fill="none" stroke="#211AE4" stroke-width="2" stroke-miterlimit="10" d="M313.798,103.383c0.476-0.03,0.95-0.05,1.426-0.077
		"/>
	
		<line fill="none" stroke="#211AE4" stroke-width="2" stroke-miterlimit="10" x1="327.579" y1="102.938" x2="327.581" y2="102.938"/>
	<path fill="none" stroke="#211AE4" stroke-width="2" stroke-miterlimit="10" d="M397.684,114.53
		c-15.297-5.14-30.961-8.57-46.578-10.291"/>
	<path fill="none" stroke="#211AE4" stroke-width="2" stroke-miterlimit="10" d="M321.646,103.031
		c1.98-0.055,3.959-0.092,5.932-0.092l0,0"/>
	<path fill="none" stroke="#211AE4" stroke-width="2" stroke-miterlimit="10" d="M333.973,689.394
		c-0.506,0.024-1.01,0.053-1.518,0.07"/>
	
		<line fill="none" stroke="#211AE4" stroke-width="2" stroke-miterlimit="10" x1="327.583" y1="689.562" x2="327.579" y2="689.562"/>
	<path fill="none" stroke="#211AE4" stroke-width="2" stroke-miterlimit="10" d="M327.579,689.562L327.579,689.562
		c-1.641,0-3.264-0.038-4.878-0.098"/>
	<path fill="none" stroke="#211AE4" stroke-width="2" stroke-miterlimit="10" d="M338.986,689.063
		c-0.549,0.048-1.102,0.088-1.654,0.129"/>
	<path fill="none" stroke="#211AE4" stroke-width="2" stroke-miterlimit="10" d="M322.7,689.464
		c-0.506-0.018-1.008-0.045-1.512-0.069"/>
	<path fill="none" stroke="#211AE4" stroke-width="2" stroke-miterlimit="10" d="M349.969,687.642
		c-0.617,0.105-1.23,0.218-1.852,0.316"/>
	<path fill="none" stroke="#211AE4" stroke-width="2" stroke-miterlimit="10" d="M358.359,685.905
		c-0.48,0.117-0.967,0.229-1.451,0.34"/>
	<path fill="none" stroke="#211AE4" stroke-width="2" stroke-miterlimit="10" d="M343.74,688.575
		c-0.422,0.052-0.85,0.09-1.271,0.139"/>
	<path fill="none" stroke="#211AE4" stroke-width="2" stroke-miterlimit="10" d="M107.382,313.481
		c-0.024,0.332-0.057,0.658-0.08,0.991"/>
	<path fill="none" stroke="#211AE4" stroke-width="2" stroke-miterlimit="10" d="M317.823,689.191
		c-0.551-0.04-1.103-0.08-1.65-0.128"/>
	<path fill="none" stroke="#211AE4" stroke-width="2" stroke-miterlimit="10" d="M312.687,688.713
		c-0.422-0.048-0.849-0.086-1.269-0.138"/>
	<path fill="none" stroke="#211AE4" stroke-width="2" stroke-miterlimit="10" d="M307.042,687.958
		c-0.623-0.099-1.238-0.211-1.856-0.317"/>
	<path fill="none" stroke="#211AE4" stroke-width="2" stroke-miterlimit="10" d="M302.596,687.169
		c-0.274-0.053-0.546-0.11-0.818-0.165"/>
	<path fill="none" stroke="#211AE4" stroke-width="2" stroke-miterlimit="10" d="M353.385,687.003
		c-0.273,0.055-0.545,0.113-0.818,0.166"/>
	<path fill="none" stroke="#211AE4" stroke-width="2" stroke-miterlimit="10" d="M383.992,676.835
		c0.068-0.032,0.137-0.064,0.205-0.097"/>
	<path fill="none" stroke="#211AE4" stroke-width="2" stroke-miterlimit="10" d="M353.582,686.963
		c0.377-0.076,0.756-0.149,1.131-0.229"/>
	<path fill="none" stroke="#211AE4" stroke-width="2" stroke-miterlimit="10" d="M387.424,675.144"/>
	<path fill="none" stroke="#211AE4" stroke-width="2" stroke-miterlimit="10" d="M349.691,601.139"/>
	<path fill="none" stroke="#211AE4" stroke-width="2" stroke-miterlimit="10" d="M354.713,686.734
		c0.736-0.156,1.467-0.321,2.195-0.489"/>
	<path fill="none" stroke="#211AE4" stroke-width="2" stroke-miterlimit="10" d="M386.51,675.608
		c-0.449,0.223-0.9,0.443-1.354,0.662"/>
	<path fill="none" stroke="#211AE4" stroke-width="2" stroke-miterlimit="10" d="M359.178,685.714
		c0.529-0.131,1.051-0.277,1.576-0.415"/>
	<path fill="none" stroke="#211AE4" stroke-width="2" stroke-miterlimit="10" d="M365.684,683.904
		c0.42-0.128,0.842-0.252,1.26-0.384"/>
	<path fill="none" stroke="#211AE4" stroke-width="2" stroke-miterlimit="10" d="M369.768,682.593
		c0.348-0.119,0.693-0.238,1.037-0.359"/>
	<path fill="none" stroke="#211AE4" stroke-width="2" stroke-miterlimit="10" d="M368.381,683.048
		c-0.254,0.084-0.508,0.169-0.762,0.251"/>
	<path fill="none" stroke="#211AE4" stroke-width="2" stroke-miterlimit="10" d="M358.385,685.9
		c-0.008,0.002-0.018,0.003-0.025,0.005"/>
	<path fill="none" stroke="#211AE4" stroke-width="2" stroke-miterlimit="10" d="M353.385,687.003
		c0.066-0.014,0.131-0.026,0.197-0.04"/>
	<path fill="none" stroke="#211AE4" stroke-width="2" stroke-miterlimit="10" d="M377.113,679.853
		c-0.102,0.042-0.207,0.081-0.311,0.123"/>
	<path fill="none" stroke="#211AE4" stroke-width="2" stroke-miterlimit="10" d="M372.912,681.474
		c-0.318,0.117-0.641,0.23-0.961,0.347"/>
	<path fill="none" stroke="#211AE4" stroke-width="2" stroke-miterlimit="10" d="M382.312,677.601
		c-0.377,0.173-0.754,0.349-1.133,0.518"/>
	<path fill="none" stroke="#211AE4" stroke-width="2" stroke-miterlimit="10" d="M349.969,687.642
		c0.869-0.15,1.736-0.306,2.598-0.473"/>
	<path fill="none" stroke="#211AE4" stroke-width="2" stroke-miterlimit="10" d="M317.823,689.191
		c1.115,0.082,2.237,0.149,3.365,0.203"/>
	<path fill="none" stroke="#211AE4" stroke-width="2" stroke-miterlimit="10" d="M294.476,685.317
		c0.501,0.131,0.997,0.271,1.501,0.396"/>
	<path fill="none" stroke="#211AE4" stroke-width="2" stroke-miterlimit="10" d="M338.986,689.063
		c1.168-0.101,2.328-0.219,3.482-0.35"/>
	<path fill="none" stroke="#211AE4" stroke-width="2" stroke-miterlimit="10" d="M343.74,688.575
		c1.471-0.182,2.93-0.389,4.377-0.617"/>
	<path fill="none" stroke="#211AE4" stroke-width="2" stroke-miterlimit="10" d="M333.973,689.394
		c1.125-0.053,2.246-0.12,3.359-0.201"/>
	<path fill="none" stroke="#211AE4" stroke-width="2" stroke-miterlimit="10" d="M372.912,681.474
		c1.309-0.482,2.605-0.979,3.891-1.498"/>
	<path fill="none" stroke="#211AE4" stroke-width="2" stroke-miterlimit="10" d="M377.113,679.853
		c1.369-0.557,2.723-1.137,4.066-1.734"/>
	<path fill="none" stroke="#211AE4" stroke-width="2" stroke-miterlimit="10" d="M327.583,689.562c1.639,0,3.26-0.038,4.873-0.098"
		/>
	<path fill="none" stroke="#211AE4" stroke-width="2" stroke-miterlimit="10" d="M284.365,682.237
		c0.338,0.118,0.677,0.236,1.016,0.352"/>
	<path fill="none" stroke="#211AE4" stroke-width="2" stroke-miterlimit="10" d="M288.222,683.522c0.408,0.129,0.82,0.25,1.23,0.375
		"/>
	<path fill="none" stroke="#211AE4" stroke-width="2" stroke-miterlimit="10" d="M270.97,676.742
		c0.062,0.029,0.124,0.059,0.186,0.088"/>
	<path fill="none" stroke="#211AE4" stroke-width="2" stroke-miterlimit="10" d="M298.259,686.247
		c0.725,0.167,1.451,0.331,2.182,0.486"/>
	<path fill="none" stroke="#211AE4" stroke-width="2" stroke-miterlimit="10" d="M196.827,145.351
		c0.543-0.395,1.088-0.784,1.633-1.172"/>
	<path fill="none" stroke="#211AE4" stroke-width="2" stroke-miterlimit="10" d="M212.87,134.757
		c-0.327,0.195-0.652,0.393-0.979,0.59"/>
	<path fill="none" stroke="#211AE4" stroke-width="2" stroke-miterlimit="10" d="M208.202,137.624
		c-0.533,0.338-1.061,0.689-1.592,1.032"/>
	<path fill="none" stroke="#211AE4" stroke-width="2" stroke-miterlimit="10" d="M285.481,107.033
		c-0.381,0.074-0.762,0.154-1.143,0.23"/>
	<path fill="none" stroke="#211AE4" stroke-width="2" stroke-miterlimit="10" d="M201.789,141.859
		c-1.115,0.762-2.226,1.534-3.329,2.319"/>
	<path fill="none" stroke="#211AE4" stroke-width="2" stroke-miterlimit="10" d="M291.401,105.973
		c-0.741,0.123-1.482,0.247-2.223,0.378"/>
	<path fill="none" stroke="#211AE4" stroke-width="2" stroke-miterlimit="10" d="M161.034,178.143
		c10.828-12.499,22.88-23.426,35.793-32.792"/>
	<path fill="none" stroke="#211AE4" stroke-width="2" stroke-miterlimit="10" d="M107.382,313.481
		c4.236-56.634,24.498-101.684,53.652-135.339"/>
	<path fill="none" stroke="#211AE4" stroke-width="2" stroke-miterlimit="10" d="M307.042,687.958
		c1.447,0.229,2.905,0.437,4.376,0.617"/>
	<path fill="none" stroke="#211AE4" stroke-width="2" stroke-miterlimit="10" d="M319.935,103.086
		c-1.568,0.056-3.139,0.129-4.711,0.219"/>
	<path fill="none" stroke="#211AE4" stroke-width="2" stroke-miterlimit="10" d="M386.51,675.608
		c0.307-0.152,0.619-0.297,0.924-0.451c-0.004-0.004-0.006-0.009-0.01-0.014"/>
	<path fill="none" stroke="#211AE4" stroke-width="2" stroke-miterlimit="10" d="M299.74,104.735
		c-1.397,0.179-2.795,0.376-4.192,0.583"/>
	<path fill="none" stroke="#211AE4" stroke-width="2" stroke-miterlimit="10" d="M312.687,688.713
		c1.155,0.131,2.316,0.25,3.486,0.351"/>
	<path fill="none" stroke="#211AE4" stroke-width="2" stroke-miterlimit="10" d="M302.596,687.169
		c0.858,0.167,1.724,0.321,2.59,0.472"/>
	<path fill="none" stroke="#211AE4" stroke-width="2" stroke-miterlimit="10" d="M305.944,104.035
		c-1.199,0.12-2.398,0.249-3.599,0.389"/>
	<path fill="none" stroke="#211AE4" stroke-width="2" stroke-miterlimit="10" d="M313.798,103.383
		c-1.867,0.119-3.736,0.266-5.606,0.433"/>
	<path fill="none" stroke="#211AE4" stroke-width="2" stroke-miterlimit="10" d="M367.619,683.299
		c-3.021,0.97-6.098,1.843-9.234,2.602"/>
	<path fill="none" stroke="#211AE4" stroke-width="2" stroke-miterlimit="10" d="M358.359,685.905
		c-1.578,0.382-3.17,0.733-4.777,1.058"/>
	<path fill="none" stroke="#211AE4" stroke-width="2" stroke-miterlimit="10" d="M268.644,675.606
		c-0.305-0.15-0.604-0.31-0.908-0.463"/>
	<path fill="none" stroke="#211AE4" stroke-width="2" stroke-miterlimit="10" d="M353.385,687.003
		c0.066-0.014,0.131-0.026,0.197-0.04"/>
	<path fill="none" stroke="#211AE4" stroke-width="2" stroke-miterlimit="10" d="M266.467,674.497
		c0.046,0.023,0.093,0.047,0.138,0.07"/>
	<path fill="none" stroke="#211AE4" stroke-width="2" stroke-miterlimit="10" d="M267.53,675.039
		c-0.302-0.153-0.604-0.307-0.905-0.462"/>
	<path fill="none" stroke="#211AE4" stroke-width="2" stroke-miterlimit="10" d="M267.53,675.039
		c0.068,0.034,0.137,0.069,0.205,0.104"/>
	<path fill="none" stroke="#211AE4" stroke-width="2" stroke-miterlimit="10" d="M201.547,615.702
		c-0.247-0.023-0.497-0.039-0.744-0.064c16.437,22.299,38.056,44.475,65.218,58.631"/>
	<path fill="none" stroke="#211AE4" stroke-width="2" stroke-miterlimit="10" d="M266.021,674.269
		c0.147,0.078,0.298,0.151,0.446,0.229"/>
	<path fill="none" stroke="#211AE4" stroke-width="2" stroke-miterlimit="10" d="M266.625,674.577
		c-0.007-0.003-0.014-0.007-0.021-0.01"/>
	<path fill="none" stroke="#211AE4" stroke-width="2" stroke-miterlimit="10" d="M353.385,687.003
		c-8.217,1.646-16.816,2.539-25.806,2.539c-8.988,0-17.585-0.893-25.801-2.538"/>
	<path fill="none" stroke="#211AE4" stroke-width="2" stroke-miterlimit="10" d="M296.771,685.899
		c-3.134-0.758-6.207-1.63-9.226-2.599"/>
	<path fill="none" stroke="#211AE4" stroke-width="2" stroke-miterlimit="10" d="M376.803,679.976
		c0.104-0.042,0.209-0.081,0.311-0.123"/>
	<path fill="none" stroke="#211AE4" stroke-width="2" stroke-miterlimit="10" d="M367.619,683.299
		c0.256-0.082,0.508-0.167,0.762-0.251"/>
	<path fill="none" stroke="#211AE4" stroke-width="2" stroke-miterlimit="10" d="M286.767,683.045
		c0.26,0.085,0.519,0.172,0.778,0.256"/>
	<path fill="none" stroke="#211AE4" stroke-width="2" stroke-miterlimit="10" d="M350.619,601.51
		c-0.311-0.121-0.617-0.249-0.928-0.371"/>
	<path fill="none" stroke="#211AE4" stroke-width="2" stroke-miterlimit="10" d="M296.771,685.899
		c0.012,0.003,0.024,0.006,0.036,0.008"/>
	<path fill="none" stroke="#211AE4" stroke-width="2" stroke-miterlimit="10" d="M371.951,681.82
		c0.32-0.115,0.643-0.229,0.961-0.347"/>
	<path fill="none" stroke="#211AE4" stroke-width="2" stroke-miterlimit="10" d="M272.835,677.597
		c0.384,0.174,0.764,0.353,1.148,0.523"/>
	<path fill="none" stroke="#211AE4" stroke-width="2" stroke-miterlimit="10" d="M385.156,676.271
		c0.453-0.219,0.904-0.439,1.354-0.662"/>
	<path fill="none" stroke="#211AE4" stroke-width="2" stroke-miterlimit="10" d="M268.644,675.606
		c0.453,0.225,0.907,0.445,1.363,0.666"/>
	<path fill="none" stroke="#211AE4" stroke-width="2" stroke-miterlimit="10" d="M371.951,681.82
		c-1.182,0.425-2.371,0.835-3.57,1.228"/>
	<path fill="none" stroke="#211AE4" stroke-width="2" stroke-miterlimit="10" d="M282.238,681.471
		c0.325,0.12,0.653,0.235,0.979,0.353"/>
	<path fill="none" stroke="#211AE4" stroke-width="2" stroke-miterlimit="10" d="M381.18,678.118
		c0.379-0.169,0.754-0.345,1.133-0.518"/>
	<path fill="none" stroke="#211AE4" stroke-width="2" stroke-miterlimit="10" d="M278.04,679.851
		c0.111,0.045,0.226,0.088,0.337,0.133"/>
	<path fill="none" stroke="#211AE4" stroke-width="2" stroke-miterlimit="10" d="M385.156,676.271
		c-0.941,0.453-1.889,0.896-2.844,1.33"/>
	<path fill="none" stroke="#211AE4" stroke-width="2" stroke-miterlimit="10" d="M278.04,679.851
		c-1.365-0.555-2.716-1.135-4.057-1.73"/>
	<path fill="none" stroke="#211AE4" stroke-width="2" stroke-miterlimit="10" d="M381.18,678.118
		c-1.344,0.598-2.697,1.178-4.066,1.734"/>
	<path fill="none" stroke="#211AE4" stroke-width="2" stroke-miterlimit="10" d="M387.424,675.144
		c-0.307,0.154-0.607,0.313-0.914,0.465"/>
	<path fill="none" stroke="#211AE4" stroke-width="2" stroke-miterlimit="10" d="M358.359,685.905
		c0.008-0.002,0.016-0.003,0.025-0.005"/>
	<path fill="none" stroke="#211AE4" stroke-width="2" stroke-miterlimit="10" d="M272.835,677.597
		c-0.948-0.433-1.892-0.873-2.828-1.324"/>
	<path fill="none" stroke="#211AE4" stroke-width="2" stroke-miterlimit="10" d="M376.803,679.976
		c-1.285,0.518-2.582,1.017-3.891,1.498"/>
	<path fill="none" stroke="#211AE4" stroke-width="2" stroke-miterlimit="10" d="M301.777,687.004
		c-0.068-0.014-0.137-0.028-0.206-0.042"/>
	<path fill="none" stroke="#211AE4" stroke-width="2" stroke-miterlimit="10" d="M301.571,686.962
		c-1.602-0.323-3.191-0.674-4.765-1.055"/>
	<path fill="none" stroke="#211AE4" stroke-width="2" stroke-miterlimit="10" d="M286.767,683.045
		c-1.191-0.392-2.375-0.8-3.549-1.222"/>
	<path fill="none" stroke="#211AE4" stroke-width="2" stroke-miterlimit="10" d="M453.4,615.722
		c0.318-0.031,0.639-0.052,0.957-0.084c-16.781,22.766-38.967,45.399-66.934,59.506"/>
	<path fill="none" stroke="#211AE4" stroke-width="2" stroke-miterlimit="10" d="M282.238,681.471
		c-1.298-0.478-2.585-0.974-3.861-1.487"/>
</g>
<g>
	<g>
		<path fill="#211AE4" d="M178.042,333.788c-11.604,9.081-19.07,23.205-19.07,39.082c0,27.399,22.211,49.609,49.611,49.609
			c21.348,0,39.541-13.482,46.539-32.396C233.915,366.187,207.663,346.872,178.042,333.788z"/>
		<path fill="#211AE4" d="M478.172,333.564c-29.693,12.31-56.143,30.745-77.715,53.78c6.195,20.337,25.096,35.135,47.459,35.135
			c27.4,0,49.609-22.21,49.609-49.609C497.525,356.862,489.938,342.636,478.172,333.564z"/>
		<path fill="#FFFFFF" d="M224.954,380.787c0,0.472-0.188,0.923-0.52,1.255c-0.334,0.332-0.784,0.519-1.254,0.519h-13.594v13.594
			c0,0.47-0.187,0.921-0.52,1.254c-0.332,0.332-0.783,0.52-1.254,0.52s-0.922-0.188-1.253-0.52
			c-0.333-0.333-0.521-0.784-0.521-1.254v-13.594h-13.593c-0.47,0-0.921-0.187-1.254-0.519c-0.332-0.332-0.519-0.783-0.519-1.255
			c0-0.47,0.187-0.921,0.519-1.253c0.333-0.333,0.784-0.52,1.254-0.52h13.593v-13.594c0-0.47,0.188-0.92,0.521-1.254
			c0.331-0.332,0.782-0.519,1.253-0.519s0.922,0.187,1.254,0.519c0.333,0.334,0.52,0.784,0.52,1.254v13.594h13.594
			c0.47,0,0.92,0.187,1.254,0.52C224.766,379.866,224.954,380.317,224.954,380.787z"/>
		<path fill="#FFFFFF" d="M465.252,380.787c0,0.472-0.188,0.923-0.52,1.255s-0.783,0.519-1.254,0.519h-13.594v13.594
			c0,0.47-0.188,0.921-0.52,1.254c-0.332,0.332-0.783,0.52-1.254,0.52s-0.92-0.188-1.254-0.52c-0.332-0.333-0.52-0.784-0.52-1.254
			v-13.594h-13.592c-0.471,0-0.922-0.187-1.254-0.519c-0.334-0.332-0.52-0.783-0.52-1.255c0-0.47,0.186-0.921,0.52-1.253
			c0.332-0.333,0.783-0.52,1.254-0.52h13.592v-13.594c0-0.47,0.188-0.92,0.52-1.254c0.334-0.332,0.783-0.519,1.254-0.519
			s0.922,0.187,1.254,0.519c0.332,0.334,0.52,0.784,0.52,1.254v13.594h13.594c0.471,0,0.922,0.187,1.254,0.52
			C465.064,379.866,465.252,380.317,465.252,380.787z" class="eyes-zooming"/>
	</g>
	<path fill="#211AE4" d="M307.566,576.878c-11.542-7.682-26.317-19.105-39.747-34.307c0.57,0.188,1.277,0.41,2.119,0.658
		c2.599,0.768,6.482,1.789,11.64,2.809c10.313,2.043,25.719,4.082,46.112,4.082c20.394,0,35.8-2.039,46.115-4.082
		c5.156-1.02,9.041-2.041,11.641-2.809c0.84-0.248,1.547-0.471,2.119-0.658c-13.432,15.201-28.207,26.625-39.75,34.307
		c-5.949,3.959-11.037,6.922-14.637,8.895c-1.799,0.986-3.226,1.725-4.204,2.217c-0.487,0.246-0.862,0.43-1.115,0.551
		c-0.064,0.033-0.121,0.061-0.169,0.082c-0.05-0.021-0.105-0.049-0.171-0.082c-0.253-0.121-0.628-0.305-1.115-0.551
		c-0.977-0.492-2.403-1.23-4.203-2.217C318.603,583.8,313.514,580.837,307.566,576.878z"/>
	<path fill="#E32811" d="M284.182,608.854c7.969,15.963,24.454,26.928,43.508,26.928c19.056,0,35.537-10.965,43.509-26.928
		c-15.221-4.297-29.787-10.162-43.509-17.414C313.97,598.692,299.406,604.558,284.182,608.854z"/>
</g>
</svg>
