<svg id="eaYZkU0xNgq1" xmlns="http://www.w3.org/2000/svg" xmlns:xlink="http://www.w3.org/1999/xlink" viewBox="0 0 660 691" shape-rendering="geometricPrecision" text-rendering="geometricPrecision"><style><![CDATA[#eaYZkU0xNgq432_tr {animation: eaYZkU0xNgq432_tr__tr 6000ms linear infinite normal forwards}@keyframes eaYZkU0xNgq432_tr__tr { 0% {transform: translate(207.812996px,380.787994px) rotate(0deg)} 100% {transform: translate(207.812996px,380.787994px) rotate(360deg)}} #eaYZkU0xNgq433_tr {animation: eaYZkU0xNgq433_tr__tr 6000ms linear infinite normal forwards}@keyframes eaYZkU0xNgq433_tr__tr { 0% {transform: translate(448.111038px,380.787994px) rotate(360deg)} 100% {transform: translate(448.111038px,380.787994px) rotate(720deg)}}]]></style><path d="M223.315,616.749c37.688,0,73.199-9.314,104.375-25.744c31.175,16.43,66.687,25.744,104.376,25.744c7.561,0,15.033-.383,22.402-1.111-27.354,37.107-69.035,73.904-126.779,73.904-57.742,0-99.424-36.797-126.775-73.904c7.368.728,14.838,1.111,22.401,1.111Z" fill="none" stroke="#211ae4" stroke-width="2" stroke-miterlimit="10"/><g><path d="M454.756,615.116c-17.467,23.818-40.84,47.561-70.559,61.622" fill="none" stroke="#211ae4" stroke-width="2" stroke-miterlimit="10"/><path d="M454.756,615.116c.029-.04.061-.08.09-.121.102-.14.199-.279.301-.419" fill="none" stroke="#211ae4" stroke-width="2" stroke-miterlimit="10"/><path d="M107.85,315.119c.013-.196.026-.393.04-.589" fill="none" stroke="#211ae4" stroke-width="2" stroke-miterlimit="10"/><path d="M366.943,683.521c.947-.299,1.889-.609,2.824-.928" fill="none" stroke="#211ae4" stroke-width="2" stroke-miterlimit="10"/><path d="M370.805,682.233c4.527-1.582,8.924-3.39,13.188-5.398" fill="none" stroke="#211ae4" stroke-width="2" stroke-miterlimit="10"/><path d="M107.821,315.528c.005-.072.011-.145.016-.216" fill="none" stroke="#211ae4" stroke-width="2" stroke-miterlimit="10"/><path d="M348.117,687.958c.621-.098,1.234-.211,1.852-.316" fill="none" stroke="#211ae4" stroke-width="2" stroke-miterlimit="10"/><path d="M354.713,686.734c-.713.15-1.428.296-2.146.435" fill="none" stroke="#211ae4" stroke-width="2" stroke-miterlimit="10"/><path d="M107.771,316.286c.016-.254.034-.506.051-.758" fill="none" stroke="#211ae4" stroke-width="2" stroke-miterlimit="10"/><path d="M308.191,103.816c-.749.067-1.498.145-2.247.219" fill="none" stroke="#211ae4" stroke-width="2" stroke-miterlimit="10"/><path d="M360.754,685.299c-.525.138-1.047.284-1.576.415" fill="none" stroke="#211ae4" stroke-width="2" stroke-miterlimit="10"/><path d="M107.85,315.119c-.005.064-.009.129-.013.193" fill="none" stroke="#211ae4" stroke-width="2" stroke-miterlimit="10"/><path d="M198.46,144.179c1.103-.787,2.215-1.556,3.329-2.319" fill="none" stroke="#211ae4" stroke-width="2" stroke-miterlimit="10"/><path d="M315.224,103.306c-.476.027-.95.047-1.426.077" fill="none" stroke="#211ae4" stroke-width="2" stroke-miterlimit="10"/><path d="M356.908,686.245c.758-.174,1.518-.344,2.27-.531" fill="none" stroke="#211ae4" stroke-width="2" stroke-miterlimit="10"/><path d="M360.754,685.299c1.66-.435,3.303-.899,4.93-1.395" fill="none" stroke="#211ae4" stroke-width="2" stroke-miterlimit="10"/><path d="M321.646,103.031c-.57.016-1.141.036-1.712.056" fill="none" stroke="#211ae4" stroke-width="2" stroke-miterlimit="10"/><path d="M107.891,314.513c0,.006-.001.012-.001.018" fill="none" stroke="#211ae4" stroke-width="2" stroke-miterlimit="10"/><path d="M354.713,686.734c.736-.155,1.467-.321,2.195-.489" fill="none" stroke="#211ae4" stroke-width="2" stroke-miterlimit="10"/><path d="M342.469,688.714c.422-.048.85-.087,1.271-.139" fill="none" stroke="#211ae4" stroke-width="2" stroke-miterlimit="10"/><path d="M321.188,689.395c.504.023,1.006.052,1.512.069" fill="none" stroke="#211ae4" stroke-width="2" stroke-miterlimit="10"/><path d="M316.173,689.063c.548.047,1.1.088,1.65.128" fill="none" stroke="#211ae4" stroke-width="2" stroke-miterlimit="10"/><path d="M311.418,688.575c-1.471-.181-2.929-.389-4.376-.617" fill="none" stroke="#211ae4" stroke-width="2" stroke-miterlimit="10"/><path d="M305.186,687.641c-.867-.149-1.731-.305-2.59-.472" fill="none" stroke="#211ae4" stroke-width="2" stroke-miterlimit="10"/><path d="M311.418,688.575c.421.052.847.09,1.269.138" fill="none" stroke="#211ae4" stroke-width="2" stroke-miterlimit="10"/><path d="M305.186,687.641c.618.106,1.233.22,1.856.317" fill="none" stroke="#211ae4" stroke-width="2" stroke-miterlimit="10"/><path d="M295.977,685.714c.756.188,1.521.358,2.282.533" fill="none" stroke="#211ae4" stroke-width="2" stroke-miterlimit="10"/><path d="M300.44,686.733c.716.15,1.434.297,2.155.436" fill="none" stroke="#211ae4" stroke-width="2" stroke-miterlimit="10"/><path d="M316.173,689.063c-1.17-.1-2.331-.22-3.486-.351" fill="none" stroke="#211ae4" stroke-width="2" stroke-miterlimit="10"/><path d="M266.478,674.521c.04.021.08.04.119.062" fill="none" stroke="#211ae4" stroke-width="2" stroke-miterlimit="10"/><path d="M342.469,688.714c-1.154.13-2.314.25-3.482.35" fill="none" stroke="#211ae4" stroke-width="2" stroke-miterlimit="10"/><path d="M337.332,689.192c-1.113.081-2.234.148-3.359.201" fill="none" stroke="#211ae4" stroke-width="2" stroke-miterlimit="10"/><path d="M352.566,687.169c-.861.167-1.729.322-2.598.473" fill="none" stroke="#211ae4" stroke-width="2" stroke-miterlimit="10"/><path d="M348.117,687.958c-1.447.229-2.906.437-4.377.617" fill="none" stroke="#211ae4" stroke-width="2" stroke-miterlimit="10"/><path d="M337.332,689.192c.553-.041,1.105-.082,1.654-.129" fill="none" stroke="#211ae4" stroke-width="2" stroke-miterlimit="10"/><path d="M332.455,689.464c.508-.018,1.012-.046,1.518-.07" fill="none" stroke="#211ae4" stroke-width="2" stroke-miterlimit="10"/><path d="M321.188,689.395c-1.128-.054-2.25-.121-3.365-.203" fill="none" stroke="#211ae4" stroke-width="2" stroke-miterlimit="10"/><path d="M332.455,689.464c-1.613.059-3.234.098-4.873.098" fill="none" stroke="#211ae4" stroke-width="2" stroke-miterlimit="10"/><path d="M327.579,689.562c-1.64,0-3.264-.039-4.878-.098" fill="none" stroke="#211ae4" stroke-width="2" stroke-miterlimit="10"/><polyline points="327.583,689.562 327.579,689.562 327.579,689.562" fill="none" stroke="#211ae4" stroke-width="2" stroke-miterlimit="10"/><path d="M366.943,683.521c-.418.132-.84.256-1.26.384" fill="none" stroke="#211ae4" stroke-width="2" stroke-miterlimit="10"/><path d="M343.465,103.545c.969.071,1.936.141,2.904.224" fill="none" stroke="#211ae4" stroke-width="2" stroke-miterlimit="10"/><path d="M335.387,103.094c1.307.047,2.617.111,3.926.182" fill="none" stroke="#211ae4" stroke-width="2" stroke-miterlimit="10"/><path d="M206.61,138.656c-1.618,1.046-3.227,2.11-4.821,3.203" fill="none" stroke="#211ae4" stroke-width="2" stroke-miterlimit="10"/><path d="M300.44,686.733c-.73-.154-1.456-.319-2.182-.486" fill="none" stroke="#211ae4" stroke-width="2" stroke-miterlimit="10"/><path d="M327.581,102.938c1.947,0,3.9.038,5.853.091" fill="none" stroke="#211ae4" stroke-width="2" stroke-miterlimit="10"/><path d="M397.75,114.373c-15.32-5.07-31.004-8.443-46.645-10.133" fill="none" stroke="#211ae4" stroke-width="2" stroke-miterlimit="10"/><path d="M370.805,682.233c-.344.12-.689.241-1.037.359" fill="none" stroke="#211ae4" stroke-width="2" stroke-miterlimit="10"/><path d="M350.98,104.226c-1.539-.166-3.074-.324-4.611-.457" fill="none" stroke="#211ae4" stroke-width="2" stroke-miterlimit="10"/><path d="M109.842,377.892c-2.69-21.865-3.291-42.397-2.071-61.605" fill="none" stroke="#211ae4" stroke-width="2" stroke-miterlimit="10"/><path d="M350.98,104.226c.041.004.084.009.125.014" fill="none" stroke="#211ae4" stroke-width="2" stroke-miterlimit="10"/><path d="M295.977,685.714c-.504-.125-1-.266-1.501-.396" fill="none" stroke="#211ae4" stroke-width="2" stroke-miterlimit="10"/><path d="M211.892,135.347c.326-.197.652-.395.979-.59" fill="none" stroke="#211ae4" stroke-width="2" stroke-miterlimit="10"/><path d="M284.339,107.263c.381-.076.762-.157,1.143-.23" fill="none" stroke="#211ae4" stroke-width="2" stroke-miterlimit="10"/><path d="M107.958,313.532c2.923-40.047,13.797-74.271,30.13-102.757c6.824-11.902,14.619-22.786,23.17-32.699" fill="none" stroke="#211ae4" stroke-width="2" stroke-miterlimit="10"/><path d="M206.61,138.656c.531-.344,1.059-.694,1.592-1.032" fill="none" stroke="#211ae4" stroke-width="2" stroke-miterlimit="10"/><path d="M289.179,106.351c.74-.131,1.481-.255,2.223-.378" fill="none" stroke="#211ae4" stroke-width="2" stroke-miterlimit="10"/><path d="M308.191,103.816c1.87-.167,3.739-.314,5.606-.433" fill="none" stroke="#211ae4" stroke-width="2" stroke-miterlimit="10"/><path d="M302.346,104.424c1.2-.139,2.399-.27,3.599-.389" fill="none" stroke="#211ae4" stroke-width="2" stroke-miterlimit="10"/><path d="M295.548,105.317c1.396-.206,2.795-.404,4.192-.583" fill="none" stroke="#211ae4" stroke-width="2" stroke-miterlimit="10"/><path d="M198.46,144.179c-.545.389-1.091.777-1.633,1.172" fill="none" stroke="#211ae4" stroke-width="2" stroke-miterlimit="10"/><path d="M315.224,103.306c1.572-.09,3.143-.164,4.711-.219" fill="none" stroke="#211ae4" stroke-width="2" stroke-miterlimit="10"/><path d="M212.87,134.757c14.965-8.972,30.801-16.05,47.035-21.214" fill="none" stroke="#211ae4" stroke-width="2" stroke-miterlimit="10"/><path d="M284.339,107.263c-8.2,1.632-16.365,3.713-24.434,6.28" fill="none" stroke="#211ae4" stroke-width="2" stroke-miterlimit="10"/><path d="M271.155,676.83c-.062-.029-.123-.059-.186-.088" fill="none" stroke="#211ae4" stroke-width="2" stroke-miterlimit="10"/><path d="M285.381,682.589c-.339-.115-.678-.233-1.016-.352" fill="none" stroke="#211ae4" stroke-width="2" stroke-miterlimit="10"/><path d="M295.548,105.317c-1.383.203-2.765.425-4.146.655" fill="none" stroke="#211ae4" stroke-width="2" stroke-miterlimit="10"/><path d="M302.346,104.424c-.868.101-1.737.2-2.605.311" fill="none" stroke="#211ae4" stroke-width="2" stroke-miterlimit="10"/><path d="M493.9,178.076c-26.449-30.663-60.283-51.832-96.15-63.703" fill="none" stroke="#211ae4" stroke-width="2" stroke-miterlimit="10"/><path d="M384.197,676.738c-.068.032-.137.064-.205.097" fill="none" stroke="#211ae4" stroke-width="2" stroke-miterlimit="10"/><path d="M211.892,135.347c-1.234.749-2.467,1.502-3.689,2.277" fill="none" stroke="#211ae4" stroke-width="2" stroke-miterlimit="10"/><path d="M545.01,380.319c-6.107,47.151-21.887,100.444-50.027,159.988l-.012.023-.008.027.473.162c-.473-.162-.475-.162-.475-.16l-.002.004-.006.02-.027.08c-.025.07-.062.178-.113.318-.1.281-.25.699-.451,1.244-.4,1.092-1.008,2.695-1.818,4.734-1.625,4.082-4.078,9.912-7.385,16.912-6.564,13.896-16.5,32.383-30.012,50.903" fill="none" stroke="#211ae4" stroke-width="2" stroke-miterlimit="10"/><path d="M161.258,178.076c10.757-12.471,22.728-23.382,35.569-32.726" fill="none" stroke="#211ae4" stroke-width="2" stroke-miterlimit="10"/><path d="M289.452,683.897c-.41-.125-.822-.246-1.23-.375" fill="none" stroke="#211ae4" stroke-width="2" stroke-miterlimit="10"/><path d="M335.387,103.094c-.65-.024-1.303-.047-1.953-.065" fill="none" stroke="#211ae4" stroke-width="2" stroke-miterlimit="10"/><path d="M343.465,103.545c-1.385-.101-2.77-.194-4.152-.269" fill="none" stroke="#211ae4" stroke-width="2" stroke-miterlimit="10"/><polyline points="327.581,102.938 327.579,102.938 327.579,102.938" fill="none" stroke="#211ae4" stroke-width="2" stroke-miterlimit="10"/><path d="M545.01,380.319c2.957-22.826,3.645-44.211,2.369-64.166" fill="none" stroke="#211ae4" stroke-width="2" stroke-miterlimit="10"/><path d="M321.646,103.031c1.98-.055,3.959-.092,5.932-.092" fill="none" stroke="#211ae4" stroke-width="2" stroke-miterlimit="10"/><path d="M493.9,178.076c8.553,9.913,16.346,20.797,23.172,32.699c16.688,29.104,27.676,64.201,30.307,105.378" fill="none" stroke="#211ae4" stroke-width="2" stroke-miterlimit="10"/><path d="M289.179,106.351c-1.233.218-2.465.443-3.697.682" fill="none" stroke="#211ae4" stroke-width="2" stroke-miterlimit="10"/><path d="M289.452,683.897c1.657.505,3.332.979,5.023,1.42" fill="none" stroke="#211ae4" stroke-width="2" stroke-miterlimit="10"/><path d="M109.842,377.892c5.852,47.565,21.591,101.438,50.01,161.727" fill="none" stroke="#211ae4" stroke-width="2" stroke-miterlimit="10"/><path d="M266.087,674.32c.13.067.261.134.391.201" fill="none" stroke="#211ae4" stroke-width="2" stroke-miterlimit="10"/><path d="M271.155,676.83c4.272,2.013,8.675,3.823,13.21,5.407" fill="none" stroke="#211ae4" stroke-width="2" stroke-miterlimit="10"/><path d="M266.614,674.591c-.006-.002-.012-.006-.018-.008" fill="none" stroke="#211ae4" stroke-width="2" stroke-miterlimit="10"/><line x1="159.88" y1="539.679" x2="159.88" y2="539.679" fill="none" stroke="#211ae4" stroke-width="2" stroke-miterlimit="10"/><path d="M267.519,675.056c-.303-.153-.603-.309-.904-.465" fill="none" stroke="#211ae4" stroke-width="2" stroke-miterlimit="10"/><path d="M107.958,313.532c-.024.326-.045.654-.067.98" fill="none" stroke="#211ae4" stroke-width="2" stroke-miterlimit="10"/><path d="M267.519,675.056c1.141.577,2.291,1.139,3.451,1.687" fill="none" stroke="#211ae4" stroke-width="2" stroke-miterlimit="10"/><path d="M285.381,682.589c.942.32,1.888.634,2.841.934" fill="none" stroke="#211ae4" stroke-width="2" stroke-miterlimit="10"/><path d="M159.852,539.618c.01.021.02.04.028.061" fill="none" stroke="#211ae4" stroke-width="2" stroke-miterlimit="10"/><path d="M159.88,539.679c.1.211.194.419.294.629l.012.023.009.027-.473.162c.473-.162.473-.162.473-.16l.002.004.008.02.027.08c.024.07.062.178.112.318.099.281.25.699.451,1.244.401,1.092,1.008,2.695,1.819,4.734c1.625,4.082,4.078,9.912,7.385,16.912c6.565,13.896,16.5,32.383,30.012,50.903" fill="none" stroke="#211ae4" stroke-width="2" stroke-miterlimit="10"/><path d="M200.512,615.264c-.065-.09-.134-.179-.199-.269-.103-.14-.2-.279-.302-.419" fill="none" stroke="#211ae4" stroke-width="2" stroke-miterlimit="10"/><path d="M266.087,674.32c-27.353-14.237-49.088-36.605-65.575-59.057" fill="none" stroke="#211ae4" stroke-width="2" stroke-miterlimit="10"/><path d="M621.703,274.993c.191-.548.387-1.094.572-1.645.053-.152.096-.299.145-.452.703-2.083,1.363-4.187,2-6.298.182-.598.357-1.192.533-1.789.6-2.044,1.172-4.098,1.715-6.162.064-.245.135-.483.197-.729.588-2.281,1.137-4.58,1.654-6.891.133-.595.264-1.188.391-1.784.412-1.916.803-3.845,1.17-5.78.088-.479.186-.959.275-1.438.42-2.333.807-4.675,1.156-7.027.082-.537.152-1.078.23-1.621.271-1.931.521-3.875.744-5.826.068-.601.139-1.195.205-1.799.254-2.385.479-4.78.656-7.191.029-.389.049-.779.072-1.168.145-2.08.258-4.164.344-6.26.027-.659.055-1.313.078-1.976.078-2.454.131-4.92.131-7.393C633.979,112.862,582.121,36.078,507.004,0C458.088,23.493,419.043,64.251,397.75,114.373" fill="none" stroke="#211ae4" stroke-width="2" stroke-miterlimit="10"/><path d="M108.936,377.167c.304.24.602.486.906.725" fill="none" stroke="#211ae4" stroke-width="2" stroke-miterlimit="10"/><path d="M544.434,380.748c.191-.144.385-.284.576-.429" fill="none" stroke="#211ae4" stroke-width="2" stroke-miterlimit="10"/><path d="M397.75,114.373c-.021.053-.045.104-.066.157" fill="none" stroke="#211ae4" stroke-width="2" stroke-miterlimit="10"/><path d="M280.887,423.011c-.118.018-.235.037-.354.055" fill="none" stroke="#211ae4" stroke-width="2" stroke-miterlimit="10"/><path d="M373.676,422.481c-.15-.024-.301-.05-.453-.074" fill="none" stroke="#211ae4" stroke-width="2" stroke-miterlimit="10"/><path d="M259.92,113.576c-.005-.011-.01-.022-.015-.033" fill="none" stroke="#211ae4" stroke-width="2" stroke-miterlimit="10"/><path d="M35.31,272.037c-.595-1.804-1.175-3.616-1.727-5.438-.178-.598-.357-1.193-.533-1.789-.596-2.044-1.173-4.098-1.714-6.162-.065-.244-.133-.482-.198-.729-.588-2.281-1.133-4.58-1.656-6.891-.132-.595-.257-1.188-.385-1.784-.416-1.916-.807-3.845-1.173-5.78-.089-.479-.187-.959-.272-1.438-.424-2.333-.811-4.675-1.161-7.027-.081-.537-.151-1.078-.226-1.621-.272-1.931-.521-3.875-.747-5.826-.066-.601-.141-1.195-.207-1.799-.253-2.385-.475-4.78-.654-7.191-.031-.389-.047-.779-.074-1.168-.145-2.08-.257-4.164-.344-6.26-.026-.658-.054-1.313-.072-1.976-.082-2.454-.137-4.92-.137-7.393C24.029,112.862,75.892,36.078,151.004,0c48.647,23.363,87.531,63.802,108.901,113.543" fill="none" stroke="#211ae4" stroke-width="2" stroke-miterlimit="10"/><path d="M373.109,422.387c.039.006.076.014.113.021" fill="none" stroke="#211ae4" stroke-width="2" stroke-miterlimit="10"/><path d="M108.936,377.167c-.376-.299-.749-.599-1.123-.898" fill="none" stroke="#211ae4" stroke-width="2" stroke-miterlimit="10"/><path d="M110.059,378.065c-.073-.058-.144-.117-.217-.174" fill="none" stroke="#211ae4" stroke-width="2" stroke-miterlimit="10"/><path d="M5.92,341.314c.318-1.353.645-2.7.987-4.043" fill="none" stroke="#211ae4" stroke-width="2" stroke-miterlimit="10"/><path d="M199.422,614.509c.196.021.392.047.589.067" fill="none" stroke="#211ae4" stroke-width="2" stroke-miterlimit="10"/><path d="M349.344,599.942c.082.033.166.067.248.1" fill="none" stroke="#211ae4" stroke-width="2" stroke-miterlimit="10"/><path d="M7.194,336.162c-.097.37-.192.739-.287,1.109" fill="none" stroke="#211ae4" stroke-width="2" stroke-miterlimit="10"/><path d="M493.9,178.076c53.652,15.468,98.994,50.521,127.803,96.917" fill="none" stroke="#211ae4" stroke-width="2" stroke-miterlimit="10"/><path d="M8.629,330.912c-.156.55-.308,1.102-.461,1.652" fill="none" stroke="#211ae4" stroke-width="2" stroke-miterlimit="10"/><path d="M493.9,178.076c-.373-.108-.746-.221-1.121-.326" fill="none" stroke="#211ae4" stroke-width="2" stroke-miterlimit="10"/><path d="M621.703,274.993c21.199,34.144,33.455,74.422,33.455,117.568c0,63.805-26.775,121.352-69.695,162.03" fill="none" stroke="#211ae4" stroke-width="2" stroke-miterlimit="10"/><path d="M161.034,178.143c.075-.021.148-.045.224-.066" fill="none" stroke="#211ae4" stroke-width="2" stroke-miterlimit="10"/><line x1="8.629" y1="330.912" x2="8.633" y2="330.902" fill="none" stroke="#211ae4" stroke-width="2" stroke-miterlimit="10"/><path d="M35.31,272.037c28.84-44.868,73.313-78.725,125.725-93.895" fill="none" stroke="#211ae4" stroke-width="2" stroke-miterlimit="10"/><path d="M198.072,614.354C108.134,604.274,34.367,540.758,9.246,456.286" fill="none" stroke="#211ae4" stroke-width="2" stroke-miterlimit="10"/><path d="M454.176,614.672c.324-.032.648-.062.971-.096" fill="none" stroke="#211ae4" stroke-width="2" stroke-miterlimit="10"/><path d="M35.31,272.037c-11.579,18.014-20.636,37.802-26.677,58.865" fill="none" stroke="#211ae4" stroke-width="2" stroke-miterlimit="10"/><path d="M585.463,554.592c-34.738,32.923-80.049,54.794-130.316,59.984" fill="none" stroke="#211ae4" stroke-width="2" stroke-miterlimit="10"/><path d="M200.765,614.652c-.252-.024-.503-.05-.754-.076" fill="none" stroke="#211ae4" stroke-width="2" stroke-miterlimit="10"/><path d="M350.27,600.315c-.227-.09-.451-.183-.678-.273" fill="none" stroke="#211ae4" stroke-width="2" stroke-miterlimit="10"/><path d="M5.92,341.314C2.055,357.771,0,374.926,0,392.562c0,22.145,3.24,43.53,9.246,63.725" fill="none" stroke="#211ae4" stroke-width="2" stroke-miterlimit="10"/><path d="M198.072,614.354c.45.051.898.106,1.35.154" fill="none" stroke="#211ae4" stroke-width="2" stroke-miterlimit="10"/><path d="M7.194,336.162c.313-1.204.641-2.401.974-3.598" fill="none" stroke="#211ae4" stroke-width="2" stroke-miterlimit="10"/><path d="M56.207,317.368c-16.472,2.806-32.282,7.534-47.574,13.534" fill="none" stroke="#211ae4" stroke-width="2" stroke-miterlimit="10"/><path d="M280.532,423.065c-26.904-44.565-68.841-79.088-118.711-96.357" fill="none" stroke="#211ae4" stroke-width="2" stroke-miterlimit="10"/><path d="M198.59,615.065C108.013,605.404,34.136,541.407,9.246,456.286" fill="none" stroke="#211ae4" stroke-width="2" stroke-miterlimit="10"/><path d="M312.705,537.505c-.058-10.733-.875-21.295-2.401-31.633" fill="none" stroke="#211ae4" stroke-width="2" stroke-miterlimit="10"/><path d="M199.935,615.212c-.449-.045-.896-.1-1.345-.146" fill="none" stroke="#211ae4" stroke-width="2" stroke-miterlimit="10"/><path d="M310.162,504.857c-.024-.155-.05-.311-.074-.466" fill="none" stroke="#211ae4" stroke-width="2" stroke-miterlimit="10"/><path d="M5.92,341.314c-3.864,16.599-5.699,33.847-5.699,51.712c0,21.972,3.16,43.199,9.025,63.26" fill="none" stroke="#211ae4" stroke-width="2" stroke-miterlimit="10"/><path d="M309.507,574.3c2.046-11.556,3.214-23.396,3.214-35.57c0-.409-.014-.815-.016-1.225" fill="none" stroke="#211ae4" stroke-width="2" stroke-miterlimit="10"/><path d="M105.915,315.153c.328.023.656.049.983.075" fill="none" stroke="#211ae4" stroke-width="2" stroke-miterlimit="10"/><path d="M158.326,325.537c.345.113.689.224,1.034.339" fill="none" stroke="#211ae4" stroke-width="2" stroke-miterlimit="10"/><path d="M201.269,615.331c-.252-.024-.505-.043-.757-.067" fill="none" stroke="#211ae4" stroke-width="2" stroke-miterlimit="10"/><path d="M310.162,504.857c.051.337.092.677.142,1.015" fill="none" stroke="#211ae4" stroke-width="2" stroke-miterlimit="10"/><path d="M199.935,615.212c.191.02.386.033.577.052" fill="none" stroke="#211ae4" stroke-width="2" stroke-miterlimit="10"/><polyline points="8.629,330.912 8.633,330.902 8.633,330.902" fill="none" stroke="#211ae4" stroke-width="2" stroke-miterlimit="10"/><path d="M106.911,315.229c.136.011.271.025.407.037" fill="none" stroke="#211ae4" stroke-width="2" stroke-miterlimit="10"/><line x1="106.898" y1="315.229" x2="106.911" y2="315.229" fill="none" stroke="#211ae4" stroke-width="2" stroke-miterlimit="10"/><path d="M8.168,332.564c-.336,1.196-.66,2.396-.974,3.598" fill="none" stroke="#211ae4" stroke-width="2" stroke-miterlimit="10"/><path d="M8.168,332.564c.154-.55.303-1.103.461-1.652" fill="none" stroke="#211ae4" stroke-width="2" stroke-miterlimit="10"/><path d="M56.207,317.368c10.71-1.823,21.698-2.842,33.014-2.842c5.616,0,11.183.215,16.694.627" fill="none" stroke="#211ae4" stroke-width="2" stroke-miterlimit="10"/><path d="M6.907,337.271c.095-.37.19-.739.287-1.109" fill="none" stroke="#211ae4" stroke-width="2" stroke-miterlimit="10"/><path d="M158.326,325.537c-16.088-5.271-32.97-8.758-50.418-10.218" fill="none" stroke="#211ae4" stroke-width="2" stroke-miterlimit="10"/><path d="M107.837,315.312c-.174-.015-.346-.032-.519-.046" fill="none" stroke="#211ae4" stroke-width="2" stroke-miterlimit="10"/><path d="M5.92,341.314c.315-1.353.646-2.699.987-4.043" fill="none" stroke="#211ae4" stroke-width="2" stroke-miterlimit="10"/><path d="M280.532,423.065c14.779,24.48,25.023,51.986,29.556,81.326" fill="none" stroke="#211ae4" stroke-width="2" stroke-miterlimit="10"/><path d="M161.821,326.708c-.818-.283-1.64-.559-2.461-.832" fill="none" stroke="#211ae4" stroke-width="2" stroke-miterlimit="10"/><path d="M107.908,315.319c-.024-.002-.048-.005-.071-.007" fill="none" stroke="#211ae4" stroke-width="2" stroke-miterlimit="10"/><path d="M345.828,492.608c5.295-25.202,14.836-48.84,27.848-70.127" fill="none" stroke="#211ae4" stroke-width="2" stroke-miterlimit="10"/><path d="M546.98,316.181c-73.432,5.619-136.918,46.774-173.305,106.301" fill="none" stroke="#211ae4" stroke-width="2" stroke-miterlimit="10"/><path d="M601.076,318.532c15.729,2.58,30.941,6.768,45.232,12.37c5.734,19.763,8.412,40.492,8.412,62.124c0,63.529-26.602,120.889-69.258,161.565" fill="none" stroke="#211ae4" stroke-width="2" stroke-miterlimit="10"/><path d="M601.076,318.532c-12.035-1.975-24.371-3.011-36.826-3.011-5.676,0-11.301.216-16.871.632" fill="none" stroke="#211ae4" stroke-width="2" stroke-miterlimit="10"/><path d="M345.828,492.608c-.135.641-.27,1.281-.398,1.925" fill="none" stroke="#211ae4" stroke-width="2" stroke-miterlimit="10"/><path d="M349.592,600.042c-5.553-19.484-8.547-40.046-8.547-61.312c0-15.053,1.5-29.754,4.342-43.971" fill="none" stroke="#211ae4" stroke-width="2" stroke-miterlimit="10"/><path d="M453.775,615.22c.326-.032.652-.069.98-.104" fill="none" stroke="#211ae4" stroke-width="2" stroke-miterlimit="10"/><path d="M345.387,494.759c.014-.075.027-.15.043-.226" fill="none" stroke="#211ae4" stroke-width="2" stroke-miterlimit="10"/><path d="M454.756,615.116c50.436-5.273,95.912-27.346,130.707-60.524" fill="none" stroke="#211ae4" stroke-width="2" stroke-miterlimit="10"/><path d="M547.379,316.153c-.133.01-.266.018-.398.027" fill="none" stroke="#211ae4" stroke-width="2" stroke-miterlimit="10"/><path d="M350.541,601.247c-.227-.088-.457-.17-.684-.26-.09-.313-.176-.63-.266-.945" fill="none" stroke="#211ae4" stroke-width="2" stroke-miterlimit="10"/><path d="M106.956,314.449c-.001.018-.002.036-.003.054" fill="none" stroke="#211ae4" stroke-width="2" stroke-miterlimit="10"/><line x1="106.956" y1="314.448" x2="106.956" y2="314.449" fill="none" stroke="#211ae4" stroke-width="2" stroke-miterlimit="10"/><path d="M266.548,674.679c-27.837-14.189-49.908-36.793-66.613-59.467" fill="none" stroke="#211ae4" stroke-width="2" stroke-miterlimit="10"/><path d="M106.898,315.446c.005-.071.008-.145.013-.217" fill="none" stroke="#211ae4" stroke-width="2" stroke-miterlimit="10"/><path d="M106.953,314.503c-.017.24-.026.486-.042.727" fill="none" stroke="#211ae4" stroke-width="2" stroke-miterlimit="10"/><path d="M159.31,539.874c0,0,12.787,37.297,40.112,74.635" fill="none" stroke="#211ae4" stroke-width="2" stroke-miterlimit="10"/><path d="M108.936,377.167c-2.683-21.902-3.271-42.473-2.037-61.721" fill="none" stroke="#211ae4" stroke-width="2" stroke-miterlimit="10"/><path d="M159.31,539.874c-28.674-60.672-44.516-114.866-50.374-162.707" fill="none" stroke="#211ae4" stroke-width="2" stroke-miterlimit="10"/><path d="M199.422,614.509c.172.234.34.469.513.703" fill="none" stroke="#211ae4" stroke-width="2" stroke-miterlimit="10"/><line x1="266.548" y1="674.679" x2="266.548" y2="674.679" fill="none" stroke="#211ae4" stroke-width="2" stroke-miterlimit="10"/><path d="M110.059,378.065c-2.737-21.871-3.387-42.405-2.216-61.616" fill="none" stroke="#211ae4" stroke-width="2" stroke-miterlimit="10"/><line x1="266.597" y1="674.583" x2="266.604" y2="674.567" fill="none" stroke="#211ae4" stroke-width="2" stroke-miterlimit="10"/><line x1="266.597" y1="674.583" x2="266.548" y2="674.679" fill="none" stroke="#211ae4" stroke-width="2" stroke-miterlimit="10"/><path d="M198.072,614.354c.172.236.344.474.518.711" fill="none" stroke="#211ae4" stroke-width="2" stroke-miterlimit="10"/><path d="M107.843,316.449c.019-.304.033-.611.053-.915" fill="none" stroke="#211ae4" stroke-width="2" stroke-miterlimit="10"/><path d="M107.919,315.125c-.004.064-.007.13-.011.194" fill="none" stroke="#211ae4" stroke-width="2" stroke-miterlimit="10"/><path d="M107.896,315.534c.005-.071.008-.144.013-.215" fill="none" stroke="#211ae4" stroke-width="2" stroke-miterlimit="10"/><line x1="107.302" y1="314.473" x2="106.989" y2="314.451" fill="none" stroke="#211ae4" stroke-width="2" stroke-miterlimit="10"/><path d="M107.891,314.513l.063.004c0,.006-.001.013-.001.02" fill="none" stroke="#211ae4" stroke-width="2" stroke-miterlimit="10"/><path d="M159.911,539.669c.1-.035.177-.061.227-.078" fill="none" stroke="#211ae4" stroke-width="2" stroke-miterlimit="10"/><path d="M266.604,674.567l.397-.779c-.248-.126-.49-.26-.736-.388" fill="none" stroke="#211ae4" stroke-width="2" stroke-miterlimit="10"/><line x1="160.232" y1="539.559" x2="160.244" y2="539.554" fill="none" stroke="#211ae4" stroke-width="2" stroke-miterlimit="10"/><line x1="160.244" y1="539.554" x2="160.232" y2="539.559" fill="none" stroke="#211ae4" stroke-width="2" stroke-miterlimit="10"/><line x1="160.138" y1="539.591" x2="160.232" y2="539.559" fill="none" stroke="#211ae4" stroke-width="2" stroke-miterlimit="10"/><line x1="159.88" y1="539.679" x2="159.911" y2="539.669" fill="none" stroke="#211ae4" stroke-width="2" stroke-miterlimit="10"/><path d="M160.232,539.559c-.017.005-.043.015-.095.032" fill="none" stroke="#211ae4" stroke-width="2" stroke-miterlimit="10"/><line x1="106.989" y1="314.451" x2="106.957" y2="314.449" fill="none" stroke="#211ae4" stroke-width="2" stroke-miterlimit="10"/><line x1="106.956" y1="314.449" x2="106.956" y2="314.449" fill="none" stroke="#211ae4" stroke-width="2" stroke-miterlimit="10"/><path d="M200.765,614.652c-5.477-7.431-10.379-14.873-14.717-22.034-8.755-14.449-15.207-27.725-19.469-37.387-2.131-4.83-3.713-8.756-4.762-11.473-.525-1.357-.916-2.412-1.177-3.127-.129-.357-.226-.629-.291-.811-.032-.092-.056-.16-.071-.205-.008-.023-.014-.041-.018-.051-.002-.006-.003-.01-.004-.012s-.001-.002-.001-.004" fill="none" stroke="#211ae4" stroke-width="2" stroke-miterlimit="10"/><line x1="160.214" y1="539.446" x2="159.852" y2="539.618" fill="none" stroke="#211ae4" stroke-width="2" stroke-miterlimit="10"/><polyline points="160.256,539.55 160.237,539.497 160.214,539.446" fill="none" stroke="#211ae4" stroke-width="2" stroke-miterlimit="10"/><line x1="160.244" y1="539.554" x2="160.256" y2="539.55" fill="none" stroke="#211ae4" stroke-width="2" stroke-miterlimit="10"/><line x1="160.138" y1="539.591" x2="159.911" y2="539.669" fill="none" stroke="#211ae4" stroke-width="2" stroke-miterlimit="10"/><line x1="106.957" y1="314.449" x2="106.956" y2="314.449" fill="none" stroke="#211ae4" stroke-width="2" stroke-miterlimit="10"/><path d="M265.896,673.206c.123.064.246.131.37.194" fill="none" stroke="#211ae4" stroke-width="2" stroke-miterlimit="10"/><path d="M201.547,615.702c16.317,21.92,37.653,43.604,64.349,57.504" fill="none" stroke="#211ae4" stroke-width="2" stroke-miterlimit="10"/><line x1="159.31" y1="539.874" x2="159.852" y2="539.618" fill="none" stroke="#211ae4" stroke-width="2" stroke-miterlimit="10"/><path d="M107.919,315.125c.013-.195.021-.394.034-.589" fill="none" stroke="#211ae4" stroke-width="2" stroke-miterlimit="10"/><path d="M159.88,539.679c.012-.004.021-.007.031-.01" fill="none" stroke="#211ae4" stroke-width="2" stroke-miterlimit="10"/><line x1="107.891" y1="314.513" x2="107.302" y2="314.473" fill="none" stroke="#211ae4" stroke-width="2" stroke-miterlimit="10"/><line x1="159.31" y1="539.874" x2="159.824" y2="539.698" fill="none" stroke="#211ae4" stroke-width="2" stroke-miterlimit="10"/><path d="M201.269,615.331c.092.123.186.248.278.371" fill="none" stroke="#211ae4" stroke-width="2" stroke-miterlimit="10"/><path d="M160.256,539.55c0,0-.002.001-.012.004" fill="none" stroke="#211ae4" stroke-width="2" stroke-miterlimit="10"/><path d="M159.824,539.698c.02-.007.038-.014.056-.02" fill="none" stroke="#211ae4" stroke-width="2" stroke-miterlimit="10"/><path d="M200.765,614.652c.167.227.336.452.504.679" fill="none" stroke="#211ae4" stroke-width="2" stroke-miterlimit="10"/><path d="M159.31,539.874c.221-.075.385-.131.515-.176" fill="none" stroke="#211ae4" stroke-width="2" stroke-miterlimit="10"/><line x1="159.88" y1="539.679" x2="159.824" y2="539.698" fill="none" stroke="#211ae4" stroke-width="2" stroke-miterlimit="10"/><path d="M350.541,601.247c-.092-.311-.18-.621-.271-.932" fill="none" stroke="#211ae4" stroke-width="2" stroke-miterlimit="10"/><path d="M544.434,380.748c3.035-22.971,3.785-44.49,2.547-64.567" fill="none" stroke="#211ae4" stroke-width="2" stroke-miterlimit="10"/><path d="M345.43,494.533c.125-.645.268-1.283.398-1.925" fill="none" stroke="#211ae4" stroke-width="2" stroke-miterlimit="10"/><path d="M544.434,380.748c-6.199,46.884-21.932,99.812-49.863,158.911l-.012.025-.01.027.473.162c-.473-.162-.473-.162-.473-.16v.002l-.004.012-.02.053c-.016.045-.041.115-.072.207-.064.184-.162.457-.291.816-.262.717-.654,1.775-1.18,3.137-1.053,2.721-2.637,6.654-4.771,11.492-4.268,9.678-10.729,22.975-19.496,37.447-4.291,7.08-9.135,14.439-14.539,21.792" fill="none" stroke="#211ae4" stroke-width="2" stroke-miterlimit="10"/><path d="M453.775,615.22c.135-.183.268-.365.4-.548" fill="none" stroke="#211ae4" stroke-width="2" stroke-miterlimit="10"/><path d="M453.4,615.722c.123-.168.25-.334.375-.502" fill="none" stroke="#211ae4" stroke-width="2" stroke-miterlimit="10"/><path d="M350.27,600.315c-5.834-19.924-8.975-40.998-8.975-62.811c0-14.619,1.408-28.911,4.092-42.746" fill="none" stroke="#211ae4" stroke-width="2" stroke-miterlimit="10"/><path d="M382.365,408.466c-3.213,4.527-6.268,9.174-9.143,13.941" fill="none" stroke="#211ae4" stroke-width="2" stroke-miterlimit="10"/><path d="M546.977,316.085c.002.031.002.063.004.096" fill="none" stroke="#211ae4" stroke-width="2" stroke-miterlimit="10"/><path d="M373.223,422.407c-12.863,21.332-22.246,44.995-27.395,70.201" fill="none" stroke="#211ae4" stroke-width="2" stroke-miterlimit="10"/><path d="M345.43,494.533c-.016.075-.029.149-.043.226" fill="none" stroke="#211ae4" stroke-width="2" stroke-miterlimit="10"/><path d="M350.541,601.247c.027.088.051.176.078.263" fill="none" stroke="#211ae4" stroke-width="2" stroke-miterlimit="10"/><path d="" fill="none" stroke="#211ae4" stroke-width="2" stroke-miterlimit="10"/><path d="M453.4,615.722c-16.527,22.259-38.225,44.337-65.471,58.322" fill="none" stroke="#211ae4" stroke-width="2" stroke-miterlimit="10"/><line x1="266.625" y1="674.577" x2="266.614" y2="674.591" fill="none" stroke="#211ae4" stroke-width="2" stroke-miterlimit="10"/><line x1="266.548" y1="674.679" x2="266.548" y2="674.679" fill="none" stroke="#211ae4" stroke-width="2" stroke-miterlimit="10"/><path d="M266.614,674.591c-.021.029-.044.059-.066.088" fill="none" stroke="#211ae4" stroke-width="2" stroke-miterlimit="10"/><line x1="106.956" y1="314.448" x2="106.957" y2="314.448" fill="none" stroke="#211ae4" stroke-width="2" stroke-miterlimit="10"/><path d="M107.953,314.536c-.021-.002-.042-.004-.063-.006" fill="none" stroke="#211ae4" stroke-width="2" stroke-miterlimit="10"/><path d="M107.89,314.53c-.196-.016-.392-.037-.588-.052" fill="none" stroke="#211ae4" stroke-width="2" stroke-miterlimit="10"/><path d="M106.989,314.451c-.011-.001-.021-.002-.032-.003" fill="none" stroke="#211ae4" stroke-width="2" stroke-miterlimit="10"/><path d="M106.989,314.451c.104.008.208.02.312.027" fill="none" stroke="#211ae4" stroke-width="2" stroke-miterlimit="10"/><line x1="107.419" y1="315.492" x2="107.318" y2="315.267" fill="none" stroke="#211ae4" stroke-width="2" stroke-miterlimit="10"/><line x1="107.843" y1="316.449" x2="107.771" y2="316.286" fill="none" stroke="#211ae4" stroke-width="2" stroke-miterlimit="10"/><line x1="266.086" y1="673.636" x2="265.896" y2="673.206" fill="none" stroke="#211ae4" stroke-width="2" stroke-miterlimit="10"/><line x1="107.318" y1="315.267" x2="106.957" y2="314.45" fill="none" stroke="#211ae4" stroke-width="2" stroke-miterlimit="10"/><line x1="107.419" y1="315.492" x2="107.771" y2="316.286" fill="none" stroke="#211ae4" stroke-width="2" stroke-miterlimit="10"/><line x1="266.467" y1="674.497" x2="266.478" y2="674.521" fill="none" stroke="#211ae4" stroke-width="2" stroke-miterlimit="10"/><line x1="106.956" y1="314.449" x2="106.957" y2="314.45" fill="none" stroke="#211ae4" stroke-width="2" stroke-miterlimit="10"/><line x1="266.478" y1="674.521" x2="266.548" y2="674.679" fill="none" stroke="#211ae4" stroke-width="2" stroke-miterlimit="10"/><line x1="266.548" y1="674.679" x2="266.548" y2="674.679" fill="none" stroke="#211ae4" stroke-width="2" stroke-miterlimit="10"/><line x1="106.956" y1="314.448" x2="106.956" y2="314.449" fill="none" stroke="#211ae4" stroke-width="2" stroke-miterlimit="10"/><line x1="266.086" y1="673.636" x2="266.467" y2="674.497" fill="none" stroke="#211ae4" stroke-width="2" stroke-miterlimit="10"/><path d="M310.304,505.872c-.048-.338-.093-.678-.142-1.015" fill="none" stroke="#211ae4" stroke-width="2" stroke-miterlimit="10"/><path d="M280.887,423.011c14.693,24.465,24.819,51.984,29.201,81.381" fill="none" stroke="#211ae4" stroke-width="2" stroke-miterlimit="10"/><line x1="266.548" y1="674.679" x2="266.548" y2="674.679" fill="none" stroke="#211ae4" stroke-width="2" stroke-miterlimit="10"/><path d="M310.088,504.392c.023.155.051.31.074.466" fill="none" stroke="#211ae4" stroke-width="2" stroke-miterlimit="10"/><path d="M309.507,574.3c-1.51,9.073-3.568,17.959-6.14,26.625" fill="none" stroke="#211ae4" stroke-width="2" stroke-miterlimit="10"/><line x1="313.213" y1="537.505" x2="312.705" y2="537.505" fill="none" stroke="#211ae4" stroke-width="2" stroke-miterlimit="10"/><path d="M310.304,505.872c1.47,10.334,2.237,20.894,2.237,31.633" fill="none" stroke="#211ae4" stroke-width="2" stroke-miterlimit="10"/><path d="M266.086,673.636c.061-.078.119-.157.18-.235" fill="none" stroke="#211ae4" stroke-width="2" stroke-miterlimit="10"/><path d="M107.382,313.481c-.117-.009-.232-.021-.35-.03l-.075.997" fill="none" stroke="#211ae4" stroke-width="2" stroke-miterlimit="10"/><path d="M266.021,674.269l-.262-.203c.11-.142.217-.287.327-.43" fill="none" stroke="#211ae4" stroke-width="2" stroke-miterlimit="10"/><path d="M303.367,600.925c-.116.393-.227.788-.345,1.18" fill="none" stroke="#211ae4" stroke-width="2" stroke-miterlimit="10"/><path d="M312.541,537.505c0,12.535-1.044,24.826-3.034,36.795" fill="none" stroke="#211ae4" stroke-width="2" stroke-miterlimit="10"/><path d="M280.887,423.011c-26.844-44.695-68.928-79.187-119.065-96.303" fill="none" stroke="#211ae4" stroke-width="2" stroke-miterlimit="10"/><line x1="266.548" y1="674.679" x2="266.548" y2="674.679" fill="none" stroke="#211ae4" stroke-width="2" stroke-miterlimit="10"/><line x1="266.087" y1="674.32" x2="266.548" y2="674.679" fill="none" stroke="#211ae4" stroke-width="2" stroke-miterlimit="10"/><path d="M267.519,675.056c-.061.078-.119.158-.181.236l-.79-.613" fill="none" stroke="#211ae4" stroke-width="2" stroke-miterlimit="10"/><line x1="266.021" y1="674.269" x2="266.087" y2="674.32" fill="none" stroke="#211ae4" stroke-width="2" stroke-miterlimit="10"/><path d="M107.896,315.534c-.024-.002-.049-.004-.074-.006" fill="none" stroke="#211ae4" stroke-width="2" stroke-miterlimit="10"/><path d="M267.519,675.056c.004-.006.008-.012.012-.017" fill="none" stroke="#211ae4" stroke-width="2" stroke-miterlimit="10"/><line x1="106.957" y1="314.45" x2="106.957" y2="314.449" fill="none" stroke="#211ae4" stroke-width="2" stroke-miterlimit="10"/><path d="M106.898,315.446c-.006,0-.011,0-.017-.001l.017-.217" fill="none" stroke="#211ae4" stroke-width="2" stroke-miterlimit="10"/><path d="M159.36,325.876c-.345-.113-.689-.227-1.034-.339" fill="none" stroke="#211ae4" stroke-width="2" stroke-miterlimit="10"/><line x1="312.541" y1="537.505" x2="312.705" y2="537.505" fill="none" stroke="#211ae4" stroke-width="2" stroke-miterlimit="10"/><path d="M159.36,325.876c.823.27,1.642.553,2.461.832" fill="none" stroke="#211ae4" stroke-width="2" stroke-miterlimit="10"/><path d="M107.896,315.534c17.455,1.401,34.344,4.81,50.431,10.003" fill="none" stroke="#211ae4" stroke-width="2" stroke-miterlimit="10"/><path d="M107.419,315.492c.135.011.268.024.402.036" fill="none" stroke="#211ae4" stroke-width="2" stroke-miterlimit="10"/><line x1="106.953" y1="314.503" x2="106.898" y2="315.229" fill="none" stroke="#211ae4" stroke-width="2" stroke-miterlimit="10"/><line x1="106.957" y1="314.448" x2="106.957" y2="314.449" fill="none" stroke="#211ae4" stroke-width="2" stroke-miterlimit="10"/><path d="M106.898,315.446c.174.014.347.032.521.046" fill="none" stroke="#211ae4" stroke-width="2" stroke-miterlimit="10"/><line x1="106.957" y1="314.45" x2="106.953" y2="314.503" fill="none" stroke="#211ae4" stroke-width="2" stroke-miterlimit="10"/><path d="M107.382,313.481c.192.016.383.035.576.051" fill="none" stroke="#211ae4" stroke-width="2" stroke-miterlimit="10"/><path d="M107.919,315.125c-.023-.001-.046-.004-.069-.006" fill="none" stroke="#211ae4" stroke-width="2" stroke-miterlimit="10"/><path d="M270.97,676.742c-.323-.153-.641-.314-.963-.47" fill="none" stroke="#211ae4" stroke-width="2" stroke-miterlimit="10"/><line x1="107.302" y1="314.473" x2="107.302" y2="314.479" fill="none" stroke="#211ae4" stroke-width="2" stroke-miterlimit="10"/><path d="M267.735,675.144c-.004.005-.007.01-.011.014.304.154.614.298.919.449" fill="none" stroke="#211ae4" stroke-width="2" stroke-miterlimit="10"/><path d="M294.476,685.317c-1.691-.442-3.366-.914-5.023-1.42" fill="none" stroke="#211ae4" stroke-width="2" stroke-miterlimit="10"/><path d="M107.302,314.479c-.015.197-.034.39-.048.587.199.016.396.037.596.054" fill="none" stroke="#211ae4" stroke-width="2" stroke-miterlimit="10"/><path d="M301.777,687.004c-.068-.014-.137-.028-.206-.042" fill="none" stroke="#211ae4" stroke-width="2" stroke-miterlimit="10"/><path d="M278.377,679.983c-.111-.045-.226-.088-.337-.133" fill="none" stroke="#211ae4" stroke-width="2" stroke-miterlimit="10"/><path d="M283.218,681.823c-.326-.117-.654-.232-.979-.353" fill="none" stroke="#211ae4" stroke-width="2" stroke-miterlimit="10"/><path d="M287.545,683.301c-.26-.084-.519-.171-.778-.256" fill="none" stroke="#211ae4" stroke-width="2" stroke-miterlimit="10"/><path d="M296.807,685.907c-.012-.002-.024-.005-.036-.008" fill="none" stroke="#211ae4" stroke-width="2" stroke-miterlimit="10"/><path d="M273.983,678.12c-.385-.171-.765-.35-1.148-.523" fill="none" stroke="#211ae4" stroke-width="2" stroke-miterlimit="10"/><path d="M270.007,676.272c-.456-.221-.91-.441-1.363-.666" fill="none" stroke="#211ae4" stroke-width="2" stroke-miterlimit="10"/><path d="M349.344,599.942c.113.399.23.798.348,1.196" fill="none" stroke="#211ae4" stroke-width="2" stroke-miterlimit="10"/><path d="M273.983,678.12c1.341.596,2.691,1.175,4.057,1.73" fill="none" stroke="#211ae4" stroke-width="2" stroke-miterlimit="10"/><path d="M278.377,679.983c1.275.515,2.563,1.009,3.861,1.487" fill="none" stroke="#211ae4" stroke-width="2" stroke-miterlimit="10"/><path d="M285.381,682.589c.46.156.924.305,1.386.456" fill="none" stroke="#211ae4" stroke-width="2" stroke-miterlimit="10"/><path d="M284.365,682.237c-.385-.135-.765-.275-1.147-.414" fill="none" stroke="#211ae4" stroke-width="2" stroke-miterlimit="10"/><path d="M271.155,676.83c.557.262,1.12.511,1.68.767" fill="none" stroke="#211ae4" stroke-width="2" stroke-miterlimit="10"/><path d="M300.44,686.733c.375.079.754.152,1.131.229" fill="none" stroke="#211ae4" stroke-width="2" stroke-miterlimit="10"/><path d="M288.222,683.522c-.227-.071-.45-.149-.677-.222" fill="none" stroke="#211ae4" stroke-width="2" stroke-miterlimit="10"/><path d="M298.259,686.247c-.484-.111-.97-.223-1.452-.34" fill="none" stroke="#211ae4" stroke-width="2" stroke-miterlimit="10"/><path d="M295.977,685.714c.263.064.53.121.794.186" fill="none" stroke="#211ae4" stroke-width="2" stroke-miterlimit="10"/><path d="M385.156,676.271c-.32.154-.637.315-.959.468" fill="none" stroke="#211ae4" stroke-width="2" stroke-miterlimit="10"/><path d="M349.344,599.942c-5.617-19.629-8.637-40.355-8.637-61.791c0-42.537,11.842-82.119,32.402-115.765" fill="none" stroke="#211ae4" stroke-width="2" stroke-miterlimit="10"/><path d="M201.789,141.859c1.596-1.091,3.202-2.159,4.821-3.203" fill="none" stroke="#211ae4" stroke-width="2" stroke-miterlimit="10"/><path d="M358.385,685.9c.264-.063.529-.12.793-.187" fill="none" stroke="#211ae4" stroke-width="2" stroke-miterlimit="10"/><path d="M373.109,422.387c2.912-4.764,6.004-9.403,9.256-13.921" fill="none" stroke="#211ae4" stroke-width="2" stroke-miterlimit="10"/><path d="M333.434,103.029c-1.953-.054-3.906-.091-5.853-.091" fill="none" stroke="#211ae4" stroke-width="2" stroke-miterlimit="10"/><path d="M346.369,103.77c-.969-.085-1.936-.152-2.904-.224" fill="none" stroke="#211ae4" stroke-width="2" stroke-miterlimit="10"/><path d="M351.105,104.24c-.041-.004-.084-.009-.125-.014" fill="none" stroke="#211ae4" stroke-width="2" stroke-miterlimit="10"/><path d="M339.312,103.276c-1.309-.072-2.617-.134-3.926-.182" fill="none" stroke="#211ae4" stroke-width="2" stroke-miterlimit="10"/><path d="M367.619,683.299c-.227.072-.449.15-.676.222" fill="none" stroke="#211ae4" stroke-width="2" stroke-miterlimit="10"/><path d="M368.381,683.048c.463-.151.928-.299,1.387-.455" fill="none" stroke="#211ae4" stroke-width="2" stroke-miterlimit="10"/><path d="M365.684,683.904c-1.627.496-3.27.959-4.93,1.395" fill="none" stroke="#211ae4" stroke-width="2" stroke-miterlimit="10"/><path d="M492.779,177.75c-26.289-30.271-59.705-51.327-95.096-63.22" fill="none" stroke="#211ae4" stroke-width="2" stroke-miterlimit="10"/><path d="M371.951,681.82c-.383.138-.762.278-1.146.413" fill="none" stroke="#211ae4" stroke-width="2" stroke-miterlimit="10"/><path d="M546.977,316.085c-67.875,5.348-127.215,40.438-164.611,92.381" fill="none" stroke="#211ae4" stroke-width="2" stroke-miterlimit="10"/><path d="M382.312,677.601c.561-.255,1.125-.504,1.68-.766" fill="none" stroke="#211ae4" stroke-width="2" stroke-miterlimit="10"/><path d="M546.977,316.085c.07-.006.141-.014.211-.02-4.014-57.963-24.643-104.043-54.408-138.315" fill="none" stroke="#211ae4" stroke-width="2" stroke-miterlimit="10"/><path d="M285.481,107.033c1.232-.239,2.465-.464,3.697-.682" fill="none" stroke="#211ae4" stroke-width="2" stroke-miterlimit="10"/><path d="M291.401,105.973c1.382-.23,2.764-.451,4.146-.655" fill="none" stroke="#211ae4" stroke-width="2" stroke-miterlimit="10"/><path d="M299.74,104.735c.868-.112,1.737-.209,2.605-.311" fill="none" stroke="#211ae4" stroke-width="2" stroke-miterlimit="10"/><path d="M208.202,137.624c1.223-.774,2.455-1.529,3.689-2.277" fill="none" stroke="#211ae4" stroke-width="2" stroke-miterlimit="10"/><path d="M305.944,104.035c.749-.075,1.498-.152,2.247-.219" fill="none" stroke="#211ae4" stroke-width="2" stroke-miterlimit="10"/><path d="M212.87,134.757c14.979-8.963,30.826-16.014,47.05-21.181" fill="none" stroke="#211ae4" stroke-width="2" stroke-miterlimit="10"/><path d="M259.92,113.576c8.067-2.57,16.227-4.677,24.419-6.313" fill="none" stroke="#211ae4" stroke-width="2" stroke-miterlimit="10"/><path d="M319.935,103.086c.57-.02,1.142-.04,1.712-.056" fill="none" stroke="#211ae4" stroke-width="2" stroke-miterlimit="10"/><path d="M333.434,103.029c.65.018,1.303.041,1.953.065" fill="none" stroke="#211ae4" stroke-width="2" stroke-miterlimit="10"/><path d="M339.312,103.276c1.383.077,2.768.166,4.152.269" fill="none" stroke="#211ae4" stroke-width="2" stroke-miterlimit="10"/><path d="M346.369,103.77c1.537.136,3.072.288,4.611.457" fill="none" stroke="#211ae4" stroke-width="2" stroke-miterlimit="10"/><path d="M313.798,103.383c.476-.03.95-.05,1.426-.077" fill="none" stroke="#211ae4" stroke-width="2" stroke-miterlimit="10"/><line x1="327.579" y1="102.938" x2="327.581" y2="102.938" fill="none" stroke="#211ae4" stroke-width="2" stroke-miterlimit="10"/><path d="M397.684,114.53c-15.297-5.14-30.961-8.57-46.578-10.291" fill="none" stroke="#211ae4" stroke-width="2" stroke-miterlimit="10"/><path d="M321.646,103.031c1.98-.055,3.959-.092,5.932-.092v0" fill="none" stroke="#211ae4" stroke-width="2" stroke-miterlimit="10"/><path d="M333.973,689.394c-.506.024-1.01.053-1.518.07" fill="none" stroke="#211ae4" stroke-width="2" stroke-miterlimit="10"/><line x1="327.583" y1="689.562" x2="327.579" y2="689.562" fill="none" stroke="#211ae4" stroke-width="2" stroke-miterlimit="10"/><path d="M327.579,689.562v0c-1.641,0-3.264-.038-4.878-.098" fill="none" stroke="#211ae4" stroke-width="2" stroke-miterlimit="10"/><path d="M338.986,689.063c-.549.048-1.102.088-1.654.129" fill="none" stroke="#211ae4" stroke-width="2" stroke-miterlimit="10"/><path d="M322.7,689.464c-.506-.018-1.008-.045-1.512-.069" fill="none" stroke="#211ae4" stroke-width="2" stroke-miterlimit="10"/><path d="M349.969,687.642c-.617.105-1.23.218-1.852.316" fill="none" stroke="#211ae4" stroke-width="2" stroke-miterlimit="10"/><path d="M358.359,685.905c-.48.117-.967.229-1.451.34" fill="none" stroke="#211ae4" stroke-width="2" stroke-miterlimit="10"/><path d="M343.74,688.575c-.422.052-.85.09-1.271.139" fill="none" stroke="#211ae4" stroke-width="2" stroke-miterlimit="10"/><path d="M107.382,313.481c-.024.332-.057.658-.08.991" fill="none" stroke="#211ae4" stroke-width="2" stroke-miterlimit="10"/><path d="M317.823,689.191c-.551-.04-1.103-.08-1.65-.128" fill="none" stroke="#211ae4" stroke-width="2" stroke-miterlimit="10"/><path d="M312.687,688.713c-.422-.048-.849-.086-1.269-.138" fill="none" stroke="#211ae4" stroke-width="2" stroke-miterlimit="10"/><path d="M307.042,687.958c-.623-.099-1.238-.211-1.856-.317" fill="none" stroke="#211ae4" stroke-width="2" stroke-miterlimit="10"/><path d="M302.596,687.169c-.274-.053-.546-.11-.818-.165" fill="none" stroke="#211ae4" stroke-width="2" stroke-miterlimit="10"/><path d="M353.385,687.003c-.273.055-.545.113-.818.166" fill="none" stroke="#211ae4" stroke-width="2" stroke-miterlimit="10"/><path d="M383.992,676.835c.068-.032.137-.064.205-.097" fill="none" stroke="#211ae4" stroke-width="2" stroke-miterlimit="10"/><path d="M353.582,686.963c.377-.076.756-.149,1.131-.229" fill="none" stroke="#211ae4" stroke-width="2" stroke-miterlimit="10"/><path d="" fill="none" stroke="#211ae4" stroke-width="2" stroke-miterlimit="10"/><path d="" fill="none" stroke="#211ae4" stroke-width="2" stroke-miterlimit="10"/><path d="M354.713,686.734c.736-.156,1.467-.321,2.195-.489" fill="none" stroke="#211ae4" stroke-width="2" stroke-miterlimit="10"/><path d="M386.51,675.608c-.449.223-.9.443-1.354.662" fill="none" stroke="#211ae4" stroke-width="2" stroke-miterlimit="10"/><path d="M359.178,685.714c.529-.131,1.051-.277,1.576-.415" fill="none" stroke="#211ae4" stroke-width="2" stroke-miterlimit="10"/><path d="M365.684,683.904c.42-.128.842-.252,1.26-.384" fill="none" stroke="#211ae4" stroke-width="2" stroke-miterlimit="10"/><path d="M369.768,682.593c.348-.119.693-.238,1.037-.359" fill="none" stroke="#211ae4" stroke-width="2" stroke-miterlimit="10"/><path d="M368.381,683.048c-.254.084-.508.169-.762.251" fill="none" stroke="#211ae4" stroke-width="2" stroke-miterlimit="10"/><path d="M358.385,685.9c-.008.002-.018.003-.025.005" fill="none" stroke="#211ae4" stroke-width="2" stroke-miterlimit="10"/><path d="M353.385,687.003c.066-.014.131-.026.197-.04" fill="none" stroke="#211ae4" stroke-width="2" stroke-miterlimit="10"/><path d="M377.113,679.853c-.102.042-.207.081-.311.123" fill="none" stroke="#211ae4" stroke-width="2" stroke-miterlimit="10"/><path d="M372.912,681.474c-.318.117-.641.23-.961.347" fill="none" stroke="#211ae4" stroke-width="2" stroke-miterlimit="10"/><path d="M382.312,677.601c-.377.173-.754.349-1.133.518" fill="none" stroke="#211ae4" stroke-width="2" stroke-miterlimit="10"/><path d="M349.969,687.642c.869-.15,1.736-.306,2.598-.473" fill="none" stroke="#211ae4" stroke-width="2" stroke-miterlimit="10"/><path d="M317.823,689.191c1.115.082,2.237.149,3.365.203" fill="none" stroke="#211ae4" stroke-width="2" stroke-miterlimit="10"/><path d="M294.476,685.317c.501.131.997.271,1.501.396" fill="none" stroke="#211ae4" stroke-width="2" stroke-miterlimit="10"/><path d="M338.986,689.063c1.168-.101,2.328-.219,3.482-.35" fill="none" stroke="#211ae4" stroke-width="2" stroke-miterlimit="10"/><path d="M343.74,688.575c1.471-.182,2.93-.389,4.377-.617" fill="none" stroke="#211ae4" stroke-width="2" stroke-miterlimit="10"/><path d="M333.973,689.394c1.125-.053,2.246-.12,3.359-.201" fill="none" stroke="#211ae4" stroke-width="2" stroke-miterlimit="10"/><path d="M372.912,681.474c1.309-.482,2.605-.979,3.891-1.498" fill="none" stroke="#211ae4" stroke-width="2" stroke-miterlimit="10"/><path d="M377.113,679.853c1.369-.557,2.723-1.137,4.066-1.734" fill="none" stroke="#211ae4" stroke-width="2" stroke-miterlimit="10"/><path d="M327.583,689.562c1.639,0,3.26-.038,4.873-.098" fill="none" stroke="#211ae4" stroke-width="2" stroke-miterlimit="10"/><path d="M284.365,682.237c.338.118.677.236,1.016.352" fill="none" stroke="#211ae4" stroke-width="2" stroke-miterlimit="10"/><path d="M288.222,683.522c.408.129.82.25,1.23.375" fill="none" stroke="#211ae4" stroke-width="2" stroke-miterlimit="10"/><path d="M270.97,676.742c.062.029.124.059.186.088" fill="none" stroke="#211ae4" stroke-width="2" stroke-miterlimit="10"/><path d="M298.259,686.247c.725.167,1.451.331,2.182.486" fill="none" stroke="#211ae4" stroke-width="2" stroke-miterlimit="10"/><path d="M196.827,145.351c.543-.395,1.088-.784,1.633-1.172" fill="none" stroke="#211ae4" stroke-width="2" stroke-miterlimit="10"/><path d="M212.87,134.757c-.327.195-.652.393-.979.59" fill="none" stroke="#211ae4" stroke-width="2" stroke-miterlimit="10"/><path d="M208.202,137.624c-.533.338-1.061.689-1.592,1.032" fill="none" stroke="#211ae4" stroke-width="2" stroke-miterlimit="10"/><path d="M285.481,107.033c-.381.074-.762.154-1.143.23" fill="none" stroke="#211ae4" stroke-width="2" stroke-miterlimit="10"/><path d="M201.789,141.859c-1.115.762-2.226,1.534-3.329,2.319" fill="none" stroke="#211ae4" stroke-width="2" stroke-miterlimit="10"/><path d="M291.401,105.973c-.741.123-1.482.247-2.223.378" fill="none" stroke="#211ae4" stroke-width="2" stroke-miterlimit="10"/><path d="M161.034,178.143c10.828-12.499,22.88-23.426,35.793-32.792" fill="none" stroke="#211ae4" stroke-width="2" stroke-miterlimit="10"/><path d="M107.382,313.481c4.236-56.634,24.498-101.684,53.652-135.339" fill="none" stroke="#211ae4" stroke-width="2" stroke-miterlimit="10"/><path d="M307.042,687.958c1.447.229,2.905.437,4.376.617" fill="none" stroke="#211ae4" stroke-width="2" stroke-miterlimit="10"/><path d="M319.935,103.086c-1.568.056-3.139.129-4.711.219" fill="none" stroke="#211ae4" stroke-width="2" stroke-miterlimit="10"/><path d="M386.51,675.608c.307-.152.619-.297.924-.451-.004-.004-.006-.009-.01-.014" fill="none" stroke="#211ae4" stroke-width="2" stroke-miterlimit="10"/><path d="M299.74,104.735c-1.397.179-2.795.376-4.192.583" fill="none" stroke="#211ae4" stroke-width="2" stroke-miterlimit="10"/><path d="M312.687,688.713c1.155.131,2.316.25,3.486.351" fill="none" stroke="#211ae4" stroke-width="2" stroke-miterlimit="10"/><path d="M302.596,687.169c.858.167,1.724.321,2.59.472" fill="none" stroke="#211ae4" stroke-width="2" stroke-miterlimit="10"/><path d="M305.944,104.035c-1.199.12-2.398.249-3.599.389" fill="none" stroke="#211ae4" stroke-width="2" stroke-miterlimit="10"/><path d="M313.798,103.383c-1.867.119-3.736.266-5.606.433" fill="none" stroke="#211ae4" stroke-width="2" stroke-miterlimit="10"/><path d="M367.619,683.299c-3.021.97-6.098,1.843-9.234,2.602" fill="none" stroke="#211ae4" stroke-width="2" stroke-miterlimit="10"/><path d="M358.359,685.905c-1.578.382-3.17.733-4.777,1.058" fill="none" stroke="#211ae4" stroke-width="2" stroke-miterlimit="10"/><path d="M268.644,675.606c-.305-.15-.604-.31-.908-.463" fill="none" stroke="#211ae4" stroke-width="2" stroke-miterlimit="10"/><path d="M353.385,687.003c.066-.014.131-.026.197-.04" fill="none" stroke="#211ae4" stroke-width="2" stroke-miterlimit="10"/><path d="M266.467,674.497c.046.023.093.047.138.07" fill="none" stroke="#211ae4" stroke-width="2" stroke-miterlimit="10"/><path d="M267.53,675.039c-.302-.153-.604-.307-.905-.462" fill="none" stroke="#211ae4" stroke-width="2" stroke-miterlimit="10"/><path d="M267.53,675.039c.068.034.137.069.205.104" fill="none" stroke="#211ae4" stroke-width="2" stroke-miterlimit="10"/><path d="M201.547,615.702c-.247-.023-.497-.039-.744-.064c16.437,22.299,38.056,44.475,65.218,58.631" fill="none" stroke="#211ae4" stroke-width="2" stroke-miterlimit="10"/><path d="M266.021,674.269c.147.078.298.151.446.229" fill="none" stroke="#211ae4" stroke-width="2" stroke-miterlimit="10"/><path d="M266.625,674.577c-.007-.003-.014-.007-.021-.01" fill="none" stroke="#211ae4" stroke-width="2" stroke-miterlimit="10"/><path d="M353.385,687.003c-8.217,1.646-16.816,2.539-25.806,2.539-8.988,0-17.585-.893-25.801-2.538" fill="none" stroke="#211ae4" stroke-width="2" stroke-miterlimit="10"/><path d="M296.771,685.899c-3.134-.758-6.207-1.63-9.226-2.599" fill="none" stroke="#211ae4" stroke-width="2" stroke-miterlimit="10"/><path d="M376.803,679.976c.104-.042.209-.081.311-.123" fill="none" stroke="#211ae4" stroke-width="2" stroke-miterlimit="10"/><path d="M367.619,683.299c.256-.082.508-.167.762-.251" fill="none" stroke="#211ae4" stroke-width="2" stroke-miterlimit="10"/><path d="M286.767,683.045c.26.085.519.172.778.256" fill="none" stroke="#211ae4" stroke-width="2" stroke-miterlimit="10"/><path d="M350.619,601.51c-.311-.121-.617-.249-.928-.371" fill="none" stroke="#211ae4" stroke-width="2" stroke-miterlimit="10"/><path d="M296.771,685.899c.012.003.024.006.036.008" fill="none" stroke="#211ae4" stroke-width="2" stroke-miterlimit="10"/><path d="M371.951,681.82c.32-.115.643-.229.961-.347" fill="none" stroke="#211ae4" stroke-width="2" stroke-miterlimit="10"/><path d="M272.835,677.597c.384.174.764.353,1.148.523" fill="none" stroke="#211ae4" stroke-width="2" stroke-miterlimit="10"/><path d="M385.156,676.271c.453-.219.904-.439,1.354-.662" fill="none" stroke="#211ae4" stroke-width="2" stroke-miterlimit="10"/><path d="M268.644,675.606c.453.225.907.445,1.363.666" fill="none" stroke="#211ae4" stroke-width="2" stroke-miterlimit="10"/><path d="M371.951,681.82c-1.182.425-2.371.835-3.57,1.228" fill="none" stroke="#211ae4" stroke-width="2" stroke-miterlimit="10"/><path d="M282.238,681.471c.325.12.653.235.979.353" fill="none" stroke="#211ae4" stroke-width="2" stroke-miterlimit="10"/><path d="M381.18,678.118c.379-.169.754-.345,1.133-.518" fill="none" stroke="#211ae4" stroke-width="2" stroke-miterlimit="10"/><path d="M278.04,679.851c.111.045.226.088.337.133" fill="none" stroke="#211ae4" stroke-width="2" stroke-miterlimit="10"/><path d="M385.156,676.271c-.941.453-1.889.896-2.844,1.33" fill="none" stroke="#211ae4" stroke-width="2" stroke-miterlimit="10"/><path d="M278.04,679.851c-1.365-.555-2.716-1.135-4.057-1.73" fill="none" stroke="#211ae4" stroke-width="2" stroke-miterlimit="10"/><path d="M381.18,678.118c-1.344.598-2.697,1.178-4.066,1.734" fill="none" stroke="#211ae4" stroke-width="2" stroke-miterlimit="10"/><path d="M387.424,675.144c-.307.154-.607.313-.914.465" fill="none" stroke="#211ae4" stroke-width="2" stroke-miterlimit="10"/><path d="M358.359,685.905c.008-.002.016-.003.025-.005" fill="none" stroke="#211ae4" stroke-width="2" stroke-miterlimit="10"/><path d="M272.835,677.597c-.948-.433-1.892-.873-2.828-1.324" fill="none" stroke="#211ae4" stroke-width="2" stroke-miterlimit="10"/><path d="M376.803,679.976c-1.285.518-2.582,1.017-3.891,1.498" fill="none" stroke="#211ae4" stroke-width="2" stroke-miterlimit="10"/><path d="M301.777,687.004c-.068-.014-.137-.028-.206-.042" fill="none" stroke="#211ae4" stroke-width="2" stroke-miterlimit="10"/><path d="M301.571,686.962c-1.602-.323-3.191-.674-4.765-1.055" fill="none" stroke="#211ae4" stroke-width="2" stroke-miterlimit="10"/><path d="M286.767,683.045c-1.191-.392-2.375-.8-3.549-1.222" fill="none" stroke="#211ae4" stroke-width="2" stroke-miterlimit="10"/><path d="M453.4,615.722c.318-.031.639-.052.957-.084-16.781,22.766-38.967,45.399-66.934,59.506" fill="none" stroke="#211ae4" stroke-width="2" stroke-miterlimit="10"/><path d="M282.238,681.471c-1.298-.478-2.585-.974-3.861-1.487" fill="none" stroke="#211ae4" stroke-width="2" stroke-miterlimit="10"/></g><g><g><path d="M178.042,333.788c-11.604,9.081-19.07,23.205-19.07,39.082c0,27.399,22.211,49.609,49.611,49.609c21.348,0,39.541-13.482,46.539-32.396-21.207-23.896-47.459-43.211-77.08-56.295Z" fill="#211ae4"/><path d="M478.172,333.564c-29.693,12.31-56.143,30.745-77.715,53.78c6.195,20.337,25.096,35.135,47.459,35.135c27.4,0,49.609-22.21,49.609-49.609c0-16.008-7.587-30.234-19.353-39.306Z" fill="#211ae4"/><g id="eaYZkU0xNgq432_tr" transform="translate(207.812996,380.787994) rotate(0)"><path d="M224.954,380.787c0,.472-.188.923-.52,1.255-.334.332-.784.519-1.254.519h-13.594v13.594c0,.47-.187.921-.52,1.254-.332.332-.783.52-1.254.52s-.922-.188-1.253-.52c-.333-.333-.521-.784-.521-1.254v-13.594h-13.593c-.47,0-.921-.187-1.254-.519-.332-.332-.519-.783-.519-1.255c0-.47.187-.921.519-1.253.333-.333.784-.52,1.254-.52h13.593v-13.594c0-.47.188-.92.521-1.254.331-.332.782-.519,1.253-.519s.922.187,1.254.519c.333.334.52.784.52,1.254v13.594h13.594c.47,0,.92.187,1.254.52.332.332.52.783.52,1.253Z" transform="translate(-207.812996,-380.787994)" fill="#fff"/></g><g id="eaYZkU0xNgq433_tr" transform="translate(448.111038,380.787994) rotate(360)"><path d="M465.252,380.787c0,.472-.188.923-.52,1.255s-.783.519-1.254.519h-13.594v13.594c0,.47-.188.921-.52,1.254-.332.332-.783.52-1.254.52s-.92-.188-1.254-.52c-.332-.333-.52-.784-.52-1.254v-13.594h-13.592c-.471,0-.922-.187-1.254-.519-.334-.332-.52-.783-.52-1.255c0-.47.186-.921.52-1.253.332-.333.783-.52,1.254-.52h13.592v-13.594c0-.47.188-.92.52-1.254.334-.332.783-.519,1.254-.519s.922.187,1.254.519c.332.334.52.784.52,1.254v13.594h13.594c.471,0,.922.187,1.254.52.332.332.52.783.52,1.253Z" transform="translate(-448.111038,-380.787994)" fill="#fff"/></g></g><path d="M307.566,576.878c-11.542-7.682-26.317-19.105-39.747-34.307.57.188,1.277.41,2.119.658c2.599.768,6.482,1.789,11.64,2.809c10.313,2.043,25.719,4.082,46.112,4.082c20.394,0,35.8-2.039,46.115-4.082c5.156-1.02,9.041-2.041,11.641-2.809.84-.248,1.547-.471,2.119-.658-13.432,15.201-28.207,26.625-39.75,34.307-5.949,3.959-11.037,6.922-14.637,8.895-1.799.986-3.226,1.725-4.204,2.217-.487.246-.862.43-1.115.551-.064.033-.121.061-.169.082-.05-.021-.105-.049-.171-.082-.253-.121-.628-.305-1.115-.551-.977-.492-2.403-1.23-4.203-2.217-3.598-1.973-8.687-4.936-14.635-8.895Z" fill="#211ae4"/><path d="M284.182,608.854c7.969,15.963,24.454,26.928,43.508,26.928c19.056,0,35.537-10.965,43.509-26.928-15.221-4.297-29.787-10.162-43.509-17.414-13.72,7.252-28.284,13.118-43.508,17.414Z" fill="#e32811"/></g></svg>