<svg width="660" height="691" viewBox="0 0 660 691" fill="none" xmlns="http://www.w3.org/2000/svg">
<path d="M161.474 540.832L161.465 540.806L161.453 540.781C91.5801 392.936 97.8843 283.597 139.367 211.249C180.857 138.888 257.601 103.412 328.858 103.412C400.116 103.412 476.861 138.888 518.351 211.249C559.834 283.597 566.138 392.936 496.262 540.781L496.251 540.806L496.242 540.832L496.715 540.994C496.242 540.832 496.241 540.833 496.241 540.834L496.239 540.839L496.233 540.858L496.205 540.938C496.18 541.009 496.143 541.115 496.093 541.256C495.993 541.537 495.843 541.955 495.642 542.501C495.24 543.592 494.634 545.195 493.822 547.235C492.197 551.316 489.745 557.147 486.438 564.147C479.824 578.146 469.793 596.809 456.125 615.469C428.779 652.803 386.945 690.035 328.858 690.035C270.773 690.035 228.939 652.803 201.592 615.469C187.924 596.809 177.893 578.146 171.278 564.147C167.971 557.147 165.519 551.316 163.894 547.235C163.082 545.195 162.476 543.592 162.074 542.501C161.873 541.955 161.722 541.537 161.623 541.256C161.573 541.115 161.535 541.009 161.511 540.938L161.483 540.858L161.476 540.839L161.474 540.834C161.474 540.833 161.474 540.832 161.001 540.994L161.474 540.832Z" fill="#F9F9F9" stroke="#111111"/>
<mask id="path-2-inside-1_307_959" fill="white" class="eyes-zooming">
<path d="M508.284 0.473389C433.166 36.5519 381.308 113.336 381.308 202.239H279.263C279.263 113.336 227.405 36.5519 152.283 0.473389C77.1703 36.5519 25.308 113.336 25.308 202.239C25.308 204.712 25.3627 207.178 25.4447 209.632C25.4639 210.294 25.4913 210.949 25.518 211.607C25.6043 213.703 25.7168 215.787 25.8615 217.867C25.8882 218.256 25.9037 218.646 25.9354 219.035C26.1149 221.446 26.3367 223.842 26.5895 226.226C26.656 226.83 26.7305 227.425 26.7964 228.025C27.0225 229.977 27.2715 231.921 27.5442 233.852C27.6181 234.394 27.6884 234.936 27.7697 235.473C28.1201 237.825 28.5064 240.167 28.9307 242.5C29.0164 242.979 29.1139 243.458 29.2034 243.937C29.5692 245.873 29.9593 247.802 30.3755 249.718C30.5041 250.314 30.6289 250.907 30.7612 251.502C31.2836 253.812 31.829 256.111 32.4166 258.393C32.4825 258.639 32.5496 258.877 32.6155 259.121C33.1565 261.186 33.7329 263.239 34.3292 265.283C34.5044 265.879 34.6839 266.475 34.8628 267.072C35.5007 269.182 36.1635 271.286 36.8611 273.37C36.912 273.523 36.958 273.67 37.0089 273.822C37.7612 276.05 38.555 278.259 39.3768 280.455C39.583 281.009 39.7942 281.559 40.0041 282.108C40.7135 283.961 41.4452 285.804 42.2012 287.631C42.3571 288.009 42.505 288.391 42.6646 288.765C43.5647 290.915 44.5033 293.046 45.4698 295.16C45.6798 295.624 45.8978 296.08 46.1121 296.539C46.9301 298.296 47.7712 300.041 48.6327 301.775C48.8619 302.235 49.0887 302.698 49.3216 303.158C50.3732 305.234 51.4522 307.295 52.5666 309.335C52.7349 309.64 52.9095 309.943 53.0772 310.251C54.0543 312.019 55.0594 313.772 56.0806 315.509C56.3644 315.992 56.6489 316.472 56.9334 316.951C59.3323 320.963 61.8574 324.89 64.4942 328.73C64.806 329.182 65.1178 329.63 65.4297 330.078C66.6527 331.834 67.8988 333.576 69.1722 335.294C69.289 335.453 69.4064 335.617 69.5225 335.773C70.9214 337.65 72.3544 339.501 73.8111 341.331C74.1192 341.725 74.4347 342.11 74.7502 342.499C76.005 344.054 77.2784 345.596 78.571 347.116C78.8282 347.415 79.0773 347.72 79.3344 348.019C80.8569 349.792 82.4074 351.537 83.9851 353.263C84.2504 353.547 84.5187 353.83 84.784 354.115C86.1512 355.595 87.5382 357.052 88.9439 358.49C89.2749 358.833 89.6098 359.178 89.9446 359.517C91.6 361.188 93.2709 362.841 94.9772 364.461C95.1021 364.577 95.227 364.691 95.3481 364.804C96.929 366.3 98.5384 367.768 100.162 369.217C100.54 369.556 100.919 369.891 101.3 370.226C104.821 373.326 108.444 376.318 112.16 379.196C112.549 379.496 112.939 379.796 113.328 380.092C115.015 381.382 116.717 382.647 118.439 383.89C118.642 384.033 118.837 384.182 119.039 384.326C120.964 385.702 122.911 387.041 124.878 388.357C125.236 388.595 125.599 388.829 125.957 389.067C127.659 390.193 129.377 391.291 131.115 392.37C131.458 392.584 131.8 392.801 132.143 393.012C134.165 394.255 136.205 395.466 138.27 396.644C138.523 396.791 138.784 396.932 139.041 397.075C140.868 398.108 142.711 399.112 144.568 400.097C144.997 400.324 145.425 400.553 145.857 400.776C176.724 416.848 211.802 425.939 249.009 425.939C277.682 425.939 305.089 420.54 330.28 410.712C355.476 420.54 382.883 425.939 411.553 425.939C448.76 425.939 483.838 416.848 514.708 400.776C515.136 400.554 515.565 400.324 515.993 400.097C517.851 399.112 519.698 398.108 521.524 397.075C521.777 396.932 522.039 396.791 522.295 396.644C524.356 395.466 526.397 394.255 528.419 393.012C528.765 392.801 529.104 392.584 529.45 392.37C531.184 391.291 532.902 390.192 534.604 389.067C534.967 388.829 535.325 388.595 535.683 388.357C537.65 387.041 539.602 385.702 541.526 384.326C541.724 384.182 541.924 384.033 542.122 383.89C543.843 382.647 545.546 381.382 547.232 380.092C547.622 379.796 548.016 379.496 548.405 379.196C552.118 376.317 555.741 373.326 559.262 370.226C559.644 369.891 560.022 369.556 560.403 369.217C562.027 367.768 563.632 366.3 565.214 364.804C565.335 364.691 565.463 364.577 565.584 364.461C567.291 362.841 568.965 361.188 570.617 359.517C570.956 359.178 571.288 358.832 571.622 358.49C573.029 357.053 574.415 355.595 575.779 354.115C576.043 353.83 576.312 353.547 576.576 353.263C578.154 351.537 579.704 349.792 581.228 348.019C581.485 347.72 581.734 347.415 581.991 347.116C583.284 345.596 584.558 344.054 585.812 342.499C586.128 342.11 586.444 341.724 586.755 341.331C588.208 339.501 589.641 337.65 591.04 335.773C591.16 335.617 591.273 335.453 591.389 335.294C592.664 333.576 593.911 331.834 595.133 330.078C595.449 329.63 595.76 329.182 596.068 328.73C598.708 324.89 601.23 320.963 603.629 316.951C603.918 316.472 604.198 315.992 604.482 315.509C605.506 313.772 606.508 312.019 607.485 310.251C607.653 309.943 607.827 309.64 607.995 309.335C609.109 307.295 610.188 305.234 611.24 303.158C611.474 302.698 611.699 302.235 611.93 301.775C612.79 300.041 613.631 298.296 614.45 296.539C614.664 296.08 614.883 295.624 615.093 295.16C616.058 293.046 616.997 290.915 617.901 288.765C618.057 288.391 618.208 288.009 618.364 287.631C619.121 285.804 619.849 283.962 620.557 282.108C620.768 281.559 620.982 281.009 621.188 280.455C622.006 278.259 622.802 276.05 623.556 273.822C623.607 273.67 623.65 273.523 623.7 273.37C624.402 271.287 625.063 269.183 625.699 267.072C625.881 266.475 626.057 265.88 626.232 265.283C626.832 263.239 627.405 261.185 627.947 259.121C628.012 258.876 628.083 258.638 628.145 258.393C628.733 256.111 629.282 253.812 629.8 251.502C629.933 250.907 630.062 250.314 630.19 249.718C630.602 247.802 630.992 245.873 631.359 243.937C631.448 243.458 631.546 242.979 631.635 242.5C632.055 240.167 632.441 237.825 632.791 235.473C632.874 234.936 632.944 234.394 633.021 233.852C633.293 231.921 633.543 229.977 633.766 228.025C633.835 227.425 633.905 226.83 633.971 226.226C634.225 223.842 634.45 221.446 634.627 219.035C634.657 218.646 634.677 218.256 634.7 217.867C634.844 215.787 634.957 213.703 635.043 211.607C635.07 210.948 635.098 210.294 635.121 209.632C635.199 207.178 635.253 204.712 635.253 202.239C635.259 113.336 583.401 36.5519 508.284 0.473389Z"/>
</mask>
<path d="M508.284 0.473389C433.166 36.5519 381.308 113.336 381.308 202.239H279.263C279.263 113.336 227.405 36.5519 152.283 0.473389C77.1703 36.5519 25.308 113.336 25.308 202.239C25.308 204.712 25.3627 207.178 25.4447 209.632C25.4639 210.294 25.4913 210.949 25.518 211.607C25.6043 213.703 25.7168 215.787 25.8615 217.867C25.8882 218.256 25.9037 218.646 25.9354 219.035C26.1149 221.446 26.3367 223.842 26.5895 226.226C26.656 226.83 26.7305 227.425 26.7964 228.025C27.0225 229.977 27.2715 231.921 27.5442 233.852C27.6181 234.394 27.6884 234.936 27.7697 235.473C28.1201 237.825 28.5064 240.167 28.9307 242.5C29.0164 242.979 29.1139 243.458 29.2034 243.937C29.5692 245.873 29.9593 247.802 30.3755 249.718C30.5041 250.314 30.6289 250.907 30.7612 251.502C31.2836 253.812 31.829 256.111 32.4166 258.393C32.4825 258.639 32.5496 258.877 32.6155 259.121C33.1565 261.186 33.7329 263.239 34.3292 265.283C34.5044 265.879 34.6839 266.475 34.8628 267.072C35.5007 269.182 36.1635 271.286 36.8611 273.37C36.912 273.523 36.958 273.67 37.0089 273.822C37.7612 276.05 38.555 278.259 39.3768 280.455C39.583 281.009 39.7942 281.559 40.0041 282.108C40.7135 283.961 41.4452 285.804 42.2012 287.631C42.3571 288.009 42.505 288.391 42.6646 288.765C43.5647 290.915 44.5033 293.046 45.4698 295.16C45.6798 295.624 45.8978 296.08 46.1121 296.539C46.9301 298.296 47.7712 300.041 48.6327 301.775C48.8619 302.235 49.0887 302.698 49.3216 303.158C50.3732 305.234 51.4522 307.295 52.5666 309.335C52.7349 309.64 52.9095 309.943 53.0772 310.251C54.0543 312.019 55.0594 313.772 56.0806 315.509C56.3644 315.992 56.6489 316.472 56.9334 316.951C59.3323 320.963 61.8574 324.89 64.4942 328.73C64.806 329.182 65.1178 329.63 65.4297 330.078C66.6527 331.834 67.8988 333.576 69.1722 335.294C69.289 335.453 69.4064 335.617 69.5225 335.773C70.9214 337.65 72.3544 339.501 73.8111 341.331C74.1192 341.725 74.4347 342.11 74.7502 342.499C76.005 344.054 77.2784 345.596 78.571 347.116C78.8282 347.415 79.0773 347.72 79.3344 348.019C80.8569 349.792 82.4074 351.537 83.9851 353.263C84.2504 353.547 84.5187 353.83 84.784 354.115C86.1512 355.595 87.5382 357.052 88.9439 358.49C89.2749 358.833 89.6098 359.178 89.9446 359.517C91.6 361.188 93.2709 362.841 94.9772 364.461C95.1021 364.577 95.227 364.691 95.3481 364.804C96.929 366.3 98.5384 367.768 100.162 369.217C100.54 369.556 100.919 369.891 101.3 370.226C104.821 373.326 108.444 376.318 112.16 379.196C112.549 379.496 112.939 379.796 113.328 380.092C115.015 381.382 116.717 382.647 118.439 383.89C118.642 384.033 118.837 384.182 119.039 384.326C120.964 385.702 122.911 387.041 124.878 388.357C125.236 388.595 125.599 388.829 125.957 389.067C127.659 390.193 129.377 391.291 131.115 392.37C131.458 392.584 131.8 392.801 132.143 393.012C134.165 394.255 136.205 395.466 138.27 396.644C138.523 396.791 138.784 396.932 139.041 397.075C140.868 398.108 142.711 399.112 144.568 400.097C144.997 400.324 145.425 400.553 145.857 400.776C176.724 416.848 211.802 425.939 249.009 425.939C277.682 425.939 305.089 420.54 330.28 410.712C355.476 420.54 382.883 425.939 411.553 425.939C448.76 425.939 483.838 416.848 514.708 400.776C515.136 400.554 515.565 400.324 515.993 400.097C517.851 399.112 519.698 398.108 521.524 397.075C521.777 396.932 522.039 396.791 522.295 396.644C524.356 395.466 526.397 394.255 528.419 393.012C528.765 392.801 529.104 392.584 529.45 392.37C531.184 391.291 532.902 390.192 534.604 389.067C534.967 388.829 535.325 388.595 535.683 388.357C537.65 387.041 539.602 385.702 541.526 384.326C541.724 384.182 541.924 384.033 542.122 383.89C543.843 382.647 545.546 381.382 547.232 380.092C547.622 379.796 548.016 379.496 548.405 379.196C552.118 376.317 555.741 373.326 559.262 370.226C559.644 369.891 560.022 369.556 560.403 369.217C562.027 367.768 563.632 366.3 565.214 364.804C565.335 364.691 565.463 364.577 565.584 364.461C567.291 362.841 568.965 361.188 570.617 359.517C570.956 359.178 571.288 358.832 571.622 358.49C573.029 357.053 574.415 355.595 575.779 354.115C576.043 353.83 576.312 353.547 576.576 353.263C578.154 351.537 579.704 349.792 581.228 348.019C581.485 347.72 581.734 347.415 581.991 347.116C583.284 345.596 584.558 344.054 585.812 342.499C586.128 342.11 586.444 341.724 586.755 341.331C588.208 339.501 589.641 337.65 591.04 335.773C591.16 335.617 591.273 335.453 591.389 335.294C592.664 333.576 593.911 331.834 595.133 330.078C595.449 329.63 595.76 329.182 596.068 328.73C598.708 324.89 601.23 320.963 603.629 316.951C603.918 316.472 604.198 315.992 604.482 315.509C605.506 313.772 606.508 312.019 607.485 310.251C607.653 309.943 607.827 309.64 607.995 309.335C609.109 307.295 610.188 305.234 611.24 303.158C611.474 302.698 611.699 302.235 611.93 301.775C612.79 300.041 613.631 298.296 614.45 296.539C614.664 296.08 614.883 295.624 615.093 295.16C616.058 293.046 616.997 290.915 617.901 288.765C618.057 288.391 618.208 288.009 618.364 287.631C619.121 285.804 619.849 283.962 620.557 282.108C620.768 281.559 620.982 281.009 621.188 280.455C622.006 278.259 622.802 276.05 623.556 273.822C623.607 273.67 623.65 273.523 623.7 273.37C624.402 271.287 625.063 269.183 625.699 267.072C625.881 266.475 626.057 265.88 626.232 265.283C626.832 263.239 627.405 261.185 627.947 259.121C628.012 258.876 628.083 258.638 628.145 258.393C628.733 256.111 629.282 253.812 629.8 251.502C629.933 250.907 630.062 250.314 630.19 249.718C630.602 247.802 630.992 245.873 631.359 243.937C631.448 243.458 631.546 242.979 631.635 242.5C632.055 240.167 632.441 237.825 632.791 235.473C632.874 234.936 632.944 234.394 633.021 233.852C633.293 231.921 633.543 229.977 633.766 228.025C633.835 227.425 633.905 226.83 633.971 226.226C634.225 223.842 634.45 221.446 634.627 219.035C634.657 218.646 634.677 218.256 634.7 217.867C634.844 215.787 634.957 213.703 635.043 211.607C635.07 210.948 635.098 210.294 635.121 209.632C635.199 207.178 635.253 204.712 635.253 202.239C635.259 113.336 583.401 36.5519 508.284 0.473389Z" fill="#F9F9F9" stroke="#111111" stroke-width="2" mask="url(#path-2-inside-1_307_959)"/>
<path d="M328.624 195.58L328.858 195.703L329.091 195.58C360.184 179.147 395.618 169.832 433.233 169.832C556.509 169.832 656.437 269.763 656.437 393.035C656.437 516.311 556.508 616.244 433.233 616.244C395.618 616.244 360.184 606.924 329.091 590.491L328.858 590.367L328.624 590.491C297.532 606.924 262.098 616.244 224.483 616.244C101.211 616.244 1.27945 516.311 1.27945 393.035C1.27945 269.764 101.212 169.832 224.483 169.832C262.098 169.832 297.532 179.147 328.624 195.58Z" fill="#F9F9F9" stroke="#111111"/>
<path opacity="0.6" d="M1.5 393.5C1.5 371.868 4.18103 351.14 9.91155 331.376C35.1477 321.475 61.7812 315 90.5 315C213.774 315 313.999 415.926 314 539.203C314 560.803 310.324 581.354 304.588 601.125C279.356 611.025 252.491 616.815 223.751 616.815C100.482 616.815 1.5 516.774 1.5 393.5Z" stroke="#111111"/>
<path opacity="0.8" d="M565.529 315.995C594.263 315.995 622.362 321.487 647.589 331.376C653.323 351.139 656 371.868 656 393.5C656 516.771 555.846 616.816 432.571 616.816C403.826 616.816 376.369 611.357 351.138 601.461C345.41 581.698 342.325 560.813 342.325 539.204C342.325 415.928 442.258 315.995 565.529 315.995Z" stroke="#111111"/>
<mask id="path-6-inside-2_307_959" fill="white">
<path d="M108.236 314.922C104.083 376.398 118.562 451.422 160.589 540.348C160.589 540.348 193.863 637.45 267.827 675.153"/>
</mask>
<path d="M108.236 314.922C104.083 376.398 118.562 451.422 160.589 540.348C160.589 540.348 193.863 637.45 267.827 675.153" fill="#F9F9F9"/>
<path d="M160.589 540.348L161.535 540.024L161.517 539.971L161.493 539.921L160.589 540.348ZM107.239 314.855C103.071 376.542 117.605 451.737 159.685 540.775L161.493 539.921C119.519 451.107 105.095 376.254 109.234 314.99L107.239 314.855ZM160.589 540.348C159.643 540.672 159.643 540.673 159.643 540.674C159.644 540.674 159.644 540.676 159.645 540.677C159.646 540.681 159.647 540.686 159.65 540.692C159.654 540.704 159.66 540.723 159.669 540.747C159.685 540.795 159.71 540.866 159.743 540.96C159.81 541.148 159.909 541.426 160.041 541.789C160.305 542.515 160.7 543.583 161.23 544.954C162.289 547.696 163.884 551.651 166.029 556.513C170.317 566.235 176.807 579.591 185.616 594.13C203.222 623.187 230.151 657.07 267.373 676.044L268.281 674.262C231.539 655.533 204.849 622.013 187.327 593.093C178.572 578.644 172.12 565.368 167.858 555.706C165.728 550.875 164.145 546.949 163.096 544.233C162.571 542.876 162.18 541.82 161.92 541.106C161.791 540.749 161.694 540.477 161.629 540.295C161.597 540.204 161.573 540.135 161.558 540.09C161.55 540.067 161.544 540.05 161.54 540.039C161.538 540.034 161.537 540.03 161.536 540.027C161.535 540.026 161.535 540.025 161.535 540.024C161.535 540.024 161.535 540.024 160.589 540.348Z" fill="#111111" mask="url(#path-6-inside-2_307_959)"/>
<mask id="path-8-inside-3_307_959" fill="white">
<path d="M108.236 314.922C104.083 376.398 118.562 451.422 160.589 540.348C160.589 540.348 193.863 637.45 267.827 675.153"/>
</mask>
<path d="M108.236 314.922C104.083 376.398 118.562 451.422 160.589 540.348C160.589 540.348 193.863 637.45 267.827 675.153" fill="#F9F9F9"/>
<path d="M160.589 540.348L161.535 540.024L161.517 539.971L161.493 539.921L160.589 540.348ZM107.239 314.855C103.071 376.542 117.605 451.737 159.685 540.775L161.493 539.921C119.519 451.107 105.095 376.254 109.234 314.99L107.239 314.855ZM160.589 540.348C159.643 540.672 159.643 540.673 159.643 540.674C159.644 540.674 159.644 540.676 159.645 540.677C159.646 540.681 159.647 540.686 159.65 540.692C159.654 540.704 159.66 540.723 159.669 540.747C159.685 540.795 159.71 540.866 159.743 540.96C159.81 541.148 159.909 541.426 160.041 541.789C160.305 542.515 160.7 543.583 161.23 544.954C162.289 547.696 163.884 551.651 166.029 556.513C170.317 566.235 176.807 579.591 185.616 594.13C203.222 623.187 230.151 657.07 267.373 676.044L268.281 674.262C231.539 655.533 204.849 622.013 187.327 593.093C178.572 578.644 172.12 565.368 167.858 555.706C165.728 550.875 164.145 546.949 163.096 544.233C162.571 542.876 162.18 541.82 161.92 541.106C161.791 540.749 161.694 540.477 161.629 540.295C161.597 540.204 161.573 540.135 161.558 540.09C161.55 540.067 161.544 540.05 161.54 540.039C161.538 540.034 161.537 540.03 161.536 540.027C161.535 540.026 161.535 540.025 161.535 540.024C161.535 540.024 161.535 540.024 160.589 540.348Z" fill="#111111" mask="url(#path-8-inside-3_307_959)"/>
<path d="M548.194 315.459C552.223 376.736 537.736 451.507 495.85 540.134L495.838 540.159L495.829 540.186L496.302 540.348C495.829 540.186 495.829 540.186 495.829 540.187L495.828 540.19L495.824 540.202L495.806 540.254C495.79 540.3 495.765 540.37 495.733 540.461C495.668 540.645 495.571 540.918 495.441 541.277C495.18 541.994 494.788 543.053 494.262 544.414C493.21 547.136 491.625 551.069 489.491 555.907C485.223 565.585 478.762 578.881 469.994 593.353C452.511 622.21 425.882 655.693 389.21 674.519C359.98 636.776 342.575 589.415 342.575 537.979C342.575 420.624 433.141 324.426 548.194 315.459Z" stroke="#111111"/>
<mask id="path-11-inside-4_307_959" fill="white">
<path d="M108.236 314.922C223.787 323.667 314.82 420.189 314.82 537.979C314.82 589.678 297.275 637.272 267.827 675.153"/>
</mask>
<path d="M108.236 314.922C223.787 323.667 314.82 420.189 314.82 537.979C314.82 589.678 297.275 637.272 267.827 675.153" fill="#F9F9F9"/>
<path d="M108.161 315.919C223.194 324.625 313.82 420.716 313.82 537.979H315.82C315.82 419.662 224.38 322.709 108.312 313.925L108.161 315.919ZM313.82 537.979C313.82 589.448 296.354 636.827 267.038 674.539L268.617 675.767C298.196 637.716 315.82 589.908 315.82 537.979H313.82Z" fill="#111111" mask="url(#path-11-inside-4_307_959)"/>
<mask id="path-13-inside-5_307_959" fill="white">
<path d="M108.236 314.922C223.787 323.667 314.82 420.189 314.82 537.979C314.82 589.678 297.275 637.272 267.827 675.153"/>
</mask>
<path d="M108.236 314.922C223.787 323.667 314.82 420.189 314.82 537.979C314.82 589.678 297.275 637.272 267.827 675.153" fill="#F9F9F9"/>
<path d="M108.161 315.919C223.194 324.625 313.82 420.716 313.82 537.979H315.82C315.82 419.662 224.38 322.709 108.312 313.925L108.161 315.919ZM313.82 537.979C313.82 589.448 296.354 636.827 267.038 674.539L268.617 675.767C298.196 637.716 315.82 589.908 315.82 537.979H313.82Z" fill="#111111" mask="url(#path-13-inside-5_307_959)"/>
<path d="M261.563 372.344C261.563 399.743 239.352 421.953 211.952 421.953C184.552 421.953 162.341 399.743 162.341 372.344C162.341 344.943 184.552 322.732 211.952 322.732C239.352 322.732 261.563 344.943 261.563 372.344Z" fill="#211AE4"/>
<path d="M498.895 372.344C498.895 399.743 476.686 421.953 449.285 421.953C421.886 421.953 399.675 399.743 399.675 372.344C399.675 344.943 421.886 322.732 449.285 322.732C476.686 322.732 498.895 344.943 498.895 372.344Z" fill="#211AE4"/>
<path d="M548.467 316.539C432.898 325.538 341.987 420.74 341.987 538.626C341.987 590.223 359.424 637.743 388.714 675.631C371.096 684.519 351.186 690.035 328.857 690.035C306.533 690.035 286.622 684.519 269.004 675.631C298.29 637.736 314.5 590.214 314.5 538.626C314.5 420.745 224.106 324.541 108.533 315.539C118.391 173.113 229.298 103.412 328.857 103.412C428.417 103.412 538.606 174.106 548.467 316.539Z" fill="#F9F9F9" stroke="#111111"/>
<path d="M308.734 577.352C297.192 569.67 282.417 558.247 268.987 543.046C269.558 543.233 270.265 543.455 271.107 543.704C273.705 544.471 277.589 545.493 282.746 546.513C293.06 548.555 308.465 550.594 328.858 550.594C349.252 550.594 364.659 548.555 374.973 546.513C380.13 545.493 384.014 544.471 386.613 543.704C387.454 543.455 388.161 543.233 388.732 543.046C375.301 558.247 360.525 569.67 348.982 577.352C343.033 581.311 337.945 584.274 334.346 586.247C332.547 587.233 331.12 587.972 330.143 588.463C329.655 588.709 329.28 588.893 329.027 589.015C328.963 589.047 328.906 589.074 328.858 589.097C328.809 589.074 328.753 589.047 328.688 589.015C328.435 588.893 328.06 588.709 327.572 588.463C326.596 587.972 325.169 587.233 323.369 586.247C319.771 584.274 314.683 581.311 308.734 577.352Z" fill="#111111" stroke="#111111"/>
<path d="M224.483 617.224C262.171 617.224 297.682 607.908 328.858 591.479C360.034 607.908 395.545 617.224 433.233 617.224C440.794 617.224 448.267 616.841 455.637 616.111C428.283 653.22 386.602 690.016 328.858 690.016C271.116 690.016 229.434 653.22 202.082 616.112C209.45 616.841 216.921 617.224 224.483 617.224Z" fill="#F9F9F9" stroke="#111111"/>
<path d="M285.351 609.329C293.32 625.291 309.805 636.257 328.858 636.257C347.914 636.257 364.394 625.292 372.368 609.329C357.146 605.032 342.581 599.166 328.858 591.914C315.139 599.166 300.574 605.032 285.351 609.329Z" fill="#E32811"/>
<path fill-rule="evenodd" clip-rule="evenodd" d="M228.322 380.261C228.322 380.732 228.135 381.183 227.803 381.515C227.47 381.848 227.019 382.034 226.549 382.034H212.955V395.628C212.955 396.098 212.769 396.549 212.436 396.882C212.104 397.214 211.653 397.401 211.182 397.401C210.712 397.401 210.261 397.214 209.929 396.882C209.596 396.549 209.409 396.098 209.409 395.628V382.034H195.816C195.346 382.034 194.895 381.848 194.562 381.515C194.23 381.183 194.043 380.732 194.043 380.261C194.043 379.791 194.23 379.34 194.562 379.008C194.895 378.675 195.346 378.488 195.816 378.488H209.409V364.895C209.409 364.425 209.596 363.974 209.929 363.641C210.261 363.309 210.712 363.122 211.182 363.122C211.653 363.122 212.104 363.309 212.436 363.641C212.769 363.974 212.955 364.425 212.955 364.895V378.488H226.549C227.019 378.488 227.47 378.675 227.803 379.008C228.135 379.34 228.322 379.791 228.322 380.261Z" fill="white"/>
<path fill-rule="evenodd" clip-rule="evenodd" d="M466.621 380.261C466.621 380.732 466.434 381.183 466.101 381.515C465.769 381.848 465.318 382.034 464.848 382.034H451.254V395.628C451.254 396.098 451.067 396.549 450.735 396.882C450.402 397.214 449.951 397.401 449.481 397.401C449.011 397.401 448.56 397.214 448.227 396.882C447.895 396.549 447.708 396.098 447.708 395.628V382.034H434.115C433.644 382.034 433.193 381.848 432.861 381.515C432.528 381.183 432.342 380.732 432.342 380.261C432.342 379.791 432.528 379.34 432.861 379.008C433.193 378.675 433.644 378.488 434.115 378.488H447.708V364.895C447.708 364.425 447.895 363.974 448.227 363.641C448.56 363.309 449.011 363.122 449.481 363.122C449.951 363.122 450.402 363.309 450.735 363.641C451.067 363.974 451.254 364.425 451.254 364.895V378.488H464.848C465.318 378.488 465.769 378.675 466.101 379.008C466.434 379.34 466.621 379.791 466.621 380.261Z" fill="white"/>
</svg>
