<svg width="176" height="31" viewBox="0 0 176 31" fill="none" xmlns="http://www.w3.org/2000/svg">
<path d="M22.4224 25.6266L38.8304 0H45.1906V30.94H38.8304V11.2699L26.1579 30.94H19.0326L6.36015 10.5206V30.94H0V0H6.36015L22.4224 25.6266Z" fill="#111111"/>
<path d="M81.8993 22.6499V0H88.2595V30.94H81.8993L58.8976 8.466V30.94H52.5374V0H58.8976L81.8993 22.6499Z" fill="#111111"/>
<path d="M118.347 25.1838L134.472 0H140.832V30.94H134.472V11.2699L121.799 30.94H114.674L102.002 11.3552V30.94H95.6414V0H102.002L118.347 25.1838Z" fill="#111111"/>
<path d="M154.539 0V25.6319H175.102V30.94H148.179V0H154.539Z" fill="#111111"/>
</svg>
