<svg width="43" height="43" viewBox="0 0 43 43" fill="none" xmlns="http://www.w3.org/2000/svg">
<path d="M29.9469 18.305C29.9369 17.5476 29.7951 16.7978 29.5279 16.089C29.2963 15.4912 28.9425 14.9482 28.4891 14.4948C28.0358 14.0415 27.4928 13.6877 26.8949 13.456C26.1953 13.1934 25.4561 13.0513 24.7089 13.036C23.7469 12.993 23.4419 12.981 20.9999 12.981C18.5579 12.981 18.2449 12.981 17.2899 13.036C16.5431 13.0515 15.8043 13.1935 15.1049 13.456C14.507 13.6875 13.964 14.0412 13.5106 14.4946C13.0572 14.948 12.7034 15.4911 12.4719 16.089C12.2088 16.7881 12.0671 17.5271 12.0529 18.274C12.0099 19.237 11.9969 19.542 11.9969 21.984C11.9969 24.426 11.9969 24.738 12.0529 25.694C12.0679 26.442 12.2089 27.18 12.4719 27.881C12.7038 28.4788 13.0578 29.0216 13.5114 29.4748C13.9649 29.928 14.508 30.2816 15.1059 30.513C15.8034 30.7862 16.5423 30.9384 17.2909 30.963C18.2539 31.006 18.5589 31.019 21.0009 31.019C23.4429 31.019 23.7559 31.019 24.7109 30.963C25.4581 30.9483 26.1973 30.8066 26.8969 30.544C27.4946 30.3121 28.0375 29.9582 28.4908 29.5048C28.9441 29.0515 29.298 28.5087 29.5299 27.911C29.7929 27.211 29.9339 26.473 29.9489 25.724C29.9919 24.762 30.0049 24.457 30.0049 22.014C30.0029 19.572 30.0029 19.262 29.9469 18.305ZM20.9939 26.602C18.4399 26.602 16.3709 24.533 16.3709 21.979C16.3709 19.425 18.4399 17.356 20.9939 17.356C22.22 17.356 23.3959 17.8431 24.2629 18.71C25.1299 19.577 25.6169 20.7529 25.6169 21.979C25.6169 23.2051 25.1299 24.381 24.2629 25.248C23.3959 26.1149 22.22 26.602 20.9939 26.602ZM25.8009 18.263C25.6593 18.2631 25.5191 18.2353 25.3883 18.1812C25.2574 18.1271 25.1385 18.0477 25.0384 17.9476C24.9383 17.8474 24.8589 17.7285 24.8047 17.5977C24.7506 17.4668 24.7228 17.3266 24.7229 17.185C24.7229 17.0435 24.7508 16.9034 24.805 16.7727C24.8591 16.6419 24.9385 16.5232 25.0385 16.4231C25.1386 16.323 25.2574 16.2437 25.3881 16.1895C25.5188 16.1354 25.6589 16.1075 25.8004 16.1075C25.9419 16.1075 26.0821 16.1354 26.2128 16.1895C26.3435 16.2437 26.4623 16.323 26.5624 16.4231C26.6624 16.5232 26.7418 16.6419 26.7959 16.7727C26.8501 16.9034 26.8779 17.0435 26.8779 17.185C26.8779 17.781 26.3959 18.263 25.8009 18.263Z" fill="#E52828"/>
<path d="M20.994 24.982C22.6525 24.982 23.997 23.6375 23.997 21.979C23.997 20.3205 22.6525 18.976 20.994 18.976C19.3355 18.976 17.991 20.3205 17.991 21.979C17.991 23.6375 19.3355 24.982 20.994 24.982Z" fill="#E52828"/>
<rect x="0.5" y="0.5" width="42" height="42" stroke="#E52828"/>
</svg>
