<svg width="43" height="43" viewBox="0 0 43 43" fill="none" xmlns="http://www.w3.org/2000/svg">
<path d="M22 19H26.5L26 21H22V30H20V21H16V19H20V17.128C20 15.345 20.186 14.698 20.534 14.046C20.875 13.4018 21.4018 12.875 22.046 12.534C22.698 12.186 23.345 12 25.128 12C25.65 12 26.108 12.05 26.5 12.15V14H25.128C23.804 14 23.401 14.078 22.99 14.298C22.686 14.46 22.46 14.686 22.298 14.99C22.078 15.401 22 15.804 22 17.128V19Z" fill="#E52828"/>
<rect x="0.5" y="0.5" width="42" height="42" stroke="#E52828"/>
</svg>
