<svg width="504" height="500" viewBox="0 0 504 500" fill="none" xmlns="http://www.w3.org/2000/svg">
<path d="M298.706 240.871L305.83 248.347L298.706 255.823C272.226 283.61 229.294 283.61 202.814 255.823L195.69 248.347L202.814 240.871C229.294 213.084 272.226 213.084 298.706 240.871Z" stroke="black"/>
<line x1="250.5" y1="2.18557e-08" x2="250.5" y2="230" stroke="black"/>
<line y1="248.5" x2="230" y2="248.5" stroke="black"/>
<line x1="274" y1="248.5" x2="504" y2="248.5" stroke="black"/>
<line x1="250.5" y1="270" x2="250.5" y2="500" stroke="black"/>
<path d="M275.5 248.5C261.417 248.5 250.5 236.583 250.5 222.5" stroke="black"/>
<path d="M250.5 224C250.5 238.083 238.583 248.5 224.5 248.5" stroke="black"/>
<path d="M250.5 274C250.5 259.917 262.917 248.5 277 248.5" stroke="black"/>
<path d="M225 248.5C239.083 248.5 250.5 260.917 250.5 275" stroke="black"/>
</svg>
