<svg width="249" height="240" viewBox="0 0 249 240" fill="none" xmlns="http://www.w3.org/2000/svg">
<path d="M76.1276 111.708C102.986 84.2872 146.533 84.2872 173.392 111.708L179.82 118.271L173.392 124.834C146.533 152.255 102.986 152.255 76.1276 124.834L69.6995 118.271L76.1276 111.708Z" stroke="black"/>
<line x1="125.5" y1="2.18557e-08" x2="125.5" y2="100" stroke="black"/>
<line y1="118.5" x2="100" y2="118.5" stroke="black"/>
<line x1="149" y1="118.5" x2="249" y2="118.5" stroke="black"/>
<line x1="125.5" y1="140" x2="125.5" y2="240" stroke="black"/>
<path d="M150.5 118.5C136.417 118.5 125.5 106.583 125.5 92.5" stroke="black"/>
<path d="M125.5 94C125.5 108.083 113.583 118.5 99.5 118.5" stroke="black"/>
<path d="M125.5 144C125.5 129.917 137.917 118.5 152 118.5" stroke="black"/>
<path d="M100 118.5C114.083 118.5 125.5 130.917 125.5 145" stroke="black"/>
</svg>
